<svg width="86" height="31" viewBox="0 0 86 31" fill="none" xmlns="http://www.w3.org/2000/svg">
<g clip-path="url(#clip0_5481_5040)">
<path d="M21.8856 13.2783H27.6038V14.5404H25.5265V21.0738H23.9629V14.5404H21.8856V13.2783Z" fill="#28AAE1"/>
<path d="M33.6458 17.7568H30.3065V21.0738H28.7429V13.2783H30.3065V16.4836H33.6458V13.2783H35.2094V21.0738H33.6458V17.7568Z" fill="#28AAE1"/>
<path d="M39.6762 13.2783C41.5525 13.2783 42.4907 14.3617 42.4907 15.6683C42.4907 16.6176 41.9657 17.5782 40.7148 17.9132L42.5799 21.0738H40.7707L39.0508 18.036H38.3137V21.0738H36.7501V13.2783H39.6762ZM39.6204 14.5739H38.3137V16.8634H39.6204C40.4915 16.8634 40.8824 16.4055 40.8824 15.7018C40.8824 15.0094 40.4915 14.5739 39.6204 14.5739Z" fill="#28AAE1"/>
<path d="M48.4319 14.5398H45.4724V16.4942H48.0969V17.7339H45.4724V19.8H48.4319V21.0732H43.9088V13.2666H48.4319V14.5398Z" fill="#28AAE1"/>
<path d="M54.3733 14.5398H51.4138V16.4942H54.0384V17.7339H51.4138V19.8H54.3733V21.0732H49.8502V13.2666H54.3733V14.5398Z" fill="#28AAE1"/>
<path d="M58.2708 17.7451H56.6961V21.0732H55.9143V13.2666H58.2708C60.0801 13.2666 60.9065 14.227 60.9065 15.5114C60.9065 16.7734 60.1024 17.7451 58.2708 17.7451ZM58.2708 17.075C59.5887 17.075 60.1024 16.4719 60.1024 15.5114C60.1024 14.5063 59.5887 13.9255 58.2708 13.9255H56.6961V17.075H58.2708Z" fill="#28AAE1"/>
<path d="M62.0342 13.2449C62.0342 13.0938 62.0942 12.9489 62.201 12.8421C62.3078 12.7353 62.4527 12.6753 62.6038 12.6753C62.7548 12.6753 62.8997 12.7353 63.0065 12.8421C63.1133 12.9489 63.1734 13.0938 63.1734 13.2449C63.1748 13.3206 63.1612 13.3959 63.1332 13.4663C63.1053 13.5367 63.0635 13.6008 63.0105 13.6549C62.9575 13.709 62.8942 13.7519 62.8243 13.7812C62.7545 13.8106 62.6795 13.8257 62.6038 13.8257C62.528 13.8257 62.453 13.8106 62.3832 13.7812C62.3134 13.7519 62.2501 13.709 62.197 13.6549C62.144 13.6008 62.1023 13.5367 62.0743 13.4663C62.0463 13.3959 62.0327 13.3206 62.0342 13.2449ZM62.2129 14.976H62.9946V21.0739H62.2129V14.976Z" fill="#28AAE1"/>
<path d="M64.7705 12.8086H65.5523V21.0731H64.7705V12.8086Z" fill="#28AAE1"/>
<path d="M67.3278 12.8086H68.1095V21.0731H67.3278V12.8086Z" fill="#28AAE1"/>
<path d="M72.4435 14.8867C73.6721 14.8867 74.5097 15.5456 74.8559 16.3163V14.9761H75.6377V21.074H74.8559V19.7226C74.4985 20.5044 73.6497 21.1633 72.4324 21.1633C70.7683 21.1633 69.5286 19.9236 69.5286 18.0139C69.5286 16.1041 70.7683 14.8867 72.4435 14.8867ZM72.5887 15.568C71.3043 15.568 70.3215 16.4614 70.3215 18.0139C70.3215 19.5551 71.3043 20.482 72.5887 20.482C73.8396 20.482 74.8559 19.5439 74.8559 18.025C74.8559 16.5061 73.8396 15.568 72.5887 15.568Z" fill="#28AAE1"/>
<path d="M78.2051 21.0734H77.4233V14.9755H78.2051V16.0588C78.5402 15.3105 79.2437 14.8638 80.2936 14.8638V15.6791H80.0814C79.0651 15.6791 78.2051 16.137 78.2051 17.667V21.0734Z" fill="#28AAE1"/>
<path d="M83.566 21.1633C82.1812 21.1633 81.2095 20.4709 81.109 19.3541H81.9131C81.9801 20.0241 82.5609 20.5044 83.5549 20.5044C84.426 20.5044 84.9174 20.0353 84.9174 19.4546C84.9174 17.9468 81.2542 18.8291 81.2542 16.5396C81.2542 15.635 82.1142 14.8867 83.3985 14.8867C84.7052 14.8867 85.5652 15.5791 85.6322 16.7518H84.8504C84.8057 16.0706 84.3032 15.5568 83.3762 15.5568C82.5609 15.5568 82.0471 15.9924 82.0471 16.5284C82.0471 18.1814 85.6546 17.2991 85.6881 19.4546C85.6881 20.4374 84.8281 21.1633 83.566 21.1633Z" fill="#28AAE1"/>
<path d="M24.4772 24.2337C24.4772 24.9498 23.9851 25.4147 23.2283 25.4147H22.4003V23.0459H23.2283C23.9851 23.0459 24.4772 23.5143 24.4772 24.2337ZM23.2114 25.0108C23.7102 25.0108 23.9919 24.7258 23.9919 24.2337C23.9919 23.7416 23.7102 23.4464 23.2114 23.4464H22.8754V25.0108H23.2114Z" fill="white"/>
<path d="M25.7493 23.0459H26.2244V25.4147H25.7493V23.0459Z" fill="white"/>
<path d="M29.8046 23.7593H29.2582C29.1496 23.5591 28.9528 23.4539 28.7017 23.4539C28.2774 23.4539 27.9822 23.7559 27.9822 24.2276C27.9822 24.7095 28.2808 25.0082 28.722 25.0082C29.0886 25.0082 29.3227 24.7977 29.394 24.4618H28.5795V24.0987H29.8623V24.5127C29.8076 24.7775 29.6619 25.0148 29.4505 25.1834C29.2391 25.352 28.9754 25.4413 28.705 25.4358C28.0162 25.4358 27.4935 24.9369 27.4935 24.2276C27.4935 23.5184 28.0162 23.0161 28.7017 23.0161C29.2311 23.0161 29.6519 23.2842 29.8046 23.7593Z" fill="white"/>
<path d="M31.1313 23.0459H31.6065V25.4147H31.1313V23.0459Z" fill="white"/>
<path d="M32.8654 23.0459H34.6029V23.4294H33.9717V25.4147H33.4966V23.4294H32.8654L32.8654 23.0459Z" fill="white"/>
<path d="M37.3185 24.9633H36.3751L36.2189 25.4146H35.7201L36.5719 23.0425H37.1251L37.9769 25.4146H37.4746L37.3185 24.9633ZM36.8468 23.5922L36.504 24.5832H37.1895L36.8468 23.5922Z" fill="white"/>
<path d="M39.6867 23.0459V25.038H40.4672V25.4147H39.2115V23.0459H39.6867Z" fill="white"/>
<path d="M41.6852 23.0459H42.1603V25.4147H41.6852V23.0459Z" fill="white"/>
<path d="M45.0961 23.4125L44.0306 25.0142H45.0961V25.4147H43.4808V25.0482L44.5396 23.4464H43.4808V23.0459H45.0961V23.4125Z" fill="white"/>
<path d="M47.8684 24.9633H46.925L46.7688 25.4146H46.27L47.1218 23.0425H47.675L48.5268 25.4146H48.0245L47.8684 24.9633ZM47.3967 23.5922L47.0539 24.5832H47.7394L47.3967 23.5922Z" fill="white"/>
<path d="M49.6362 23.0459H51.3738V23.4294H50.7425V25.4147H50.2675V23.4294H49.6362V23.0459Z" fill="white"/>
<path d="M52.636 23.0459H53.1111V25.4147H52.636V23.0459Z" fill="white"/>
<path d="M55.595 25.4386C55.3551 25.439 55.1204 25.3681 54.9207 25.2351C54.721 25.1021 54.5653 24.9128 54.4731 24.6913C54.381 24.4697 54.3566 24.2258 54.4031 23.9904C54.4496 23.755 54.5648 23.5387 54.7343 23.3688C54.9037 23.1988 55.1197 23.083 55.355 23.0359C55.5903 22.9887 55.8342 23.0124 56.0561 23.1039C56.2779 23.1954 56.4676 23.3507 56.6012 23.55C56.7347 23.7493 56.8062 23.9838 56.8066 24.2237C56.8099 24.3839 56.7808 24.5431 56.7212 24.6918C56.6615 24.8404 56.5724 24.9755 56.4593 25.089C56.3462 25.2024 56.2113 25.2918 56.0628 25.3519C55.9143 25.412 55.7552 25.4415 55.595 25.4386ZM55.595 25.0144C56.0226 25.0144 56.3179 24.7056 56.3179 24.2237C56.3179 23.7419 56.0226 23.4398 55.595 23.4398C55.164 23.4398 54.8688 23.7419 54.8688 24.2237C54.8688 24.7056 55.164 25.0144 55.595 25.0144Z" fill="white"/>
<path d="M60.102 23.0425V25.4146H59.6268L58.5511 23.7891V25.4146H58.0759V23.0425H58.5511L59.6268 24.6714V23.0425H60.102Z" fill="white"/>
<path d="M64.2963 23.0161C64.8223 23.0161 65.2499 23.2978 65.4094 23.7831H64.863C64.8122 23.6765 64.7309 23.5873 64.6294 23.5269C64.528 23.4665 64.4109 23.4376 64.2929 23.4437C63.8789 23.4437 63.5837 23.7458 63.5837 24.2276C63.5837 24.7061 63.8789 25.0115 64.2929 25.0115C64.4113 25.0177 64.5288 24.9884 64.6304 24.9273C64.732 24.8663 64.813 24.7762 64.863 24.6688H65.4094C65.2499 25.1575 64.8223 25.4358 64.2963 25.4358C63.6142 25.4358 63.095 24.9369 63.095 24.2276C63.095 23.5184 63.6142 23.0161 64.2963 23.0161Z" fill="white"/>
<path d="M67.8321 25.4386C67.5921 25.439 67.3575 25.3681 67.1578 25.2351C66.9581 25.1021 66.8023 24.9128 66.7102 24.6913C66.6181 24.4697 66.5937 24.2258 66.6402 23.9904C66.6867 23.755 66.8019 23.5387 66.9713 23.3688C67.1408 23.1988 67.3568 23.083 67.5921 23.0359C67.8273 22.9887 68.0713 23.0124 68.2931 23.1039C68.5149 23.1954 68.7046 23.3507 68.8382 23.55C68.9718 23.7493 69.0433 23.9838 69.0436 24.2237C69.0469 24.3839 69.0179 24.5431 68.9582 24.6918C68.8985 24.8404 68.8095 24.9755 68.6964 25.089C68.5832 25.2024 68.4484 25.2918 68.2999 25.3519C68.1514 25.412 67.9923 25.4415 67.8321 25.4386ZM67.8321 25.0144C68.2597 25.0144 68.555 24.7056 68.555 24.2237C68.555 23.7419 68.2597 23.4398 67.8321 23.4398C67.4011 23.4398 67.1059 23.7419 67.1059 24.2237C67.1059 24.7056 67.4011 25.0144 67.8321 25.0144Z" fill="white"/>
<path d="M70.313 23.0459H70.8526L71.606 24.8072L72.3594 23.0459H72.8956V25.4147H72.4205V23.874L71.7859 25.4147H71.4261L70.7881 23.874V25.4147H70.313V23.0459Z" fill="white"/>
<path d="M75.1521 24.5052H74.7551V25.4147H74.2799V23.0459H75.1521C75.7222 23.0459 76.0073 23.3683 76.0073 23.7789C76.0073 24.1386 75.763 24.5052 75.1521 24.5052ZM75.1317 24.1217C75.3998 24.1217 75.5186 23.9894 75.5186 23.7789C75.5186 23.5617 75.3998 23.4328 75.1317 23.4328H74.7551V24.1217H75.1317Z" fill="white"/>
<path d="M78.7123 24.9633H77.7689L77.6127 25.4146H77.1139L77.9657 23.0425H78.5189L79.3707 25.4146H78.8684L78.7123 24.9633ZM78.2405 23.5922L77.8978 24.5832H78.5833L78.2405 23.5922Z" fill="white"/>
<path d="M82.6314 23.0425V25.4146H82.1562L81.0805 23.7891V25.4146H80.6053V23.0425H81.0805L82.1562 24.6714V23.0425H82.6314Z" fill="white"/>
<path d="M83.8196 23.0459H84.3558L84.8648 24.1285L85.3705 23.0459H85.8999L85.099 24.59V25.4147H84.6239V24.59L83.8196 23.0459Z" fill="white"/>
<path d="M24.8118 28.9297C24.8157 28.9919 24.8067 29.0542 24.7854 29.1127C24.764 29.1713 24.7308 29.2248 24.6878 29.2699C24.6419 29.3127 24.5878 29.3458 24.5288 29.3671C24.4698 29.3884 24.407 29.3975 24.3444 29.3939H22.9168C22.8348 29.397 22.7532 29.3818 22.6778 29.3493C22.6025 29.3169 22.5353 29.268 22.4812 29.2063C22.3682 29.0652 22.3105 28.8877 22.3191 28.7071C22.3192 28.5482 22.362 28.3923 22.4431 28.2556H22.726C22.6388 28.3672 22.5867 28.5022 22.5766 28.6435C22.5766 28.952 22.7038 29.1078 22.955 29.1078H24.2649C24.4207 29.1078 24.5002 29.025 24.5002 28.8566V28.5418L24.4398 28.1348L24.8118 28.0489V28.9297ZM23.3238 28.2524C23.2985 28.253 23.2734 28.2485 23.25 28.2392C23.2265 28.2299 23.2051 28.2161 23.1871 28.1984C23.151 28.1623 23.1304 28.1134 23.1298 28.0623C23.1292 28.0112 23.1486 27.9619 23.1839 27.925C23.2021 27.9065 23.2239 27.8918 23.248 27.882C23.272 27.8722 23.2978 27.8673 23.3238 27.8677C23.3485 27.8672 23.3732 27.8717 23.3961 27.881C23.4191 27.8903 23.4399 27.9042 23.4574 27.9218C23.4759 27.94 23.4905 27.9618 23.5003 27.9859C23.5101 28.0099 23.515 28.0357 23.5145 28.0617C23.5151 28.0864 23.5106 28.111 23.5013 28.134C23.492 28.157 23.4781 28.1778 23.4605 28.1952C23.4429 28.2137 23.4217 28.2283 23.3981 28.2381C23.3746 28.248 23.3493 28.2528 23.3238 28.2524ZM23.8325 28.2524C23.8073 28.253 23.7822 28.2485 23.7587 28.2392C23.7352 28.2299 23.7138 28.2161 23.6958 28.1984C23.6597 28.1623 23.6392 28.1134 23.6386 28.0623C23.638 28.0112 23.6574 27.9619 23.6926 27.925C23.7108 27.9065 23.7326 27.8918 23.7567 27.882C23.7807 27.8722 23.8065 27.8673 23.8325 27.8677C23.8573 27.8672 23.8819 27.8717 23.9048 27.881C23.9278 27.8903 23.9486 27.9042 23.9661 27.9218C23.9846 27.94 23.9992 27.9618 24.009 27.9859C24.0188 28.0099 24.0237 28.0357 24.0232 28.0617C24.0238 28.0864 24.0193 28.111 24.01 28.134C24.0007 28.157 23.9869 28.1778 23.9693 28.1952C23.9516 28.2137 23.9304 28.2283 23.9068 28.2381C23.8833 28.248 23.858 28.2528 23.8325 28.2524Z" fill="white"/>
<path d="M26.1879 29.3943C26.1244 29.3998 26.0606 29.3913 26.0007 29.3694C25.9409 29.3475 25.8867 29.3127 25.8418 29.2675C25.7969 29.2223 25.7625 29.1678 25.741 29.1079C25.7195 29.0479 25.7114 28.984 25.7174 28.9205V27.8396L25.6633 27.4326L26.0354 27.3467V28.8474C26.0354 29.0223 26.1116 29.1082 26.2642 29.1082H26.436V29.3943H26.1879Z" fill="white"/>
<path d="M27.1031 29.085V29.3934H26.3687V29.085H27.1031Z" fill="white"/>
<path d="M27.7773 29.085V29.3934H27.0428V29.085H27.7773Z" fill="white"/>
<path d="M29.3158 28.3921V28.834C29.3158 29.206 29.0774 29.3936 28.6036 29.3936H27.7134V29.1075H28.1998C28.1359 29.0054 28.1018 28.8876 28.1013 28.7672C28.0965 28.6636 28.1126 28.5601 28.1487 28.4629C28.1847 28.3657 28.24 28.2767 28.3111 28.2013C28.451 28.0582 28.6417 27.9883 28.8866 27.9883C29.041 27.99 29.1942 28.0146 29.3413 28.0614L29.3158 28.3921ZM28.9852 28.2299C28.932 28.2122 28.8759 28.2046 28.8198 28.2076C28.5496 28.2076 28.416 28.373 28.416 28.7069C28.416 28.9739 28.5082 29.1075 28.6895 29.1075C28.9152 29.1075 29.0297 28.9643 29.0297 28.6814V28.6242C29.0302 28.6029 29.0292 28.5816 29.0265 28.5605C29.0227 28.5115 29.0163 28.4627 29.0074 28.4143L28.9852 28.2299Z" fill="white"/>
<path d="M31.3441 29.3939C31.2901 29.7595 31.0643 29.9948 30.6732 30.0965L30.6064 29.9726C30.8767 29.8676 31.023 29.6768 31.0389 29.3939H30.7368C30.6604 29.3975 30.5841 29.3856 30.5125 29.3588C30.4409 29.332 30.3755 29.2909 30.3203 29.2381C30.2609 29.1793 30.2143 29.1089 30.1837 29.0311C30.153 28.9534 30.1389 28.8701 30.1422 28.7866C30.1374 28.6845 30.1529 28.5824 30.1878 28.4864C30.2228 28.3903 30.2764 28.3022 30.3457 28.227C30.4156 28.1551 30.4999 28.0987 30.593 28.0615C30.6861 28.0242 30.786 28.007 30.8863 28.0108H31.3504V29.1077H31.7193V29.3939H31.3441ZM31.0293 28.1952H30.8672C30.8099 28.1926 30.7528 28.2044 30.7012 28.2293C30.6496 28.2543 30.605 28.2918 30.5715 28.3383C30.4957 28.4541 30.4589 28.5911 30.4666 28.7293C30.4666 28.9805 30.5651 29.1077 30.7622 29.1077H31.0293V28.1952Z" fill="white"/>
<path d="M32.6187 29.3943C32.5054 29.4003 32.3936 29.3653 32.3039 29.2957C32.2186 29.3643 32.1112 29.3994 32.0019 29.3943H31.614V29.1082H31.9192C32.0719 29.1082 32.1481 29.0223 32.1481 28.8474V27.8586L32.0878 27.4326L32.4661 27.3467V28.8474C32.4661 29.0223 32.5424 29.1082 32.6951 29.1082H32.8318V29.3943H32.6187Z" fill="white"/>
<path d="M34.17 29.3937C34.0557 29.3866 33.9436 29.3586 33.8393 29.3111C33.7674 29.3275 33.6933 29.3318 33.62 29.3237C33.5277 29.3206 33.48 29.3428 33.48 29.3937H32.6915V29.1076H33.4291C33.4709 29.1091 33.5126 29.1048 33.5532 29.0949L33.3656 28.9231L33.0222 28.5989C33.0222 28.4494 33.1017 28.3127 33.2607 28.1919C33.4297 28.0698 33.634 28.0062 33.8425 28.0106C34.0517 28.0048 34.2567 28.0698 34.4244 28.1951C34.5802 28.3127 34.6564 28.4494 34.6596 28.5989L34.1223 29.0948L34.1859 29.1044C34.1963 29.107 34.207 29.1081 34.2177 29.1076H34.9267V29.3937L34.17 29.3937ZM34.3163 28.5416C34.3086 28.5064 34.2936 28.4732 34.2722 28.4441C34.2508 28.4151 34.2236 28.3909 34.1922 28.3731C34.0871 28.3124 33.967 28.2826 33.8457 28.2873C33.7252 28.2813 33.6058 28.3112 33.5023 28.3731C33.4694 28.3901 33.4404 28.4139 33.4174 28.443C33.3944 28.472 33.3778 28.5057 33.3688 28.5416L33.6899 28.85C33.7439 28.9041 33.7948 28.9486 33.8425 28.9899L34.3163 28.5416Z" fill="white"/>
<path d="M36.631 29.3938C36.5217 29.3989 36.4142 29.3638 36.329 29.2952C36.2624 29.3812 36.1771 29.4508 36.0796 29.4987C35.9821 29.5466 35.8749 29.5717 35.7662 29.5718C35.6832 29.5742 35.6012 29.5535 35.5293 29.5119C35.4574 29.4704 35.3985 29.4097 35.3592 29.3366C35.2858 29.3755 35.2038 29.3952 35.1207 29.3938H34.7869V29.1077H35.0317C35.1747 29.1077 35.2479 29.0377 35.2511 28.8978C35.25 28.7979 35.2692 28.6987 35.3074 28.6064C35.3457 28.514 35.4022 28.4304 35.4736 28.3604C35.6104 28.2301 35.8011 28.1665 36.0459 28.1665C36.2033 28.1692 36.3596 28.1938 36.5101 28.2397L36.4688 28.5703V28.8565C36.4688 29.025 36.5451 29.1077 36.7009 29.1077H36.8599V29.3938H36.631ZM36.1572 28.5862L36.1318 28.4081C36.0828 28.3911 36.031 28.3836 35.9791 28.3859C35.7121 28.3859 35.5785 28.5513 35.5785 28.8851C35.5721 28.9943 35.5987 29.1029 35.6549 29.1967C35.674 29.2307 35.7016 29.2592 35.7351 29.2792C35.7685 29.2993 35.8066 29.3103 35.8456 29.3112C35.9043 29.3108 35.9622 29.2979 36.0154 29.2732C36.0686 29.2485 36.1159 29.2126 36.1541 29.168L36.1572 28.5862Z" fill="white"/>
<path d="M37.8329 28.92C37.8381 28.9836 37.8294 29.0475 37.8074 29.1073C37.7854 29.1672 37.7507 29.2215 37.7056 29.2666C37.6606 29.3117 37.6062 29.3464 37.5464 29.3684C37.4865 29.3903 37.4226 29.399 37.3591 29.3938H36.7614V29.1077H37.2796C37.4354 29.1077 37.5149 29.0218 37.5149 28.8469V27.8359L37.4576 27.4162L37.8297 27.3271V28.92H37.8329Z" fill="white"/>
<path d="M38.996 27.7627V29.3938H38.6812V27.7659L38.6304 27.3717L39.0278 27.3398L38.996 27.7627Z" fill="white"/>
<path d="M43.2223 29.3936C43.1559 29.3988 43.0891 29.3902 43.0262 29.3683C42.9632 29.3464 42.9055 29.3117 42.8567 29.2664C42.7391 29.3523 42.5737 29.3936 42.3543 29.3936H41.5817C41.4259 29.3936 41.3496 29.4731 41.3496 29.632V30.0454L41.0316 29.8323V29.5462C41.0283 29.4867 41.038 29.4271 41.06 29.3717C41.0819 29.3162 41.1157 29.2662 41.1588 29.2251C41.2052 29.1834 41.2596 29.1515 41.3186 29.1313C41.3776 29.1111 41.44 29.103 41.5022 29.1075H41.9505C41.8867 29.0054 41.8525 28.8876 41.852 28.7672C41.8472 28.6636 41.8633 28.5601 41.8994 28.4629C41.9354 28.3657 41.9907 28.2767 42.0618 28.2013C42.2017 28.0582 42.3925 27.9883 42.6373 27.9883C42.7927 27.9902 42.9469 28.0149 43.0952 28.0614L43.0602 28.3921V28.8149C43.0602 29.0089 43.1365 29.1075 43.2923 29.1075H43.5148V29.3936L43.2223 29.3936ZM42.7359 28.2299C42.6825 28.2129 42.6265 28.2054 42.5705 28.2076C42.3003 28.2076 42.1667 28.373 42.1667 28.7069C42.1667 28.9739 42.2589 29.1075 42.4402 29.1075C42.6659 29.1075 42.7804 28.9643 42.7804 28.6814V28.6242C42.7809 28.6029 42.7799 28.5816 42.7772 28.5605C42.7734 28.5115 42.767 28.4627 42.7581 28.4143L42.7359 28.2299Z" fill="white"/>
<path d="M44.1631 29.085V29.3934H43.4287V29.085H44.1631Z" fill="white"/>
<path d="M44.8377 29.085V29.3934H44.1033V29.085H44.8377Z" fill="white"/>
<path d="M44.7638 29.3943V29.1082H45.2407V27.8681L45.1867 27.4771L45.5873 27.4421L45.5491 27.8618V28.7838C45.6557 28.6022 45.7947 28.4416 45.9593 28.3101C46.1818 28.1289 46.3917 28.0399 46.592 28.0399C46.7866 28.0293 46.9791 28.0841 47.1389 28.1957C47.2074 28.2432 47.263 28.307 47.3007 28.3814C47.3384 28.4558 47.3571 28.5383 47.3551 28.6217V29.1082H47.6571V29.3943L44.7638 29.3943ZM47.0371 28.6725C47.0371 28.4309 46.8655 28.3101 46.5252 28.3101C46.344 28.3101 46.1405 28.4182 45.9148 28.6344C45.83 28.7121 45.7523 28.7972 45.6827 28.8888C45.6309 28.9561 45.5882 29.0298 45.5555 29.1082H47.0371V28.6725ZM46.751 27.5406C46.7517 27.5657 46.7469 27.5906 46.737 27.6137C46.7272 27.6368 46.7124 27.6574 46.6938 27.6742C46.6761 27.6927 46.6549 27.7073 46.6314 27.7171C46.6079 27.727 46.5826 27.7318 46.5571 27.7314C46.5065 27.7302 46.458 27.711 46.4203 27.6774C46.4016 27.66 46.3868 27.6387 46.377 27.6152C46.3671 27.5916 46.3623 27.5662 46.363 27.5406C46.362 27.515 46.3666 27.4895 46.3765 27.4659C46.3864 27.4423 46.4013 27.4211 46.4203 27.4039C46.4375 27.3858 46.4582 27.3713 46.4812 27.3615C46.5041 27.3517 46.5289 27.3466 46.5539 27.3467C46.6055 27.3473 46.6551 27.3665 46.6938 27.4007C46.7117 27.4192 46.7257 27.4411 46.735 27.4652C46.7443 27.4892 46.7486 27.5149 46.7478 27.5406H46.751Z" fill="white"/>
<path d="M48.563 29.3943C48.4513 29.3993 48.3412 29.3657 48.2514 29.2989C48.1634 29.3643 48.0558 29.3979 47.9462 29.3943H47.5679V29.1082H47.8636C48.0194 29.1082 48.0957 29.0255 48.0957 28.857V28.5486L48.0321 28.1352L48.4104 28.0493V28.857C48.4104 29.0255 48.4868 29.1082 48.6426 29.1082H48.8015V29.3943L48.563 29.3943ZM48.1943 27.7314C48.1437 27.7302 48.0952 27.7111 48.0575 27.6774C48.0372 27.6604 48.0212 27.6389 48.0107 27.6146C48.0002 27.5903 47.9956 27.5639 47.9971 27.5374C47.9964 27.5124 48.0011 27.4874 48.011 27.4644C48.0209 27.4413 48.0357 27.4207 48.0543 27.4039C48.0905 27.3678 48.1393 27.3473 48.1904 27.3467C48.2415 27.3461 48.2908 27.3655 48.3278 27.4007C48.3463 27.4182 48.3612 27.4391 48.3715 27.4624C48.3819 27.4856 48.3875 27.5107 48.3881 27.5361C48.3887 27.5616 48.3843 27.5869 48.375 27.6106C48.3657 27.6343 48.3518 27.6559 48.3341 27.6742C48.3159 27.6927 48.2941 27.7073 48.2701 27.7172C48.246 27.727 48.2202 27.7319 48.1943 27.7314Z" fill="white"/>
<path d="M49.7745 28.92C49.7797 28.9836 49.7711 29.0475 49.7491 29.1073C49.7271 29.1672 49.6924 29.2215 49.6473 29.2666C49.6022 29.3117 49.5479 29.3464 49.488 29.3684C49.4282 29.3904 49.3643 29.399 49.3007 29.3938H48.703V29.1077H49.2213C49.3771 29.1077 49.4565 29.0218 49.4565 28.8469V27.8359L49.3993 27.4162L49.7713 27.3271V28.92H49.7745Z" fill="white"/>
<path d="M53.1361 29.394C53.0611 29.3972 52.9863 29.3845 52.9167 29.3565C52.847 29.3285 52.7842 29.286 52.7323 29.2318C52.6046 29.2942 52.4642 29.3257 52.3221 29.324C52.2467 29.3288 52.1712 29.3164 52.1012 29.2878C52.0313 29.2592 51.9687 29.215 51.9183 29.1587C51.8143 29.0296 51.7621 28.8664 51.7721 28.7009C51.7678 28.6083 51.7838 28.516 51.819 28.4303C51.8541 28.3446 51.9076 28.2677 51.9756 28.2048C52.1247 28.0744 52.3181 28.0062 52.5161 28.014H52.621L52.5987 27.871C52.7386 27.836 52.8658 27.8074 52.9803 27.7852V28.8503C52.9803 29.0219 53.0565 29.1078 53.2123 29.1078H53.4158V29.394H53.1361ZM52.5001 28.2271C52.4473 28.2272 52.395 28.2379 52.3464 28.2587C52.2977 28.2795 52.2538 28.3098 52.2172 28.3479C52.1778 28.3861 52.1469 28.4322 52.1267 28.4832C52.1064 28.5341 52.0971 28.5888 52.0995 28.6436C52.0995 28.9202 52.1981 29.0601 52.392 29.0601C52.4856 29.0604 52.5787 29.0475 52.6687 29.0219V28.2207L52.5001 28.2271Z" fill="white"/>
<path d="M54.0737 29.085V29.3934H53.3392V29.085H54.0737Z" fill="white"/>
<path d="M54.7479 29.085V29.3934H54.0134V29.085H54.7479Z" fill="white"/>
<path d="M55.641 28.9327C55.6443 28.9943 55.6351 29.056 55.6137 29.114C55.5924 29.1719 55.5595 29.2249 55.5169 29.2697C55.4703 29.3123 55.4156 29.3452 55.3561 29.3665C55.2966 29.3878 55.2335 29.397 55.1704 29.3937H54.684V29.1076H55.0941C55.2499 29.1076 55.3262 29.0249 55.3262 28.8564V28.5416L55.2721 28.1346L55.641 28.0519V28.9327ZM54.9669 27.7308C54.9173 27.7296 54.8699 27.7104 54.8334 27.6768C54.8144 27.6589 54.7994 27.6372 54.7896 27.613C54.7797 27.5889 54.7751 27.5629 54.7762 27.5368C54.7754 27.5118 54.7802 27.4868 54.7901 27.4638C54.8 27.4407 54.8147 27.4201 54.8334 27.4033C54.8506 27.3852 54.8713 27.3707 54.8942 27.3609C54.9172 27.351 54.9419 27.346 54.9669 27.3461C54.9921 27.3455 55.0172 27.35 55.0407 27.3593C55.0642 27.3686 55.0856 27.3825 55.1036 27.4001C55.1221 27.4184 55.1367 27.4402 55.1466 27.4642C55.1564 27.4883 55.1613 27.514 55.1608 27.54C55.1614 27.5648 55.1569 27.5894 55.1476 27.6124C55.1383 27.6354 55.1244 27.6562 55.1068 27.6736C55.0886 27.6921 55.0668 27.7067 55.0427 27.7166C55.0187 27.7264 54.9929 27.7313 54.9669 27.7308ZM55.2245 27.238C55.1728 27.2374 55.1232 27.2182 55.0846 27.1839C55.0579 27.1562 55.0399 27.1213 55.0328 27.0834C55.0258 27.0456 55.0299 27.0065 55.0448 26.971C55.0597 26.9355 55.0846 26.9052 55.1165 26.8837C55.1485 26.8622 55.186 26.8505 55.2245 26.8501C55.2494 26.85 55.2742 26.8551 55.2971 26.8649C55.3201 26.8747 55.3408 26.8892 55.358 26.9073C55.3765 26.9256 55.3911 26.9474 55.401 26.9714C55.4108 26.9954 55.4156 27.0212 55.4152 27.0472C55.4139 27.0968 55.3947 27.1443 55.3611 27.1808C55.3439 27.1997 55.3228 27.2147 55.2991 27.2245C55.2755 27.2344 55.25 27.239 55.2245 27.238ZM55.4756 27.7308C55.4379 27.7303 55.4012 27.7188 55.3699 27.6977C55.3387 27.6765 55.3143 27.6467 55.2998 27.6119C55.2853 27.5771 55.2812 27.5389 55.2882 27.5018C55.2951 27.4647 55.3128 27.4305 55.3389 27.4033C55.3565 27.3849 55.3778 27.3703 55.4013 27.3604C55.4248 27.3506 55.4501 27.3457 55.4756 27.3461C55.5009 27.3455 55.526 27.35 55.5494 27.3593C55.5729 27.3686 55.5943 27.3825 55.6123 27.4001C55.6308 27.4184 55.6455 27.4402 55.6553 27.4642C55.6651 27.4883 55.67 27.514 55.6696 27.54C55.6701 27.5648 55.6656 27.5894 55.6563 27.6124C55.647 27.6354 55.6331 27.6562 55.6155 27.6736C55.5973 27.6921 55.5755 27.7067 55.5514 27.7166C55.5274 27.7264 55.5016 27.7313 55.4756 27.7308Z" fill="white"/>
<path d="M57.9967 29.3943C57.8801 29.3988 57.7651 29.3653 57.6692 29.2989C57.5859 29.3642 57.4823 29.3979 57.3767 29.3943H56.4705L56.6072 29.1082H57.2749L56.6835 28.1002L56.3719 27.7314H56.7916L57.5261 28.9937V27.8586L57.4466 27.4326L57.8377 27.3467V28.7838C57.8377 29.0001 57.914 29.1082 58.0698 29.1082H58.2065V29.3943H57.9967Z" fill="white"/>
<path d="M59.1161 29.3937C59.0253 29.3316 58.9178 29.2983 58.8077 29.2983C58.6976 29.2983 58.5901 29.3316 58.4993 29.3937H58.121V29.1076H58.4167C58.5725 29.1076 58.6488 29.0249 58.6488 28.8564V28.548L58.5852 28.1346L58.9635 28.0487V28.8564C58.9635 29.0249 59.0399 29.1076 59.1957 29.1076H59.3546V29.3937L59.1161 29.3937ZM58.334 27.7308C58.2844 27.7296 58.237 27.7104 58.2004 27.6768C58.1814 27.6589 58.1665 27.6372 58.1566 27.613C58.1468 27.5889 58.1422 27.5629 58.1432 27.5368C58.1425 27.5118 58.1473 27.4868 58.1571 27.4638C58.167 27.4407 58.1818 27.4201 58.2004 27.4033C58.2176 27.3852 58.2383 27.3707 58.2613 27.3609C58.2843 27.3511 58.309 27.346 58.334 27.3461C58.3845 27.3473 58.433 27.3665 58.4707 27.4001C58.4902 27.4178 58.5057 27.4394 58.5161 27.4635C58.5266 27.4876 58.5317 27.5137 58.5311 27.54C58.5318 27.5651 58.5271 27.59 58.5172 27.6131C58.5073 27.6362 58.4925 27.6568 58.4739 27.6736C58.4557 27.6921 58.4339 27.7067 58.4098 27.7166C58.3858 27.7264 58.36 27.7313 58.334 27.7308ZM58.5916 27.238C58.5399 27.2374 58.4902 27.2182 58.4516 27.1839C58.4249 27.1562 58.4069 27.1212 58.3999 27.0834C58.3928 27.0456 58.397 27.0065 58.4118 26.971C58.4267 26.9355 58.4517 26.9051 58.4836 26.8837C58.5155 26.8622 58.5531 26.8505 58.5916 26.8501C58.6165 26.85 58.6413 26.8551 58.6642 26.8649C58.6872 26.8747 58.7079 26.8892 58.7251 26.9073C58.7436 26.9256 58.7582 26.9474 58.768 26.9714C58.7779 26.9955 58.7827 27.0212 58.7823 27.0472C58.781 27.0968 58.7618 27.1443 58.7283 27.1808C58.711 27.1997 58.6899 27.2147 58.6662 27.2245C58.6426 27.2344 58.6171 27.239 58.5916 27.238ZM58.8427 27.7308C58.805 27.7303 58.7683 27.7188 58.737 27.6977C58.7058 27.6766 58.6814 27.6468 58.6669 27.612C58.6523 27.5772 58.6483 27.5389 58.6552 27.5018C58.6622 27.4647 58.6798 27.4305 58.706 27.4033C58.7236 27.3849 58.7448 27.3703 58.7684 27.3604C58.7919 27.3506 58.8172 27.3457 58.8427 27.3461C58.8933 27.3473 58.9417 27.3665 58.9794 27.4001C58.9979 27.4184 59.0125 27.4402 59.0224 27.4642C59.0322 27.4883 59.0371 27.514 59.0367 27.54C59.0372 27.5648 59.0327 27.5894 59.0234 27.6124C59.0141 27.6353 59.0002 27.6562 58.9826 27.6736C58.9644 27.6921 58.9426 27.7067 58.9185 27.7166C58.8945 27.7264 58.8687 27.7313 58.8427 27.7308Z" fill="white"/>
<path d="M60.3266 28.92C60.3318 28.9836 60.3232 29.0475 60.3012 29.1073C60.2793 29.1672 60.2445 29.2215 60.1994 29.2666C60.1544 29.3117 60.1 29.3464 60.0402 29.3684C59.9803 29.3904 59.9164 29.399 59.8529 29.3938H59.2551V29.1077H59.7734C59.9292 29.1077 60.0087 29.0218 60.0087 28.8469V27.8359L59.9514 27.4162L60.3234 27.3271V28.92H60.3266Z" fill="white"/>
<path d="M61.4902 27.7627V29.3938H61.1755V27.7659L61.1246 27.3717L61.5221 27.3398L61.4902 27.7627Z" fill="white"/>
<path d="M67.1959 29.3938C67.0823 29.3973 66.9707 29.3638 66.8779 29.2984C66.7915 29.3646 66.6846 29.3984 66.5758 29.3938C66.4961 29.3948 66.4171 29.3792 66.3438 29.348C66.2704 29.3168 66.2044 29.2707 66.1498 29.2126C66.1062 29.2728 66.0481 29.3211 65.9808 29.3528C65.9135 29.3845 65.8393 29.3986 65.7651 29.3938C65.6329 29.3959 65.5044 29.3508 65.4026 29.2666C65.3936 29.4968 65.3035 29.7164 65.1482 29.8866C64.9798 30.0679 64.7444 30.1569 64.4424 30.1569C64.1372 30.1569 63.9083 30.0583 63.7557 29.858C63.6126 29.6767 63.5394 29.4224 63.5394 29.0981V28.4813H63.851V29.0854C63.851 29.3493 63.9051 29.5591 64.0164 29.7149C64.0686 29.7887 64.1384 29.8483 64.2195 29.8882C64.3005 29.9282 64.3903 29.9473 64.4806 29.9438C64.5632 29.9441 64.6447 29.9246 64.7182 29.887C64.7918 29.8494 64.8553 29.7947 64.9034 29.7276C65.0243 29.5782 65.0847 29.3747 65.0847 29.1171V28.1824L65.4026 28.1061V29.0027C65.4772 29.0734 65.5765 29.1122 65.6792 29.1108C65.8287 29.1108 65.905 29.0281 65.905 28.8596V28.2428L66.2197 28.1729V28.9932C66.2547 29.0306 66.2971 29.0604 66.3442 29.0806C66.3912 29.1009 66.442 29.1112 66.4932 29.1108C66.6458 29.1108 66.7222 29.0281 66.7222 28.8596V28.5481L66.6586 28.1347L67.0369 28.0488V28.8596C67.0369 29.0249 67.1132 29.1076 67.2658 29.1077H67.3644V29.3938H67.1959Z" fill="white"/>
<path d="M68.0123 29.085V29.3934H67.2778V29.085H68.0123Z" fill="white"/>
<path d="M68.6863 29.085V29.3934H67.9519V29.085H68.6863Z" fill="white"/>
<path d="M71.0933 28.9328C71.0975 28.9944 71.0885 29.0562 71.0669 29.1141C71.0452 29.172 71.0114 29.2245 70.9677 29.2682C70.924 29.3119 70.8715 29.3457 70.8136 29.3674C70.7557 29.389 70.6939 29.398 70.6322 29.3938C70.552 29.3951 70.4724 29.3797 70.3985 29.3485C70.3246 29.3173 70.258 29.271 70.203 29.2126C70.1595 29.2728 70.1013 29.3211 70.034 29.3528C69.9667 29.3845 69.8925 29.3986 69.8183 29.3938C69.737 29.3935 69.6566 29.3765 69.5821 29.3436C69.5077 29.3108 69.4409 29.2629 69.3859 29.203L69.3255 29.2729C69.232 29.3557 69.11 29.399 68.9853 29.3938H68.6165V29.1077H68.909C69.0584 29.1077 69.1347 29.0249 69.1379 28.8565L69.1442 28.2428L69.4558 28.1729V28.9995C69.5323 29.0718 69.6337 29.1117 69.7388 29.1108C69.8883 29.1108 69.9645 29.0281 69.9645 28.8596V28.2428L70.2761 28.1729V28.9932C70.3111 29.0306 70.3535 29.0604 70.4006 29.0806C70.4476 29.1009 70.4984 29.1112 70.5496 29.1108C70.699 29.1108 70.7753 29.0281 70.7753 28.8596V28.5481L70.7181 28.1347L71.0933 28.0488L71.0933 28.9328Z" fill="white"/>
<path d="M71.824 27.4389V27.3213H71.9385C71.9342 27.2436 71.9579 27.1669 72.0052 27.1051C72.0274 27.0769 72.056 27.0544 72.0886 27.0395C72.1213 27.0245 72.157 27.0176 72.1928 27.0193C72.2614 27.0204 72.328 27.0426 72.3836 27.0828L72.3772 27.1019C72.3746 27.1096 72.3715 27.117 72.3677 27.1242C72.364 27.1325 72.3608 27.141 72.3582 27.1496L72.3454 27.1815C72.3151 27.1491 72.2748 27.1278 72.231 27.121C72.1419 27.1242 72.0974 27.191 72.0974 27.3213H72.2532L72.3709 27.3086L72.4789 27.4389H71.824ZM73.3724 28.9206C73.3743 29.0419 73.3312 29.1597 73.2516 29.2513C73.2087 29.2993 73.1556 29.3371 73.0962 29.3618C73.0367 29.3866 72.9725 29.3977 72.9082 29.3944H72.0052L72.1419 29.1082H72.8065L72.2151 28.1003L71.9067 27.7315H72.3263L73.0576 28.9937V27.8586L72.9814 27.4326L73.3724 27.3467V28.9206Z" fill="white"/>
<path d="M74.4879 27.7627V29.3938H74.1732V27.7659L74.1223 27.3717L74.5197 27.3398L74.4879 27.7627Z" fill="white"/>
<path d="M77.9234 29.394C77.8485 29.3972 77.7736 29.3845 77.704 29.3565C77.6344 29.3285 77.5715 29.286 77.5196 29.2318C77.392 29.2942 77.2515 29.3257 77.1095 29.324C77.034 29.3288 76.9585 29.3164 76.8886 29.2878C76.8186 29.2592 76.7561 29.215 76.7057 29.1587C76.6016 29.0296 76.5495 28.8664 76.5594 28.7009C76.5552 28.6083 76.5712 28.516 76.6063 28.4303C76.6415 28.3446 76.6949 28.2677 76.7629 28.2048C76.912 28.0744 77.1055 28.0062 77.3034 28.014H77.4083L77.3861 27.871C77.526 27.836 77.6532 27.8074 77.7676 27.7852V28.8503C77.7676 29.0219 77.8439 29.1078 77.9997 29.1078H78.2032V29.394H77.9234ZM77.2875 28.2271C77.2346 28.2272 77.1823 28.2379 77.1337 28.2587C77.0851 28.2795 77.0412 28.3098 77.0045 28.3479C76.9652 28.3861 76.9343 28.4322 76.914 28.4832C76.8937 28.5341 76.8845 28.5888 76.8869 28.6436C76.8869 28.9202 76.9854 29.0601 77.1794 29.0601C77.2729 29.0604 77.3661 29.0475 77.456 29.0219V28.2207L77.2875 28.2271Z" fill="white"/>
<path d="M78.1046 29.3943V29.1082H79.9265V28.644C79.9265 28.3991 79.7484 28.2783 79.3892 28.2783H78.2668L78.5402 28.008C78.6356 27.9158 78.7151 27.8332 78.7755 27.7664C78.9218 27.6106 79.0458 27.4707 79.1475 27.3467H79.6022L79.1506 27.7187L78.8645 28.0048H79.4559C79.7071 28.0048 79.9011 28.0557 80.0346 28.1574C80.1011 28.2076 80.1543 28.2732 80.1898 28.3485C80.2252 28.4239 80.2418 28.5067 80.2381 28.5899V29.3943L78.1046 29.3943Z" fill="white"/>
<path d="M81.7412 29.3938C81.6873 29.3963 81.6334 29.3888 81.5823 29.3715C81.5441 29.7403 81.3183 29.982 80.9018 30.0964L80.8319 29.9725C81.1276 29.8802 81.2738 29.6767 81.2738 29.3588L81.2707 28.5607L81.207 28.1347L81.5854 28.0488V28.8437C81.5854 29.0186 81.6617 29.1077 81.8175 29.1077H81.9956V29.3938L81.7412 29.3938Z" fill="white"/>
<path d="M82.6469 29.085V29.3934H81.9125V29.085H82.6469Z" fill="white"/>
<path d="M83.3206 29.085V29.3934H82.5862V29.085H83.3206Z" fill="white"/>
<path d="M85.7315 28.9327C85.7357 28.9943 85.7267 29.0562 85.705 29.114C85.6834 29.1719 85.6496 29.2244 85.6059 29.2681C85.5622 29.3118 85.5096 29.3456 85.4518 29.3673C85.3939 29.389 85.3321 29.398 85.2704 29.3937C85.1902 29.395 85.1106 29.3796 85.0367 29.3484C84.9628 29.3172 84.8962 29.2709 84.8412 29.2125C84.7976 29.2728 84.7395 29.321 84.6722 29.3527C84.6049 29.3844 84.5307 29.3985 84.4565 29.3937C84.3751 29.3935 84.2947 29.3764 84.2203 29.3436C84.1459 29.3107 84.0791 29.2629 84.0241 29.203L83.9637 29.2729C83.8701 29.3556 83.7482 29.3989 83.6234 29.3937H83.2546V29.1076H83.5471C83.6966 29.1076 83.7729 29.0249 83.7761 28.8564L83.7824 28.2428L84.094 28.1728V28.9995C84.1704 29.0717 84.2718 29.1116 84.377 29.1108C84.5264 29.1108 84.6027 29.0281 84.6027 28.8595V28.2428L84.9143 28.1728V28.9931C84.9493 29.0305 84.9917 29.0603 85.0387 29.0805C85.0858 29.1008 85.1365 29.1111 85.1878 29.1108C85.3372 29.1108 85.4135 29.0281 85.4135 28.8595V28.548L85.3562 28.1346L85.7315 28.0487V28.9327ZM84.4692 27.7309C84.4187 27.7296 84.3702 27.7105 84.3325 27.6768C84.3122 27.6598 84.2962 27.6383 84.2857 27.614C84.2752 27.5897 84.2706 27.5633 84.2721 27.5368C84.2714 27.5118 84.2761 27.4868 84.286 27.4638C84.2959 27.4407 84.3107 27.4201 84.3293 27.4033C84.3668 27.3669 84.4169 27.3464 84.4692 27.3461C84.5188 27.3474 84.5662 27.3666 84.6027 27.4001C84.6212 27.4176 84.6361 27.4385 84.6465 27.4618C84.6569 27.485 84.6625 27.5101 84.6631 27.5355C84.6637 27.561 84.6592 27.5863 84.6499 27.61C84.6407 27.6337 84.6268 27.6553 84.6091 27.6736C84.5909 27.6921 84.5691 27.7067 84.545 27.7166C84.521 27.7264 84.4952 27.7313 84.4692 27.7309ZM84.7204 27.238C84.6956 27.2385 84.671 27.234 84.648 27.2247C84.6251 27.2154 84.6043 27.2016 84.5869 27.1839C84.5684 27.1663 84.5538 27.1451 84.5439 27.1216C84.5341 27.098 84.5292 27.0727 84.5296 27.0472C84.5308 26.9967 84.55 26.9482 84.5837 26.9105C84.6011 26.8917 84.6221 26.8767 84.6455 26.8663C84.6689 26.8559 84.6941 26.8504 84.7197 26.8501C84.7453 26.8498 84.7707 26.8547 84.7943 26.8646C84.8179 26.8744 84.8393 26.889 84.8571 26.9073C84.8756 26.9256 84.8902 26.9474 84.9001 26.9714C84.9099 26.9955 84.9148 27.0212 84.9143 27.0472C84.9131 27.0968 84.8939 27.1443 84.8603 27.1808C84.842 27.1993 84.8202 27.2139 84.7962 27.2237C84.7721 27.2336 84.7464 27.2384 84.7204 27.238ZM84.9747 27.7309C84.9252 27.7296 84.8777 27.7104 84.8412 27.6768C84.821 27.6598 84.8049 27.6383 84.7944 27.614C84.784 27.5897 84.7793 27.5633 84.7808 27.5368C84.7801 27.5118 84.7849 27.4868 84.7947 27.4638C84.8046 27.4407 84.8194 27.4201 84.838 27.4033C84.8747 27.3676 84.9236 27.3471 84.9747 27.3461C85.0253 27.3473 85.0737 27.3665 85.1114 27.4001C85.131 27.4178 85.1464 27.4394 85.1569 27.4635C85.1673 27.4876 85.1724 27.5137 85.1719 27.54C85.1726 27.5651 85.1678 27.59 85.1579 27.6131C85.148 27.6362 85.1333 27.6568 85.1146 27.6736C85.0964 27.6921 85.0746 27.7067 85.0505 27.7166C85.0265 27.7264 85.0007 27.7313 84.9747 27.7309Z" fill="white"/>
<path d="M14.3726 14.7156H8.42118C8.30488 14.7115 8.19173 14.7538 8.10652 14.833C8.02132 14.9123 7.97103 15.0221 7.96667 15.1384V28.9177C7.97103 29.034 8.02132 29.1438 8.10652 29.2231C8.19173 29.3023 8.30488 29.3446 8.42118 29.3405H14.3726C14.4889 29.3446 14.602 29.3023 14.6872 29.2231C14.7724 29.1438 14.8227 29.034 14.8271 28.9177V15.1384C14.8227 15.0221 14.7724 14.9123 14.6872 14.833C14.602 14.7538 14.4889 14.7115 14.3726 14.7156ZM13.9695 27.7495C13.9668 27.8235 13.9347 27.8935 13.8805 27.9439C13.8262 27.9944 13.7542 28.0213 13.6801 28.0187H10.4286C10.3545 28.0213 10.2824 27.9944 10.2282 27.9439C10.1739 27.8935 10.1419 27.8235 10.1391 27.7495V17.6672C10.1419 17.5931 10.1739 17.5232 10.2282 17.4727C10.2824 17.4222 10.3545 17.3953 10.4286 17.3979H13.6801C13.7542 17.3953 13.8262 17.4222 13.8805 17.4727C13.9347 17.5232 13.9668 17.5931 13.9695 17.6672L13.9695 27.7495Z" fill="#EA2127"/>
<path d="M19.1121 12.6484H13.0148C12.9525 12.6484 12.8908 12.6607 12.8332 12.6846C12.7756 12.7084 12.7233 12.7434 12.6792 12.7875C12.6351 12.8315 12.6001 12.8839 12.5763 12.9414C12.5524 12.999 12.5402 13.0607 12.5402 13.1231V28.8661C12.5402 28.9285 12.5524 28.9902 12.5763 29.0478C12.6001 29.1054 12.6351 29.1577 12.6792 29.2018C12.7233 29.2458 12.7756 29.2808 12.8332 29.3047C12.8908 29.3285 12.9525 29.3408 13.0148 29.3408H19.1121C19.1744 29.3408 19.2361 29.3285 19.2937 29.3047C19.3513 29.2808 19.4036 29.2458 19.4477 29.2018C19.4918 29.1577 19.5267 29.1054 19.5506 29.0478C19.5744 28.9902 19.5867 28.9285 19.5867 28.8661V13.1231C19.5867 13.0607 19.5744 12.999 19.5506 12.9414C19.5267 12.8839 19.4918 12.8315 19.4477 12.7875C19.4036 12.7434 19.3513 12.7084 19.2937 12.6846C19.2361 12.6607 19.1744 12.6484 19.1121 12.6484ZM17.486 27.9981C17.486 28.0844 17.4517 28.1673 17.3907 28.2283C17.3296 28.2894 17.2468 28.3237 17.1604 28.3237H13.7441C13.6578 28.3237 13.575 28.2894 13.5139 28.2283C13.4528 28.1673 13.4185 28.0844 13.4185 27.9981V15.0415C13.4185 14.9551 13.4528 14.8723 13.5139 14.8112C13.575 14.7502 13.6578 14.7159 13.7441 14.7159H17.1604C17.2468 14.7159 17.3296 14.7502 17.3907 14.8112C17.4517 14.8723 17.486 14.9551 17.486 15.0415V27.9981Z" fill="#A3CC39"/>
<path d="M8.86173 5.45605H3.56058C3.48962 5.45606 3.41936 5.47003 3.3538 5.49719C3.28825 5.52434 3.22868 5.56414 3.17851 5.61432C3.12834 5.66449 3.08854 5.72406 3.06139 5.78961C3.03424 5.85517 3.02026 5.92543 3.02026 5.99639V28.8009C3.02026 28.9442 3.07719 29.0816 3.17852 29.1829C3.27985 29.2843 3.41728 29.3412 3.56058 29.3412H8.86173C9.00503 29.3412 9.14246 29.2843 9.24379 29.1829C9.34512 29.0816 9.40204 28.9442 9.40204 28.8009V5.99639C9.40204 5.92543 9.38807 5.85517 9.36092 5.78961C9.33377 5.72406 9.29397 5.66449 9.24379 5.61432C9.19362 5.56414 9.13406 5.52434 9.0685 5.49719C9.00295 5.47003 8.93269 5.45606 8.86173 5.45605ZM8.81705 26.8117C8.81705 26.9405 8.79169 27.068 8.74241 27.187C8.69314 27.3059 8.62091 27.414 8.52986 27.5051C8.4388 27.5961 8.33071 27.6684 8.21174 27.7176C8.09277 27.7669 7.96526 27.7923 7.83649 27.7923H5.59627C5.4675 27.7923 5.33999 27.7669 5.22102 27.7176C5.10206 27.6684 4.99396 27.5961 4.90291 27.5051C4.81185 27.414 4.73963 27.3059 4.69035 27.187C4.64107 27.068 4.61571 26.9405 4.61571 26.8117V7.60662C4.61571 7.34656 4.71902 7.09715 4.90291 6.91326C5.0868 6.72937 5.33621 6.62606 5.59627 6.62605H7.83649C8.09655 6.62605 8.34596 6.72936 8.52985 6.91325C8.71374 7.09715 8.81705 7.34655 8.81705 7.60662V26.8117Z" fill="#28AAE1"/>
<g opacity="0.37">
<path d="M6.17937 -0.00244141H-0.00158691V6.17852H6.17937V-0.00244141Z" fill="#28AAE1"/>
<path d="M11.1891 8.5415H7.2384V12.4922H11.1891V8.5415Z" fill="#EA2127"/>
<path d="M6.17893 10.3145H2.22827V14.2651H6.17893V10.3145Z" fill="#A3CC39"/>
<path d="M10.5131 13.9326H7.93542V16.5102H10.5131V13.9326Z" fill="#A3CC39"/>
<path d="M6.179 7.33594H4.52917V8.98577H6.179V7.33594Z" fill="#A3CC39"/>
<path d="M16.3353 12.4922H11.6334V17.1941H16.3353V12.4922Z" fill="#28AAE1"/>
<path d="M19.6682 9.65869H17.3357V11.9912H19.6682V9.65869Z" fill="#28AAE1"/>
<path d="M21.8807 10.9893H20.8787V11.9913H21.8807V10.9893Z" fill="#A3CC39"/>
<path d="M11.6901 3.58984H10.6881V4.59185H11.6901V3.58984Z" fill="#A3CC39"/>
<path d="M16.6559 8.16113H20.2286V4.58839H16.6559V8.16113Z" fill="#28AAE1"/>
<path d="M14.1229 10.3145H15.8953V8.54206H14.1229V10.3145Z" fill="#28AAE1"/>
<path d="M7.93317 4.09082H8.93518V3.08881H7.93317V4.09082Z" fill="#28AAE1"/>
<path d="M12.7513 7.41064H14.5237V5.63825H12.7513V7.41064Z" fill="#28AAE1"/>
<path d="M12.4431 9.30273H13.2045V8.54135H12.4431V9.30273Z" fill="#28AAE1"/>
<path d="M9.48996 6.01807H10.2513V5.25669H9.48996V6.01807Z" fill="#28AAE1"/>
<path d="M9.08545 17.1567H4.20007V22.0421H9.08545V17.1567Z" fill="#A3CC39"/>
</g>
</g>
<defs>
<clipPath id="clip0_5481_5040">
<rect width="85.901" height="30.159" fill="white"/>
</clipPath>
</defs>
</svg>
