<svg xmlns="http://www.w3.org/2000/svg" xmlns:xlink="http://www.w3.org/1999/xlink" width="2000" zoomAndPan="magnify" viewBox="0 0 1500 1499.999933" height="2000" preserveAspectRatio="xMidYMid meet" version="1.0"><defs><g/><clipPath id="be69f84f4c"><path d="M 724 531 L 842.660156 531 L 842.660156 731 L 724 731 Z M 724 531 " clip-rule="nonzero"/></clipPath><clipPath id="1382e316b9"><path d="M 408.410156 712 L 544 712 L 544 912.523438 L 408.410156 912.523438 Z M 408.410156 712 " clip-rule="nonzero"/></clipPath><clipPath id="559e35c8c8"><rect x="0" width="460" y="0" height="238"/></clipPath><clipPath id="bf447a0c37"><path d="M 733.277344 878 L 795 878 L 795 952 L 733.277344 952 Z M 733.277344 878 " clip-rule="nonzero"/></clipPath><clipPath id="d54873a87d"><path d="M 733.277344 804 L 795 804 L 795 899 L 733.277344 899 Z M 733.277344 804 " clip-rule="nonzero"/></clipPath><clipPath id="642d4dbbfd"><path d="M 530.960938 850.464844 L 560.398438 850.464844 L 560.398438 879.902344 L 530.960938 879.902344 Z M 530.960938 850.464844 " clip-rule="nonzero"/></clipPath><clipPath id="936d658221"><path d="M 0.960938 0.464844 L 30.398438 0.464844 L 30.398438 29.902344 L 0.960938 29.902344 Z M 0.960938 0.464844 " clip-rule="nonzero"/></clipPath><clipPath id="c8cadd63f4"><rect x="0" width="31" y="0" height="30"/></clipPath><clipPath id="990eb791f8"><path d="M 560.398438 692.339844 L 589.832031 692.339844 L 589.832031 721.777344 L 560.398438 721.777344 Z M 560.398438 692.339844 " clip-rule="nonzero"/></clipPath><clipPath id="a5cec15a61"><path d="M 0.398438 0.339844 L 29.832031 0.339844 L 29.832031 29.777344 L 0.398438 29.777344 Z M 0.398438 0.339844 " clip-rule="nonzero"/></clipPath><clipPath id="80ef9e0c28"><rect x="0" width="30" y="0" height="30"/></clipPath><clipPath id="dc0b78fdf8"><path d="M 743.496094 748.8125 L 772.929688 748.8125 L 772.929688 778.246094 L 743.496094 778.246094 Z M 743.496094 748.8125 " clip-rule="nonzero"/></clipPath><clipPath id="cd98451b4f"><path d="M 0.496094 0.8125 L 29.929688 0.8125 L 29.929688 30.246094 L 0.496094 30.246094 Z M 0.496094 0.8125 " clip-rule="nonzero"/></clipPath><clipPath id="aa21275e44"><rect x="0" width="30" y="0" height="31"/></clipPath><clipPath id="75ab3b17cb"><path d="M 714.058594 586.824219 L 743.496094 586.824219 L 743.496094 616.257812 L 714.058594 616.257812 Z M 714.058594 586.824219 " clip-rule="nonzero"/></clipPath><clipPath id="c672f48b36"><path d="M 0.0585938 0.824219 L 29.496094 0.824219 L 29.496094 30.257812 L 0.0585938 30.257812 Z M 0.0585938 0.824219 " clip-rule="nonzero"/></clipPath><clipPath id="8ac7bd9d02"><rect x="0" width="30" y="0" height="31"/></clipPath></defs><g clip-path="url(#be69f84f4c)"><path fill="#008cce" d="M 730.386719 702.371094 L 796.566406 566.082031 L 780.84375 559.015625 L 827.253906 531.339844 L 842.507812 582.546875 L 827.035156 576.449219 L 750.988281 730.933594 L 724.5 719.527344 Z M 730.386719 702.371094 " fill-opacity="1" fill-rule="nonzero"/></g><path fill="#008cce" d="M 673.988281 651.066406 L 714.179688 731.015625 L 750.960938 731.015625 L 697.019531 622.15625 Z M 673.988281 651.066406 " fill-opacity="1" fill-rule="nonzero"/><path fill="#008cce" d="M 660.164062 622.15625 L 561.542969 821.4375 L 597.75 821.636719 L 697.023438 622.15625 Z M 660.164062 622.15625 " fill-opacity="1" fill-rule="nonzero"/><path fill="#008cce" d="M 520.832031 741.601562 L 561.027344 821.550781 L 597.808594 821.550781 L 543.867188 712.695312 Z M 520.832031 741.601562 " fill-opacity="1" fill-rule="nonzero"/><g clip-path="url(#1382e316b9)"><path fill="#008cce" d="M 507.027344 712.695312 L 408.410156 911.976562 L 444.609375 912.175781 L 543.886719 712.695312 Z M 507.027344 712.695312 " fill-opacity="1" fill-rule="nonzero"/></g><g transform="matrix(1, 0, 0, 1, 625, 731)"><g clip-path="url(#559e35c8c8)"><g fill="#391a83" fill-opacity="1"><g transform="translate(0.457616, 189.082733)"><g><path d="M 78.921875 -29.9375 L 11.109375 -29.9375 L 6.140625 -51.5625 L 82.296875 -139.796875 L 108.078125 -139.796875 L 108.078125 -54.734375 L 126.71875 -54.734375 L 126.71875 -29.9375 L 108.078125 -29.9375 L 108.078125 0 L 78.921875 0 Z M 78.921875 -54.734375 L 78.921875 -97.953125 L 42.03125 -54.734375 Z M 78.921875 -54.734375 "/></g></g></g><g fill="#391a83" fill-opacity="1"><g transform="translate(129.735423, 189.082733)"><g/></g></g><g fill="#391a83" fill-opacity="1"><g transform="translate(181.881935, 189.082733)"><g><path d="M 43.625 1.984375 C 38.601562 1.984375 33.875 1.289062 29.4375 -0.09375 C 25.007812 -1.488281 21.144531 -3.570312 17.84375 -6.34375 C 14.539062 -9.125 11.929688 -12.53125 10.015625 -16.5625 C 8.097656 -20.59375 7.140625 -25.25 7.140625 -30.53125 L 7.140625 -30.9375 C 7.140625 -36.75 8.195312 -41.769531 10.3125 -46 C 12.425781 -50.226562 15.363281 -53.726562 19.125 -56.5 C 22.894531 -59.28125 27.390625 -61.363281 32.609375 -62.75 C 37.835938 -64.144531 43.625 -64.84375 49.96875 -64.84375 C 55.382812 -64.84375 60.109375 -64.445312 64.140625 -63.65625 C 68.179688 -62.863281 72.117188 -61.804688 75.953125 -60.484375 L 75.953125 -62.265625 C 75.953125 -68.609375 74.035156 -73.429688 70.203125 -76.734375 C 66.367188 -80.046875 60.679688 -81.703125 53.140625 -81.703125 C 47.328125 -81.703125 42.203125 -81.203125 37.765625 -80.203125 C 33.335938 -79.210938 28.679688 -77.796875 23.796875 -75.953125 L 16.265625 -98.953125 C 22.078125 -101.460938 28.15625 -103.507812 34.5 -105.09375 C 40.84375 -106.6875 48.507812 -107.484375 57.5 -107.484375 C 65.832031 -107.484375 72.9375 -106.457031 78.8125 -104.40625 C 84.695312 -102.351562 89.554688 -99.410156 93.390625 -95.578125 C 97.359375 -91.609375 100.269531 -86.75 102.125 -81 C 103.976562 -75.25 104.90625 -68.804688 104.90625 -61.671875 L 104.90625 0 L 75.75 0 L 75.75 -11.5 C 72.050781 -7.40625 67.625 -4.132812 62.46875 -1.6875 C 57.3125 0.757812 51.03125 1.984375 43.625 1.984375 Z M 52.75 -18.84375 C 59.882812 -18.84375 65.597656 -20.5625 69.890625 -24 C 74.191406 -27.4375 76.34375 -31.929688 76.34375 -37.484375 L 76.34375 -42.828125 C 73.695312 -44.015625 70.753906 -44.972656 67.515625 -45.703125 C 64.273438 -46.429688 60.804688 -46.796875 57.109375 -46.796875 C 50.628906 -46.796875 45.535156 -45.539062 41.828125 -43.03125 C 38.128906 -40.519531 36.28125 -36.882812 36.28125 -32.125 L 36.28125 -31.734375 C 36.28125 -27.628906 37.800781 -24.453125 40.84375 -22.203125 C 43.882812 -19.960938 47.851562 -18.84375 52.75 -18.84375 Z M 52.75 -18.84375 "/></g></g></g><g fill="#391a83" fill-opacity="1"><g transform="translate(291.926482, 189.082733)"><g><path d="M 50.765625 1.984375 C 43.234375 1.984375 35.53125 0.695312 27.65625 -1.875 C 19.789062 -4.457031 12.289062 -8.523438 5.15625 -14.078125 L 18.046875 -33.90625 C 23.859375 -29.675781 29.640625 -26.503906 35.390625 -24.390625 C 41.140625 -22.273438 46.53125 -21.21875 51.5625 -21.21875 C 55.914062 -21.21875 59.117188 -21.941406 61.171875 -23.390625 C 63.222656 -24.847656 64.25 -26.769531 64.25 -29.15625 L 64.25 -29.546875 C 64.25 -31.128906 63.648438 -32.515625 62.453125 -33.703125 C 61.265625 -34.898438 59.644531 -35.925781 57.59375 -36.78125 C 55.550781 -37.644531 53.207031 -38.472656 50.5625 -39.265625 C 47.914062 -40.054688 45.140625 -40.914062 42.234375 -41.84375 C 38.535156 -42.894531 34.800781 -44.179688 31.03125 -45.703125 C 27.257812 -47.222656 23.851562 -49.207031 20.8125 -51.65625 C 17.78125 -54.101562 15.304688 -57.109375 13.390625 -60.671875 C 11.472656 -64.242188 10.515625 -68.609375 10.515625 -73.765625 L 10.515625 -74.15625 C 10.515625 -79.582031 11.535156 -84.375 13.578125 -88.53125 C 15.628906 -92.695312 18.40625 -96.234375 21.90625 -99.140625 C 25.414062 -102.054688 29.515625 -104.238281 34.203125 -105.6875 C 38.898438 -107.144531 43.957031 -107.875 49.375 -107.875 C 56.113281 -107.875 62.953125 -106.78125 69.890625 -104.59375 C 76.835938 -102.414062 83.21875 -99.410156 89.03125 -95.578125 L 77.53125 -74.765625 C 72.25 -77.796875 67.09375 -80.203125 62.0625 -81.984375 C 57.039062 -83.773438 52.613281 -84.671875 48.78125 -84.671875 C 45.082031 -84.671875 42.304688 -83.976562 40.453125 -82.59375 C 38.597656 -81.207031 37.671875 -79.453125 37.671875 -77.328125 L 37.671875 -76.9375 C 37.671875 -75.488281 38.265625 -74.203125 39.453125 -73.078125 C 40.648438 -71.953125 42.238281 -70.890625 44.21875 -69.890625 C 46.195312 -68.898438 48.472656 -67.941406 51.046875 -67.015625 C 53.628906 -66.097656 56.378906 -65.175781 59.296875 -64.25 C 62.992188 -63.0625 66.757812 -61.640625 70.59375 -59.984375 C 74.425781 -58.328125 77.863281 -56.3125 80.90625 -53.9375 C 83.945312 -51.5625 86.457031 -48.65625 88.4375 -45.21875 C 90.425781 -41.78125 91.421875 -37.613281 91.421875 -32.71875 L 91.421875 -32.328125 C 91.421875 -26.378906 90.394531 -21.253906 88.34375 -16.953125 C 86.289062 -12.660156 83.410156 -9.125 79.703125 -6.34375 C 76.003906 -3.570312 71.675781 -1.488281 66.71875 -0.09375 C 61.769531 1.289062 56.453125 1.984375 50.765625 1.984375 Z M 50.765625 1.984375 "/></g></g></g><g fill="#391a83" fill-opacity="1"><g transform="translate(384.125753, 189.082733)"><g><path d="M 49.375 1.78125 C 44.75 1.78125 40.550781 1.285156 36.78125 0.296875 C 33.007812 -0.691406 29.769531 -2.441406 27.0625 -4.953125 C 24.351562 -7.460938 22.238281 -10.734375 20.71875 -14.765625 C 19.195312 -18.804688 18.4375 -23.929688 18.4375 -30.140625 L 18.4375 -80.515625 L 5.75 -80.515625 L 5.75 -106.28125 L 18.4375 -106.28125 L 18.4375 -133.453125 L 48.578125 -133.453125 L 48.578125 -106.28125 L 73.5625 -106.28125 L 73.5625 -80.515625 L 48.578125 -80.515625 L 48.578125 -35.09375 C 48.578125 -28.21875 51.816406 -24.78125 58.296875 -24.78125 C 63.585938 -24.78125 68.546875 -26.039062 73.171875 -28.5625 L 73.171875 -4.359375 C 69.992188 -2.515625 66.488281 -1.03125 62.65625 0.09375 C 58.820312 1.21875 54.394531 1.78125 49.375 1.78125 Z M 49.375 1.78125 "/></g></g></g></g></g><g clip-path="url(#bf447a0c37)"><path fill="#279b48" d="M 786.558594 951.824219 L 733.355469 898.316406 L 753.46875 878.089844 L 786.558594 911.371094 C 797.65625 922.53125 797.65625 940.664062 786.558594 951.824219 Z M 786.558594 951.824219 " fill-opacity="1" fill-rule="nonzero"/></g><g clip-path="url(#d54873a87d)"><path fill="#f7941d" d="M 786.558594 844.808594 L 733.355469 898.316406 L 733.355469 857.863281 L 786.558594 804.351562 C 797.695312 815.515625 797.695312 833.644531 786.558594 844.808594 Z M 786.558594 844.808594 " fill-opacity="1" fill-rule="nonzero"/></g><g clip-path="url(#642d4dbbfd)"><g transform="matrix(1, 0, 0, 1, 530, 850)"><g clip-path="url(#c8cadd63f4)"><g clip-path="url(#936d658221)"><path fill="#eca317" d="M 0.960938 0.464844 L 30.398438 0.464844 L 30.398438 29.902344 L 0.960938 29.902344 Z M 0.960938 0.464844 " fill-opacity="1" fill-rule="nonzero"/></g></g></g></g><g clip-path="url(#990eb791f8)"><g transform="matrix(1, 0, 0, 1, 560, 692)"><g clip-path="url(#80ef9e0c28)"><g clip-path="url(#a5cec15a61)"><path fill="#74ba6b" d="M 0.398438 0.339844 L 29.832031 0.339844 L 29.832031 29.777344 L 0.398438 29.777344 Z M 0.398438 0.339844 " fill-opacity="1" fill-rule="nonzero"/></g></g></g></g><g clip-path="url(#dc0b78fdf8)"><g transform="matrix(1, 0, 0, 1, 743, 748)"><g clip-path="url(#aa21275e44)"><g clip-path="url(#cd98451b4f)"><path fill="#29d5d5" d="M 0.496094 0.8125 L 29.929688 0.8125 L 29.929688 30.246094 L 0.496094 30.246094 Z M 0.496094 0.8125 " fill-opacity="1" fill-rule="nonzero"/></g></g></g></g><g clip-path="url(#75ab3b17cb)"><g transform="matrix(1, 0, 0, 1, 714, 586)"><g clip-path="url(#8ac7bd9d02)"><g clip-path="url(#c672f48b36)"><path fill="#ce55ba" d="M 0.0585938 0.824219 L 29.496094 0.824219 L 29.496094 30.257812 L 0.0585938 30.257812 Z M 0.0585938 0.824219 " fill-opacity="1" fill-rule="nonzero"/></g></g></g></g></svg>