<svg xmlns="http://www.w3.org/2000/svg" xmlns:xlink="http://www.w3.org/1999/xlink" width="2000" zoomAndPan="magnify" viewBox="0 0 1500 1499.999933" height="2000" preserveAspectRatio="xMidYMid meet" version="1.0"><defs><g/><clipPath id="25eab8478a"><path d="M 415.863281 0.632812 L 1085.761719 0.632812 L 1085.761719 671.367188 L 415.863281 671.367188 Z M 415.863281 0.632812 " clip-rule="nonzero"/></clipPath><clipPath id="e91da42fd2"><path d="M 613.085938 652.453125 L 918.0625 652.453125 L 918.0625 671.367188 L 613.085938 671.367188 Z M 613.085938 652.453125 " clip-rule="nonzero"/></clipPath><clipPath id="389c8b4ee8"><path d="M 0.0859375 0.453125 L 305.0625 0.453125 L 305.0625 19.367188 L 0.0859375 19.367188 Z M 0.0859375 0.453125 " clip-rule="nonzero"/></clipPath><clipPath id="3e5f5cef0a"><rect x="0" width="306" y="0" height="20"/></clipPath><clipPath id="f965e5a4b8"><path d="M 415.867188 335.992188 L 434.78125 335.992188 L 434.78125 396.820312 L 415.867188 396.820312 Z M 415.867188 335.992188 " clip-rule="nonzero"/></clipPath><clipPath id="e09ef828c7"><path d="M 0.867188 1 L 19.78125 1 L 19.78125 61.820312 L 0.867188 61.820312 Z M 0.867188 1 " clip-rule="nonzero"/></clipPath><clipPath id="9bf49ea619"><rect x="0" width="20" y="0" height="62"/></clipPath><clipPath id="df0f841a15"><path d="M 0.121094 389 L 910 389 L 910 631 L 0.121094 631 Z M 0.121094 389 " clip-rule="nonzero"/></clipPath><clipPath id="d6255c2ce8"><rect x="0" width="910" y="0" height="242"/></clipPath><clipPath id="37c40dd634"><path d="M 729 126.472656 L 814 126.472656 L 814 223 L 729 223 Z M 729 126.472656 " clip-rule="nonzero"/></clipPath><clipPath id="a6832934f4"><path d="M 802 262 L 886.925781 262 L 886.925781 306 L 802 306 Z M 802 262 " clip-rule="nonzero"/></clipPath><clipPath id="1a4ed9f08a"><path d="M 705 312 L 751 312 L 751 396.441406 L 705 396.441406 Z M 705 312 " clip-rule="nonzero"/></clipPath><clipPath id="79a1b6db83"><rect x="0" width="1086" y="0" height="672"/></clipPath></defs><g transform="matrix(1, 0, 0, 1, 207, 414)"><g clip-path="url(#79a1b6db83)"><g clip-path="url(#25eab8478a)"><path fill="#0094d9" d="M 1085.636719 168.054688 L 1085.636719 671.367188 L 913.699219 671.367188 L 913.699219 653.257812 L 1067.527344 653.257812 L 1067.527344 179.222656 L 750.828125 20.871094 L 434.09375 179.222656 L 434.09375 336.523438 L 415.984375 336.523438 L 415.984375 168.054688 L 750.828125 0.632812 Z M 1085.636719 168.054688 " fill-opacity="1" fill-rule="nonzero"/></g><g clip-path="url(#e91da42fd2)"><g transform="matrix(1, 0, 0, 1, 613, 652)"><g clip-path="url(#3e5f5cef0a)"><g clip-path="url(#389c8b4ee8)"><path fill="#0094d9" d="M 0.0859375 0.453125 L 305.070312 0.453125 L 305.070312 19.367188 L 0.0859375 19.367188 Z M 0.0859375 0.453125 " fill-opacity="1" fill-rule="nonzero"/></g></g></g></g><g clip-path="url(#f965e5a4b8)"><g transform="matrix(1, 0, 0, 1, 415, 335)"><g clip-path="url(#9bf49ea619)"><g clip-path="url(#e09ef828c7)"><path fill="#0094d9" d="M 0.867188 61.820312 L 0.867188 1.015625 L 19.78125 1.015625 L 19.78125 61.820312 Z M 0.867188 61.820312 " fill-opacity="1" fill-rule="nonzero"/></g></g></g></g><g clip-path="url(#df0f841a15)"><g transform="matrix(1, 0, 0, 1, 0, 389)"><g clip-path="url(#d6255c2ce8)"><g fill="#ffffff" fill-opacity="0.4"><g transform="translate(0.239547, 198.103805)"><g><path d="M 47.9375 -119.28125 L 47.9375 -82.515625 L 97.5625 -82.515625 L 97.5625 -56.5 L 47.9375 -56.5 L 47.9375 0 L 14.046875 0 L 14.046875 -145.203125 L 107.53125 -145.203125 L 107.53125 -119.28125 Z M 47.9375 -119.28125 "/></g></g></g><g fill="#ffffff" fill-opacity="0.4"><g transform="translate(111.837484, 198.103805)"><g><path d="M 156.5625 -72.65625 C 156.5625 -62.15625 154.75 -52.382812 151.125 -43.34375 C 147.507812 -34.3125 142.410156 -26.457031 135.828125 -19.78125 C 129.253906 -13.101562 121.332031 -7.867188 112.0625 -4.078125 C 102.789062 -0.296875 92.507812 1.59375 81.21875 1.59375 C 69.925781 1.59375 59.628906 -0.296875 50.328125 -4.078125 C 41.023438 -7.867188 33.066406 -13.101562 26.453125 -19.78125 C 19.847656 -26.457031 14.734375 -34.3125 11.109375 -43.34375 C 7.492188 -52.382812 5.6875 -62.15625 5.6875 -72.65625 C 5.6875 -83.144531 7.492188 -92.90625 11.109375 -101.9375 C 14.734375 -110.976562 19.847656 -118.820312 26.453125 -125.46875 C 33.066406 -132.113281 41.023438 -137.328125 50.328125 -141.109375 C 59.628906 -144.898438 69.925781 -146.796875 81.21875 -146.796875 C 92.507812 -146.796875 102.789062 -144.882812 112.0625 -141.0625 C 121.332031 -137.238281 129.253906 -132.003906 135.828125 -125.359375 C 142.410156 -118.722656 147.507812 -110.882812 151.125 -101.84375 C 154.75 -92.8125 156.5625 -83.082031 156.5625 -72.65625 Z M 122.078125 -72.65625 C 122.078125 -79.820312 121.144531 -86.28125 119.28125 -92.03125 C 117.425781 -97.78125 114.753906 -102.644531 111.265625 -106.625 C 107.773438 -110.613281 103.503906 -113.671875 98.453125 -115.796875 C 93.410156 -117.921875 87.664062 -118.984375 81.21875 -118.984375 C 74.707031 -118.984375 68.910156 -117.921875 63.828125 -115.796875 C 58.742188 -113.671875 54.457031 -110.613281 50.96875 -106.625 C 47.488281 -102.644531 44.816406 -97.78125 42.953125 -92.03125 C 41.085938 -86.28125 40.15625 -79.820312 40.15625 -72.65625 C 40.15625 -65.40625 41.085938 -58.90625 42.953125 -53.15625 C 44.816406 -47.414062 47.488281 -42.550781 50.96875 -38.5625 C 54.457031 -34.582031 58.742188 -31.546875 63.828125 -29.453125 C 68.910156 -27.359375 74.707031 -26.3125 81.21875 -26.3125 C 87.664062 -26.3125 93.410156 -27.359375 98.453125 -29.453125 C 103.503906 -31.546875 107.773438 -34.582031 111.265625 -38.5625 C 114.753906 -42.550781 117.425781 -47.414062 119.28125 -53.15625 C 121.144531 -58.90625 122.078125 -65.40625 122.078125 -72.65625 Z M 122.078125 -72.65625 "/></g></g></g><g fill="#ffffff" fill-opacity="0.4"><g transform="translate(274.152954, 198.103805)"><g><path d="M 61.28125 -76.9375 C 65.875 -76.9375 69.78125 -77.515625 73 -78.671875 C 76.21875 -79.835938 78.859375 -81.445312 80.921875 -83.5 C 82.984375 -85.5625 84.476562 -87.972656 85.40625 -90.734375 C 86.332031 -93.492188 86.796875 -96.46875 86.796875 -99.65625 C 86.796875 -106.03125 84.71875 -111.007812 80.5625 -114.59375 C 76.414062 -118.1875 69.988281 -119.984375 61.28125 -119.984375 L 47.734375 -119.984375 L 47.734375 -76.9375 Z M 132.84375 0 L 102.34375 0 C 96.695312 0 92.644531 -2.125 90.1875 -6.375 L 66.078125 -48.53125 C 64.941406 -50.320312 63.675781 -51.632812 62.28125 -52.46875 C 60.882812 -53.300781 58.894531 -53.71875 56.3125 -53.71875 L 47.734375 -53.71875 L 47.734375 0 L 14.046875 0 L 14.046875 -145.203125 L 61.28125 -145.203125 C 71.78125 -145.203125 80.734375 -144.117188 88.140625 -141.953125 C 95.546875 -139.796875 101.59375 -136.789062 106.28125 -132.9375 C 110.96875 -129.082031 114.375 -124.53125 116.5 -119.28125 C 118.625 -114.039062 119.6875 -108.328125 119.6875 -102.140625 C 119.6875 -97.429688 119.054688 -92.984375 117.796875 -88.796875 C 116.535156 -84.609375 114.675781 -80.738281 112.21875 -77.1875 C 109.757812 -73.632812 106.71875 -70.460938 103.09375 -67.671875 C 99.46875 -64.878906 95.300781 -62.585938 90.59375 -60.796875 C 92.78125 -59.660156 94.835938 -58.242188 96.765625 -56.546875 C 98.691406 -54.859375 100.421875 -52.851562 101.953125 -50.53125 Z M 132.84375 0 "/></g></g></g><g fill="#ffffff" fill-opacity="0.4"><g transform="translate(402.590108, 198.103805)"><g><path d="M 111.921875 -37.578125 C 112.710938 -37.578125 113.503906 -37.425781 114.296875 -37.125 C 115.097656 -36.820312 115.863281 -36.304688 116.59375 -35.578125 L 129.953125 -21.53125 C 124.109375 -13.882812 116.78125 -8.117188 107.96875 -4.234375 C 99.164062 -0.347656 88.753906 1.59375 76.734375 1.59375 C 65.703125 1.59375 55.816406 -0.28125 47.078125 -4.03125 C 38.347656 -7.789062 30.941406 -12.972656 24.859375 -19.578125 C 18.785156 -26.191406 14.117188 -34.03125 10.859375 -43.09375 C 7.609375 -52.164062 5.984375 -62.019531 5.984375 -72.65625 C 5.984375 -83.476562 7.742188 -93.421875 11.265625 -102.484375 C 14.785156 -111.554688 19.734375 -119.378906 26.109375 -125.953125 C 32.484375 -132.535156 40.125 -137.65625 49.03125 -141.3125 C 57.9375 -144.96875 67.734375 -146.796875 78.421875 -146.796875 C 83.867188 -146.796875 89 -146.3125 93.8125 -145.34375 C 98.632812 -144.382812 103.140625 -143.054688 107.328125 -141.359375 C 111.515625 -139.671875 115.367188 -137.628906 118.890625 -135.234375 C 122.410156 -132.835938 125.53125 -130.242188 128.25 -127.453125 L 116.890625 -112.21875 C 116.160156 -111.28125 115.296875 -110.429688 114.296875 -109.671875 C 113.304688 -108.910156 111.914062 -108.53125 110.125 -108.53125 C 108.925781 -108.53125 107.796875 -108.796875 106.734375 -109.328125 C 105.671875 -109.859375 104.539062 -110.503906 103.34375 -111.265625 C 102.144531 -112.023438 100.832031 -112.851562 99.40625 -113.75 C 97.976562 -114.65625 96.285156 -115.488281 94.328125 -116.25 C 92.367188 -117.007812 90.078125 -117.65625 87.453125 -118.1875 C 84.828125 -118.71875 81.753906 -118.984375 78.234375 -118.984375 C 72.648438 -118.984375 67.546875 -117.953125 62.921875 -115.890625 C 58.304688 -113.835938 54.320312 -110.832031 50.96875 -106.875 C 47.613281 -102.925781 45.019531 -98.078125 43.1875 -92.328125 C 41.363281 -86.585938 40.453125 -80.03125 40.453125 -72.65625 C 40.453125 -65.207031 41.46875 -58.59375 43.5 -52.8125 C 45.53125 -47.03125 48.285156 -42.160156 51.765625 -38.203125 C 55.253906 -34.253906 59.320312 -31.25 63.96875 -29.1875 C 68.625 -27.132812 73.609375 -26.109375 78.921875 -26.109375 C 81.984375 -26.109375 84.773438 -26.253906 87.296875 -26.546875 C 89.816406 -26.847656 92.171875 -27.347656 94.359375 -28.046875 C 96.554688 -28.742188 98.617188 -29.675781 100.546875 -30.84375 C 102.472656 -32.007812 104.4375 -33.488281 106.4375 -35.28125 C 107.226562 -35.945312 108.085938 -36.492188 109.015625 -36.921875 C 109.953125 -37.359375 110.921875 -37.578125 111.921875 -37.578125 Z M 111.921875 -37.578125 "/></g></g></g><g fill="#ffffff" fill-opacity="0.4"><g transform="translate(533.219669, 198.103805)"><g><path d="M 90.78125 -55.515625 L 77.328125 -95.265625 C 76.335938 -97.796875 75.273438 -100.769531 74.140625 -104.1875 C 73.015625 -107.613281 71.882812 -111.316406 70.75 -115.296875 C 69.757812 -111.242188 68.695312 -107.488281 67.5625 -104.03125 C 66.4375 -100.582031 65.375 -97.597656 64.375 -95.078125 L 51.03125 -55.515625 Z M 144.296875 0 L 118.1875 0 C 115.269531 0 112.910156 -0.675781 111.109375 -2.03125 C 109.316406 -3.394531 107.957031 -5.144531 107.03125 -7.28125 L 98.453125 -32.59375 L 43.25 -32.59375 L 34.6875 -7.28125 C 33.945312 -5.414062 32.628906 -3.734375 30.734375 -2.234375 C 28.847656 -0.742188 26.507812 0 23.71875 0 L -2.59375 0 L 53.609375 -145.203125 L 88.09375 -145.203125 Z M 144.296875 0 "/></g></g></g><g fill="#ffffff" fill-opacity="0.4"><g transform="translate(674.909421, 198.103805)"><g><path d="M 94.28125 -115.703125 C 93.28125 -114.109375 92.226562 -112.910156 91.125 -112.109375 C 90.03125 -111.316406 88.625 -110.921875 86.90625 -110.921875 C 85.375 -110.921875 83.726562 -111.398438 81.96875 -112.359375 C 80.207031 -113.328125 78.210938 -114.40625 75.984375 -115.59375 C 73.765625 -116.789062 71.222656 -117.867188 68.359375 -118.828125 C 65.503906 -119.796875 62.25 -120.28125 58.59375 -120.28125 C 52.28125 -120.28125 47.578125 -118.9375 44.484375 -116.25 C 41.398438 -113.5625 39.859375 -109.925781 39.859375 -105.34375 C 39.859375 -102.414062 40.785156 -99.988281 42.640625 -98.0625 C 44.503906 -96.132812 46.945312 -94.472656 49.96875 -93.078125 C 53 -91.679688 56.457031 -90.398438 60.34375 -89.234375 C 64.226562 -88.078125 68.195312 -86.785156 72.25 -85.359375 C 76.300781 -83.929688 80.269531 -82.253906 84.15625 -80.328125 C 88.039062 -78.398438 91.492188 -75.941406 94.515625 -72.953125 C 97.546875 -69.960938 99.988281 -66.320312 101.84375 -62.03125 C 103.707031 -57.75 104.640625 -52.585938 104.640625 -46.546875 C 104.640625 -39.828125 103.472656 -33.546875 101.140625 -27.703125 C 98.816406 -21.859375 95.445312 -16.757812 91.03125 -12.40625 C 86.613281 -8.050781 81.164062 -4.628906 74.6875 -2.140625 C 68.207031 0.347656 60.851562 1.59375 52.625 1.59375 C 48.101562 1.59375 43.5 1.125 38.8125 0.1875 C 34.132812 -0.738281 29.601562 -2.046875 25.21875 -3.734375 C 20.832031 -5.429688 16.710938 -7.441406 12.859375 -9.765625 C 9.003906 -12.085938 5.648438 -14.679688 2.796875 -17.546875 L 12.75 -33.28125 C 13.550781 -34.414062 14.597656 -35.363281 15.890625 -36.125 C 17.191406 -36.882812 18.601562 -37.265625 20.125 -37.265625 C 22.125 -37.265625 24.132812 -36.632812 26.15625 -35.375 C 28.1875 -34.113281 30.476562 -32.71875 33.03125 -31.1875 C 35.59375 -29.664062 38.535156 -28.269531 41.859375 -27 C 45.179688 -25.738281 49.097656 -25.109375 53.609375 -25.109375 C 59.722656 -25.109375 64.472656 -26.453125 67.859375 -29.140625 C 71.253906 -31.835938 72.953125 -36.109375 72.953125 -41.953125 C 72.953125 -45.335938 72.019531 -48.09375 70.15625 -50.21875 C 68.300781 -52.351562 65.859375 -54.113281 62.828125 -55.5 C 59.804688 -56.894531 56.367188 -58.125 52.515625 -59.1875 C 48.660156 -60.257812 44.707031 -61.441406 40.65625 -62.734375 C 36.601562 -64.023438 32.648438 -65.617188 28.796875 -67.515625 C 24.941406 -69.410156 21.503906 -71.898438 18.484375 -74.984375 C 15.460938 -78.078125 13.019531 -81.929688 11.15625 -86.546875 C 9.300781 -91.171875 8.375 -96.867188 8.375 -103.640625 C 8.375 -109.085938 9.46875 -114.398438 11.65625 -119.578125 C 13.851562 -124.765625 17.078125 -129.382812 21.328125 -133.4375 C 25.578125 -137.488281 30.789062 -140.726562 36.96875 -143.15625 C 43.144531 -145.582031 50.222656 -146.796875 58.203125 -146.796875 C 62.648438 -146.796875 66.984375 -146.445312 71.203125 -145.75 C 75.421875 -145.050781 79.421875 -144.019531 83.203125 -142.65625 C 86.992188 -141.289062 90.535156 -139.660156 93.828125 -137.765625 C 97.117188 -135.878906 100.054688 -133.738281 102.640625 -131.34375 Z M 94.28125 -115.703125 "/></g></g></g><g fill="#ffffff" fill-opacity="0.4"><g transform="translate(785.311853, 198.103805)"><g><path d="M 118.390625 -118.484375 L 77.53125 -118.484375 L 77.53125 0 L 43.84375 0 L 43.84375 -118.484375 L 2.984375 -118.484375 L 2.984375 -145.203125 L 118.390625 -145.203125 Z M 118.390625 -118.484375 "/></g></g></g><g fill="#fbb22e" fill-opacity="1"><g transform="translate(0.239547, 198.103805)"><g><path d="M 47.9375 -119.28125 L 47.9375 -82.515625 L 97.5625 -82.515625 L 97.5625 -56.5 L 47.9375 -56.5 L 47.9375 0 L 14.046875 0 L 14.046875 -145.203125 L 107.53125 -145.203125 L 107.53125 -119.28125 Z M 47.9375 -119.28125 "/></g></g></g><g fill="#fbb22e" fill-opacity="1"><g transform="translate(111.837484, 198.103805)"><g><path d="M 156.5625 -72.65625 C 156.5625 -62.15625 154.75 -52.382812 151.125 -43.34375 C 147.507812 -34.3125 142.410156 -26.457031 135.828125 -19.78125 C 129.253906 -13.101562 121.332031 -7.867188 112.0625 -4.078125 C 102.789062 -0.296875 92.507812 1.59375 81.21875 1.59375 C 69.925781 1.59375 59.628906 -0.296875 50.328125 -4.078125 C 41.023438 -7.867188 33.066406 -13.101562 26.453125 -19.78125 C 19.847656 -26.457031 14.734375 -34.3125 11.109375 -43.34375 C 7.492188 -52.382812 5.6875 -62.15625 5.6875 -72.65625 C 5.6875 -83.144531 7.492188 -92.90625 11.109375 -101.9375 C 14.734375 -110.976562 19.847656 -118.820312 26.453125 -125.46875 C 33.066406 -132.113281 41.023438 -137.328125 50.328125 -141.109375 C 59.628906 -144.898438 69.925781 -146.796875 81.21875 -146.796875 C 92.507812 -146.796875 102.789062 -144.882812 112.0625 -141.0625 C 121.332031 -137.238281 129.253906 -132.003906 135.828125 -125.359375 C 142.410156 -118.722656 147.507812 -110.882812 151.125 -101.84375 C 154.75 -92.8125 156.5625 -83.082031 156.5625 -72.65625 Z M 122.078125 -72.65625 C 122.078125 -79.820312 121.144531 -86.28125 119.28125 -92.03125 C 117.425781 -97.78125 114.753906 -102.644531 111.265625 -106.625 C 107.773438 -110.613281 103.503906 -113.671875 98.453125 -115.796875 C 93.410156 -117.921875 87.664062 -118.984375 81.21875 -118.984375 C 74.707031 -118.984375 68.910156 -117.921875 63.828125 -115.796875 C 58.742188 -113.671875 54.457031 -110.613281 50.96875 -106.625 C 47.488281 -102.644531 44.816406 -97.78125 42.953125 -92.03125 C 41.085938 -86.28125 40.15625 -79.820312 40.15625 -72.65625 C 40.15625 -65.40625 41.085938 -58.90625 42.953125 -53.15625 C 44.816406 -47.414062 47.488281 -42.550781 50.96875 -38.5625 C 54.457031 -34.582031 58.742188 -31.546875 63.828125 -29.453125 C 68.910156 -27.359375 74.707031 -26.3125 81.21875 -26.3125 C 87.664062 -26.3125 93.410156 -27.359375 98.453125 -29.453125 C 103.503906 -31.546875 107.773438 -34.582031 111.265625 -38.5625 C 114.753906 -42.550781 117.425781 -47.414062 119.28125 -53.15625 C 121.144531 -58.90625 122.078125 -65.40625 122.078125 -72.65625 Z M 122.078125 -72.65625 "/></g></g></g><g fill="#fbb22e" fill-opacity="1"><g transform="translate(274.152954, 198.103805)"><g><path d="M 61.28125 -76.9375 C 65.875 -76.9375 69.78125 -77.515625 73 -78.671875 C 76.21875 -79.835938 78.859375 -81.445312 80.921875 -83.5 C 82.984375 -85.5625 84.476562 -87.972656 85.40625 -90.734375 C 86.332031 -93.492188 86.796875 -96.46875 86.796875 -99.65625 C 86.796875 -106.03125 84.71875 -111.007812 80.5625 -114.59375 C 76.414062 -118.1875 69.988281 -119.984375 61.28125 -119.984375 L 47.734375 -119.984375 L 47.734375 -76.9375 Z M 132.84375 0 L 102.34375 0 C 96.695312 0 92.644531 -2.125 90.1875 -6.375 L 66.078125 -48.53125 C 64.941406 -50.320312 63.675781 -51.632812 62.28125 -52.46875 C 60.882812 -53.300781 58.894531 -53.71875 56.3125 -53.71875 L 47.734375 -53.71875 L 47.734375 0 L 14.046875 0 L 14.046875 -145.203125 L 61.28125 -145.203125 C 71.78125 -145.203125 80.734375 -144.117188 88.140625 -141.953125 C 95.546875 -139.796875 101.59375 -136.789062 106.28125 -132.9375 C 110.96875 -129.082031 114.375 -124.53125 116.5 -119.28125 C 118.625 -114.039062 119.6875 -108.328125 119.6875 -102.140625 C 119.6875 -97.429688 119.054688 -92.984375 117.796875 -88.796875 C 116.535156 -84.609375 114.675781 -80.738281 112.21875 -77.1875 C 109.757812 -73.632812 106.71875 -70.460938 103.09375 -67.671875 C 99.46875 -64.878906 95.300781 -62.585938 90.59375 -60.796875 C 92.78125 -59.660156 94.835938 -58.242188 96.765625 -56.546875 C 98.691406 -54.859375 100.421875 -52.851562 101.953125 -50.53125 Z M 132.84375 0 "/></g></g></g><g fill="#fbb22e" fill-opacity="1"><g transform="translate(402.590108, 198.103805)"><g><path d="M 111.921875 -37.578125 C 112.710938 -37.578125 113.503906 -37.425781 114.296875 -37.125 C 115.097656 -36.820312 115.863281 -36.304688 116.59375 -35.578125 L 129.953125 -21.53125 C 124.109375 -13.882812 116.78125 -8.117188 107.96875 -4.234375 C 99.164062 -0.347656 88.753906 1.59375 76.734375 1.59375 C 65.703125 1.59375 55.816406 -0.28125 47.078125 -4.03125 C 38.347656 -7.789062 30.941406 -12.972656 24.859375 -19.578125 C 18.785156 -26.191406 14.117188 -34.03125 10.859375 -43.09375 C 7.609375 -52.164062 5.984375 -62.019531 5.984375 -72.65625 C 5.984375 -83.476562 7.742188 -93.421875 11.265625 -102.484375 C 14.785156 -111.554688 19.734375 -119.378906 26.109375 -125.953125 C 32.484375 -132.535156 40.125 -137.65625 49.03125 -141.3125 C 57.9375 -144.96875 67.734375 -146.796875 78.421875 -146.796875 C 83.867188 -146.796875 89 -146.3125 93.8125 -145.34375 C 98.632812 -144.382812 103.140625 -143.054688 107.328125 -141.359375 C 111.515625 -139.671875 115.367188 -137.628906 118.890625 -135.234375 C 122.410156 -132.835938 125.53125 -130.242188 128.25 -127.453125 L 116.890625 -112.21875 C 116.160156 -111.28125 115.296875 -110.429688 114.296875 -109.671875 C 113.304688 -108.910156 111.914062 -108.53125 110.125 -108.53125 C 108.925781 -108.53125 107.796875 -108.796875 106.734375 -109.328125 C 105.671875 -109.859375 104.539062 -110.503906 103.34375 -111.265625 C 102.144531 -112.023438 100.832031 -112.851562 99.40625 -113.75 C 97.976562 -114.65625 96.285156 -115.488281 94.328125 -116.25 C 92.367188 -117.007812 90.078125 -117.65625 87.453125 -118.1875 C 84.828125 -118.71875 81.753906 -118.984375 78.234375 -118.984375 C 72.648438 -118.984375 67.546875 -117.953125 62.921875 -115.890625 C 58.304688 -113.835938 54.320312 -110.832031 50.96875 -106.875 C 47.613281 -102.925781 45.019531 -98.078125 43.1875 -92.328125 C 41.363281 -86.585938 40.453125 -80.03125 40.453125 -72.65625 C 40.453125 -65.207031 41.46875 -58.59375 43.5 -52.8125 C 45.53125 -47.03125 48.285156 -42.160156 51.765625 -38.203125 C 55.253906 -34.253906 59.320312 -31.25 63.96875 -29.1875 C 68.625 -27.132812 73.609375 -26.109375 78.921875 -26.109375 C 81.984375 -26.109375 84.773438 -26.253906 87.296875 -26.546875 C 89.816406 -26.847656 92.171875 -27.347656 94.359375 -28.046875 C 96.554688 -28.742188 98.617188 -29.675781 100.546875 -30.84375 C 102.472656 -32.007812 104.4375 -33.488281 106.4375 -35.28125 C 107.226562 -35.945312 108.085938 -36.492188 109.015625 -36.921875 C 109.953125 -37.359375 110.921875 -37.578125 111.921875 -37.578125 Z M 111.921875 -37.578125 "/></g></g></g><g fill="#fbb22e" fill-opacity="1"><g transform="translate(533.219669, 198.103805)"><g><path d="M 90.78125 -55.515625 L 77.328125 -95.265625 C 76.335938 -97.796875 75.273438 -100.769531 74.140625 -104.1875 C 73.015625 -107.613281 71.882812 -111.316406 70.75 -115.296875 C 69.757812 -111.242188 68.695312 -107.488281 67.5625 -104.03125 C 66.4375 -100.582031 65.375 -97.597656 64.375 -95.078125 L 51.03125 -55.515625 Z M 144.296875 0 L 118.1875 0 C 115.269531 0 112.910156 -0.675781 111.109375 -2.03125 C 109.316406 -3.394531 107.957031 -5.144531 107.03125 -7.28125 L 98.453125 -32.59375 L 43.25 -32.59375 L 34.6875 -7.28125 C 33.945312 -5.414062 32.628906 -3.734375 30.734375 -2.234375 C 28.847656 -0.742188 26.507812 0 23.71875 0 L -2.59375 0 L 53.609375 -145.203125 L 88.09375 -145.203125 Z M 144.296875 0 "/></g></g></g><g fill="#fbb22e" fill-opacity="1"><g transform="translate(674.909421, 198.103805)"><g><path d="M 94.28125 -115.703125 C 93.28125 -114.109375 92.226562 -112.910156 91.125 -112.109375 C 90.03125 -111.316406 88.625 -110.921875 86.90625 -110.921875 C 85.375 -110.921875 83.726562 -111.398438 81.96875 -112.359375 C 80.207031 -113.328125 78.210938 -114.40625 75.984375 -115.59375 C 73.765625 -116.789062 71.222656 -117.867188 68.359375 -118.828125 C 65.503906 -119.796875 62.25 -120.28125 58.59375 -120.28125 C 52.28125 -120.28125 47.578125 -118.9375 44.484375 -116.25 C 41.398438 -113.5625 39.859375 -109.925781 39.859375 -105.34375 C 39.859375 -102.414062 40.785156 -99.988281 42.640625 -98.0625 C 44.503906 -96.132812 46.945312 -94.472656 49.96875 -93.078125 C 53 -91.679688 56.457031 -90.398438 60.34375 -89.234375 C 64.226562 -88.078125 68.195312 -86.785156 72.25 -85.359375 C 76.300781 -83.929688 80.269531 -82.253906 84.15625 -80.328125 C 88.039062 -78.398438 91.492188 -75.941406 94.515625 -72.953125 C 97.546875 -69.960938 99.988281 -66.320312 101.84375 -62.03125 C 103.707031 -57.75 104.640625 -52.585938 104.640625 -46.546875 C 104.640625 -39.828125 103.472656 -33.546875 101.140625 -27.703125 C 98.816406 -21.859375 95.445312 -16.757812 91.03125 -12.40625 C 86.613281 -8.050781 81.164062 -4.628906 74.6875 -2.140625 C 68.207031 0.347656 60.851562 1.59375 52.625 1.59375 C 48.101562 1.59375 43.5 1.125 38.8125 0.1875 C 34.132812 -0.738281 29.601562 -2.046875 25.21875 -3.734375 C 20.832031 -5.429688 16.710938 -7.441406 12.859375 -9.765625 C 9.003906 -12.085938 5.648438 -14.679688 2.796875 -17.546875 L 12.75 -33.28125 C 13.550781 -34.414062 14.597656 -35.363281 15.890625 -36.125 C 17.191406 -36.882812 18.601562 -37.265625 20.125 -37.265625 C 22.125 -37.265625 24.132812 -36.632812 26.15625 -35.375 C 28.1875 -34.113281 30.476562 -32.71875 33.03125 -31.1875 C 35.59375 -29.664062 38.535156 -28.269531 41.859375 -27 C 45.179688 -25.738281 49.097656 -25.109375 53.609375 -25.109375 C 59.722656 -25.109375 64.472656 -26.453125 67.859375 -29.140625 C 71.253906 -31.835938 72.953125 -36.109375 72.953125 -41.953125 C 72.953125 -45.335938 72.019531 -48.09375 70.15625 -50.21875 C 68.300781 -52.351562 65.859375 -54.113281 62.828125 -55.5 C 59.804688 -56.894531 56.367188 -58.125 52.515625 -59.1875 C 48.660156 -60.257812 44.707031 -61.441406 40.65625 -62.734375 C 36.601562 -64.023438 32.648438 -65.617188 28.796875 -67.515625 C 24.941406 -69.410156 21.503906 -71.898438 18.484375 -74.984375 C 15.460938 -78.078125 13.019531 -81.929688 11.15625 -86.546875 C 9.300781 -91.171875 8.375 -96.867188 8.375 -103.640625 C 8.375 -109.085938 9.46875 -114.398438 11.65625 -119.578125 C 13.851562 -124.765625 17.078125 -129.382812 21.328125 -133.4375 C 25.578125 -137.488281 30.789062 -140.726562 36.96875 -143.15625 C 43.144531 -145.582031 50.222656 -146.796875 58.203125 -146.796875 C 62.648438 -146.796875 66.984375 -146.445312 71.203125 -145.75 C 75.421875 -145.050781 79.421875 -144.019531 83.203125 -142.65625 C 86.992188 -141.289062 90.535156 -139.660156 93.828125 -137.765625 C 97.117188 -135.878906 100.054688 -133.738281 102.640625 -131.34375 Z M 94.28125 -115.703125 "/></g></g></g><g fill="#fbb22e" fill-opacity="1"><g transform="translate(785.311853, 198.103805)"><g><path d="M 118.390625 -118.484375 L 77.53125 -118.484375 L 77.53125 0 L 43.84375 0 L 43.84375 -118.484375 L 2.984375 -118.484375 L 2.984375 -145.203125 L 118.390625 -145.203125 Z M 118.390625 -118.484375 "/></g></g></g></g></g></g><path fill="#0094d9" d="M 631.625 280.394531 C 628.664062 280.664062 625.636719 279.351562 623.890625 276.714844 C 621.304688 272.867188 622.339844 267.671875 626.199219 265.125 L 649.960938 249.253906 L 621.921875 243.675781 C 617.394531 242.777344 614.460938 238.367188 615.359375 233.847656 C 615.808594 231.585938 617.121094 229.71875 618.910156 228.535156 C 620.6875 227.351562 622.921875 226.824219 625.179688 227.273438 L 653.222656 232.847656 L 637.34375 209.097656 C 634.753906 205.261719 635.789062 200.070312 639.652344 197.507812 C 640.601562 196.871094 641.65625 196.460938 642.726562 196.261719 C 645.933594 195.644531 649.324219 196.9375 651.261719 199.816406 L 673.714844 233.402344 L 676.417969 237.464844 L 711.886719 244.515625 C 710.863281 246.949219 710.082031 249.507812 709.546875 252.195312 C 708.957031 255.144531 708.710938 258.0625 708.777344 260.949219 L 673.152344 253.867188 L 635.503906 279.007812 C 634.292969 279.816406 632.964844 280.265625 631.625 280.394531 Z M 631.625 280.394531 " fill-opacity="1" fill-rule="evenodd"/><path fill="#0094d9" d="M 649.03125 183.492188 C 649.9375 178.957031 654.335938 176.007812 658.871094 176.90625 L 686.898438 182.476562 L 671.019531 158.730469 C 668.621094 155.140625 669.371094 150.335938 672.640625 147.636719 C 672.851562 147.457031 673.09375 147.285156 673.328125 147.125 C 677.171875 144.570312 682.382812 145.605469 684.941406 149.433594 L 685.75 150.644531 L 695.085938 164.628906 L 700.796875 173.214844 L 706.371094 145.1875 C 706.371094 145.171875 706.390625 145.175781 706.394531 145.160156 C 706.472656 144.777344 706.574219 144.402344 706.695312 144.046875 C 706.71875 144.003906 706.726562 143.960938 706.734375 143.925781 C 706.75 143.867188 706.792969 143.808594 706.820312 143.753906 C 706.863281 143.636719 706.914062 143.519531 706.957031 143.402344 C 707.03125 143.257812 707.09375 143.109375 707.167969 142.96875 C 707.21875 142.867188 707.265625 142.78125 707.316406 142.695312 C 707.394531 142.554688 707.488281 142.410156 707.574219 142.257812 C 707.640625 142.171875 707.710938 142.078125 707.769531 141.996094 C 707.839844 141.882812 707.925781 141.789062 707.992188 141.675781 C 708.117188 141.523438 708.261719 141.378906 708.386719 141.226562 C 708.390625 141.214844 708.390625 141.214844 708.40625 141.199219 C 708.40625 141.199219 708.40625 141.199219 708.425781 141.1875 C 708.648438 140.945312 708.890625 140.710938 709.136719 140.492188 C 709.152344 140.480469 709.15625 140.460938 709.175781 140.449219 C 709.4375 140.246094 709.703125 140.027344 709.980469 139.847656 C 710.035156 139.808594 710.085938 139.785156 710.160156 139.738281 C 710.355469 139.621094 710.550781 139.515625 710.75 139.398438 C 710.890625 139.332031 711.03125 139.261719 711.1875 139.199219 C 711.308594 139.140625 711.414062 139.101562 711.53125 139.042969 C 712.980469 138.472656 714.589844 138.285156 716.230469 138.609375 C 720.773438 139.503906 723.691406 143.921875 722.789062 148.441406 L 713.953125 192.84375 L 714.332031 193.429688 L 714.34375 193.445312 L 714.402344 193.535156 L 723.261719 206.742188 L 733.84375 222.613281 C 728.636719 224.753906 723.929688 227.976562 720.035156 232.046875 L 709.324219 216.039062 L 700.035156 202.140625 L 655.609375 193.308594 C 651.070312 192.40625 648.132812 188.015625 649.03125 183.492188 Z M 649.03125 183.492188 " fill-opacity="1" fill-rule="evenodd"/><path fill="#0094d9" d="M 721.054688 289.191406 L 704.667969 300.160156 L 690.742188 309.441406 L 681.914062 353.839844 C 681.007812 358.375 676.628906 361.332031 672.089844 360.425781 C 670.378906 360.085938 668.914062 359.238281 667.773438 358.089844 C 665.878906 356.1875 664.9375 353.398438 665.503906 350.574219 L 671.078125 322.5625 L 647.332031 338.4375 C 644.691406 340.195312 641.390625 340.257812 638.761719 338.875 C 638.601562 338.789062 638.445312 338.699219 638.289062 338.605469 C 638.222656 338.558594 638.148438 338.53125 638.078125 338.46875 C 637.164062 337.878906 636.351562 337.09375 635.703125 336.125 C 635.582031 335.941406 635.476562 335.746094 635.375 335.550781 C 635.339844 335.496094 635.300781 335.441406 635.265625 335.371094 C 635.148438 335.160156 635.050781 334.933594 634.957031 334.691406 C 634.933594 334.65625 634.917969 334.636719 634.910156 334.605469 C 634.03125 332.382812 634.136719 329.941406 635.140625 327.855469 C 635.75 326.550781 636.707031 325.40625 638.011719 324.535156 L 650.941406 315.910156 L 661.785156 308.683594 L 633.761719 303.113281 C 629.21875 302.207031 626.289062 297.78125 627.1875 293.257812 C 628.03125 289.015625 631.949219 286.179688 636.171875 286.589844 C 636.46875 286.617188 636.75 286.652344 637.039062 286.714844 L 681.445312 295.542969 L 695.355469 286.238281 L 711.730469 275.316406 C 713.832031 280.542969 717.007812 285.269531 721.054688 289.191406 Z M 721.054688 289.191406 " fill-opacity="1" fill-rule="evenodd"/><g clip-path="url(#37c40dd634)"><path fill="#0094d9" d="M 809.730469 162.664062 L 804.433594 166.203125 L 776.113281 185.105469 L 773.164062 187.074219 L 772.0625 187.808594 L 765.117188 222.707031 C 762.640625 221.660156 760.019531 220.851562 757.289062 220.308594 C 754.402344 219.730469 751.511719 219.476562 748.671875 219.535156 L 755.628906 184.558594 L 730.472656 146.929688 C 728.382812 143.796875 728.667969 139.789062 730.921875 137.019531 C 731.429688 136.375 732.054688 135.796875 732.789062 135.308594 C 736.632812 132.753906 741.828125 133.789062 744.386719 137.613281 L 753.902344 151.890625 L 760.238281 161.375 L 765.816406 133.34375 C 766.367188 130.582031 768.242188 128.429688 770.628906 127.363281 C 770.679688 127.34375 770.734375 127.308594 770.789062 127.28125 C 770.859375 127.25 770.929688 127.230469 770.976562 127.210938 C 772.40625 126.648438 774.019531 126.464844 775.652344 126.789062 C 776.171875 126.890625 776.683594 127.039062 777.148438 127.246094 C 780.8125 128.707031 783.039062 132.609375 782.246094 136.609375 L 782.242188 136.625 C 782.242188 136.625 782.242188 136.625 782.238281 136.640625 L 776.667969 164.636719 L 790.414062 155.445312 L 800.414062 148.75 C 804.242188 146.191406 809.453125 147.230469 812.027344 151.058594 C 814.59375 154.914062 813.5625 160.089844 809.730469 162.664062 Z M 809.730469 162.664062 " fill-opacity="1" fill-rule="evenodd"/></g><path fill="#fbb22e" d="M 792.09375 224.980469 C 794.695312 228.011719 796.941406 231.308594 798.804688 234.800781 L 811.285156 229.3125 L 815.960938 227.253906 L 820.636719 225.199219 L 826.871094 222.460938 L 845.566406 214.238281 L 851.796875 211.496094 L 861.140625 207.386719 L 873.601562 201.90625 C 867.324219 188.734375 858.925781 176.554688 848.664062 165.921875 L 839.25 175.757812 L 832.179688 183.136719 L 827.46875 188.050781 L 820.402344 195.425781 L 813.335938 202.808594 L 801.542969 215.121094 Z M 792.09375 224.980469 " fill-opacity="1" fill-rule="evenodd"/><g clip-path="url(#a6832934f4)"><path fill="#fbb22e" d="M 866.332031 300.984375 L 879.015625 305.917969 C 884.105469 291.617188 886.644531 277 886.875 262.570312 L 873.257812 262.867188 L 856.230469 263.238281 L 846.011719 263.457031 L 835.792969 263.6875 L 818.75 264.054688 L 805.097656 264.355469 C 804.808594 268.34375 804.074219 272.355469 802.851562 276.320312 L 815.566406 281.253906 L 820.324219 283.105469 L 825.089844 284.960938 L 831.433594 287.421875 L 840.953125 291.125 L 850.46875 294.824219 L 856.816406 297.289062 Z M 866.332031 300.984375 " fill-opacity="1" fill-rule="evenodd"/></g><path fill="#fbb22e" d="M 796.796875 310.53125 L 786.941406 301.101562 C 783.714844 303.964844 780.164062 306.414062 776.390625 308.421875 L 781.882812 320.894531 L 785.992188 330.246094 L 788.734375 336.476562 L 792.851562 345.820312 L 794.324219 349.15625 L 799.707031 361.390625 L 802.644531 368.0625 L 803.816406 370.730469 L 809.304688 383.183594 C 822.765625 376.777344 835.199219 368.164062 845.996094 357.609375 L 836.164062 348.199219 L 828.785156 341.140625 L 823.863281 336.433594 L 816.691406 329.570312 L 814.046875 327.039062 L 809.105469 322.308594 L 804.1875 317.601562 Z M 796.796875 310.53125 " fill-opacity="1" fill-rule="evenodd"/><g clip-path="url(#1a4ed9f08a)"><path fill="#fbb22e" d="M 749.871094 382.828125 L 749.648438 372.625 L 749.5 365.824219 L 749.269531 355.214844 L 748.902344 338.605469 L 748.679688 328.398438 L 748.382812 314.777344 C 743.949219 314.578125 739.476562 313.832031 735.0625 312.496094 L 730.121094 325.195312 L 726.414062 334.714844 L 723.949219 341.058594 L 720.242188 350.574219 L 716.539062 360.089844 L 714.074219 366.429688 L 710.378906 375.9375 L 705.441406 388.617188 C 720.195312 393.847656 735.285156 396.367188 750.164062 396.433594 Z M 749.871094 382.828125 " fill-opacity="1" fill-rule="evenodd"/></g><path fill="#fbb22e" d="M 787.289062 274.324219 C 780.351562 292.152344 761.746094 302.007812 743.59375 298.550781 C 758.628906 296.046875 772 285.910156 777.921875 270.6875 C 783.847656 255.460938 780.84375 238.960938 771.449219 226.960938 C 787.167969 236.664062 794.226562 256.496094 787.289062 274.324219 Z M 787.289062 274.324219 " fill-opacity="1" fill-rule="evenodd"/></g></g></svg>