<svg xmlns="http://www.w3.org/2000/svg" xmlns:xlink="http://www.w3.org/1999/xlink" width="2000" zoomAndPan="magnify" viewBox="0 0 1500 1499.999933" height="2000" preserveAspectRatio="xMidYMid meet" version="1.0"><defs><g/><clipPath id="d542ef61b7"><path d="M 657 369 L 1010.25 369 L 1010.25 911.722656 L 657 911.722656 Z M 657 369 " clip-rule="nonzero"/></clipPath><clipPath id="3337be00d9"><path d="M 491.25 312 L 842 312 L 842 848 L 491.25 848 Z M 491.25 312 " clip-rule="nonzero"/></clipPath><clipPath id="ca1fb5dbc7"><path d="M 541 968 L 590 968 L 590 1042.828125 L 541 1042.828125 Z M 541 968 " clip-rule="nonzero"/></clipPath><clipPath id="4c09f40c8c"><path d="M 445 909 L 567 909 L 567 1042.828125 L 445 1042.828125 Z M 445 909 " clip-rule="nonzero"/></clipPath></defs><path fill="#00b9dc" d="M 747.136719 521.210938 C 722.960938 522.921875 703.355469 542.371094 701.457031 566.542969 C 699.820312 587.378906 711.125 605.753906 728.179688 614.523438 L 728.179688 679.792969 C 728.179688 692.257812 738.285156 702.363281 750.75 702.363281 C 763.214844 702.363281 773.320312 692.257812 773.320312 679.792969 L 773.320312 614.523438 C 789.28125 606.316406 800.199219 589.707031 800.199219 570.53125 C 800.199219 542.023438 776.082031 519.148438 747.136719 521.210938 " fill-opacity="1" fill-rule="nonzero"/><g clip-path="url(#d542ef61b7)"><path fill="#f59924" d="M 850.585938 369.703125 L 657.363281 480.5 L 819.78125 436.5625 L 936.953125 504.214844 C 936.953125 601.976562 898.03125 693.699219 832.605469 762.75 C 781.414062 816.773438 691.085938 871.164062 691.085938 871.164062 C 709.867188 885.816406 729.78125 899.265625 750.75 911.375 C 911.335938 818.660156 1010.257812 647.320312 1010.257812 461.890625 L 850.585938 369.703125 " fill-opacity="1" fill-rule="nonzero"/></g><g clip-path="url(#3337be00d9)"><path fill="#00b9dc" d="M 690.863281 783.722656 C 611.441406 713.804688 564.542969 612.359375 564.542969 504.214844 L 564.769531 504.085938 L 823.480469 354.0625 L 750.75 312.070312 L 491.246094 461.890625 C 491.246094 610.734375 554.992188 750.492188 663.203125 847.804688 C 663.203125 847.804688 770.332031 791.882812 841.601562 717.296875 L 690.863281 783.722656 " fill-opacity="1" fill-rule="nonzero"/></g><g fill="#fc952a" fill-opacity="1"><g transform="translate(612.822227, 997.894694)"><g><path d="M 32.5 1.5 C 23.4375 1.5 16.335938 -0.648438 11.203125 -4.953125 C 6.066406 -9.253906 3.5 -15.171875 3.5 -22.703125 L 23 -22.703125 C 23 -20.035156 23.816406 -17.953125 25.453125 -16.453125 C 27.085938 -14.953125 29.335938 -14.203125 32.203125 -14.203125 C 34.671875 -14.203125 36.601562 -14.679688 38 -15.640625 C 39.394531 -16.609375 40.09375 -17.960938 40.09375 -19.703125 C 40.09375 -23.566406 35.894531 -26.332031 27.5 -28 C 11.832031 -31 4 -38.363281 4 -50.09375 C 4 -56.695312 6.378906 -61.914062 11.140625 -65.75 C 15.910156 -69.582031 22.429688 -71.5 30.703125 -71.5 C 36.429688 -71.5 41.410156 -70.53125 45.640625 -68.59375 C 49.878906 -66.664062 53.148438 -63.914062 55.453125 -60.34375 C 57.753906 -56.78125 58.90625 -52.597656 58.90625 -47.796875 L 39.90625 -47.796875 C 39.90625 -50.460938 39.132812 -52.492188 37.59375 -53.890625 C 36.0625 -55.296875 33.894531 -56 31.09375 -56 C 28.757812 -56 26.894531 -55.515625 25.5 -54.546875 C 24.101562 -53.578125 23.40625 -52.226562 23.40625 -50.5 C 23.40625 -48.695312 24.335938 -47.195312 26.203125 -46 C 28.066406 -44.800781 31.234375 -43.703125 35.703125 -42.703125 C 44.234375 -40.835938 50.445312 -38.117188 54.34375 -34.546875 C 58.25 -30.984375 60.203125 -26.300781 60.203125 -20.5 C 60.203125 -13.632812 57.765625 -8.25 52.890625 -4.34375 C 48.023438 -0.445312 41.226562 1.5 32.5 1.5 Z M 32.5 1.5 "/></g></g></g><g fill="#fc952a" fill-opacity="1"><g transform="translate(710.719717, 997.894694)"><g><path d="M 0.5 0 L 27.703125 -70 L 47.703125 -70 L 74.90625 0 L 53.40625 0 L 49.59375 -9.90625 L 25.703125 -9.90625 L 21.90625 0 Z M 29.90625 -24.703125 L 45.5 -24.703125 L 37.703125 -46.40625 Z M 29.90625 -24.703125 "/></g></g></g><g fill="#fc952a" fill-opacity="1"><g transform="translate(822.716694, 997.894694)"><g><path d="M 0.5 0 L 27.703125 -70 L 47.703125 -70 L 74.90625 0 L 53.40625 0 L 49.59375 -9.90625 L 25.703125 -9.90625 L 21.90625 0 Z M 29.90625 -24.703125 L 45.5 -24.703125 L 37.703125 -46.40625 Z M 29.90625 -24.703125 "/></g></g></g><g fill="#fc952a" fill-opacity="1"><g transform="translate(934.713694, 997.894694)"><g><path d="M 7.40625 0 L 7.40625 -70 L 37.09375 -70 C 44.632812 -70 51.21875 -68.546875 56.84375 -65.640625 C 62.476562 -62.742188 66.863281 -58.660156 70 -53.390625 C 73.132812 -48.128906 74.703125 -42 74.703125 -35 C 74.703125 -28 73.132812 -21.863281 70 -16.59375 C 66.863281 -11.332031 62.476562 -7.25 56.84375 -4.34375 C 51.21875 -1.445312 44.632812 0 37.09375 0 Z M 27.59375 -18.09375 L 36.5 -18.09375 C 41.832031 -18.09375 46.097656 -19.625 49.296875 -22.6875 C 52.492188 -25.757812 54.09375 -29.863281 54.09375 -35 C 54.09375 -40.132812 52.492188 -44.234375 49.296875 -47.296875 C 46.097656 -50.367188 41.832031 -51.90625 36.5 -51.90625 L 27.59375 -51.90625 Z M 27.59375 -18.09375 "/></g></g></g><g clip-path="url(#ca1fb5dbc7)"><path fill="#f14624" d="M 588.027344 1024.371094 L 555.671875 968.339844 L 541.40625 993.078125 L 566.597656 1036.726562 C 568.875 1040.671875 573.03125 1042.917969 577.3125 1042.917969 C 579.40625 1042.917969 581.53125 1042.371094 583.476562 1041.25 C 589.425781 1037.820312 591.425781 1030.292969 588.027344 1024.371094 Z M 588.027344 1024.371094 " fill-opacity="1" fill-rule="nonzero"/></g><g clip-path="url(#4c09f40c8c)"><path fill="#f14624" d="M 565.324219 937.558594 L 551.601562 961.328125 L 537.304688 986.066406 L 515.207031 1024.34375 C 508.59375 1035.816406 496.238281 1042.949219 483.003906 1042.949219 C 469.558594 1042.949219 457.507812 1035.996094 450.769531 1024.34375 C 444.027344 1012.714844 444.027344 998.785156 450.769531 987.128906 L 489.4375 920.199219 C 493.445312 913.246094 500.640625 909.089844 508.652344 909.089844 C 516.664062 909.089844 523.859375 913.246094 527.898438 920.199219 L 529.292969 922.625 L 533.300781 929.546875 L 519.003906 954.285156 L 508.652344 936.375 L 472.226562 999.480469 C 468.980469 1005.097656 471.136719 1010.074219 472.226562 1011.957031 C 473.320312 1013.839844 476.539062 1018.210938 483.035156 1018.210938 C 487.464844 1018.210938 491.625 1015.8125 493.808594 1011.957031 L 523.039062 961.328125 L 537.335938 936.589844 L 543.894531 925.207031 C 547.324219 919.289062 554.882812 917.253906 560.800781 920.683594 C 566.71875 924.082031 568.753906 931.640625 565.324219 937.558594 Z M 565.324219 937.558594 " fill-opacity="1" fill-rule="nonzero"/></g><path fill="#f14624" d="M 559.3125 908.175781 C 565.929688 923.082031 587.996094 913.945312 582.167969 898.707031 C 575.523438 883.832031 553.453125 892.96875 559.3125 908.175781 Z M 559.3125 908.175781 " fill-opacity="1" fill-rule="nonzero"/></svg>