<?xml version="1.0" encoding="UTF-8"?>
<svg id="Layer_1" data-name="Layer 1" xmlns="http://www.w3.org/2000/svg" xmlns:xlink="http://www.w3.org/1999/xlink" viewBox="0 0 1080 1080">
  <defs>
    <style>
      .cls-1 {
        fill: #fff;
      }

      .cls-2 {
        fill: none;
      }

      .cls-3 {
        letter-spacing: 0em;
      }

      .cls-4 {
        fill: #231f20;
        font-family: Nexa-ExtraLight, Nexa;
        font-size: 145.25px;
        font-weight: 200;
      }

      .cls-5 {
        letter-spacing: 0em;
      }

      .cls-6 {
        letter-spacing: -.03em;
      }

      .cls-7 {
        fill: #32a7b5;
      }

      .cls-8 {
        clip-path: url(#clippath);
      }
    </style>
    <clipPath id="clippath">
      <circle class="cls-2" cx="540" cy="446.74" r="210.47" transform="translate(-157.73 512.69) rotate(-45)"/>
    </clipPath>
  </defs>
  <text class="cls-4" transform="translate(196.12 895.01)"><tspan class="cls-5" x="0" y="0">D</tspan><tspan x="108.21" y="0">ee</tspan><tspan class="cls-3" x="278.74" y="0">p</tspan><tspan class="cls-6" x="369.08" y="0">L</tspan><tspan x="446.5" y="0">enz</tspan></text>
  <g>
    <circle class="cls-7" cx="540" cy="446.74" r="305.03"/>
    <g class="cls-8">
      <g>
        <path class="cls-1" d="M418.92,906.41v-75.11c3.22,22.5,10,42.97,20.31,61.41,15.01,26.81,36.26,47.47,63.75,61.97,27.49,14.5,59.44,21.76,95.87,21.76h145.2v-354.15h-145.2c-.62,0-1.24,0-1.85.02v-70.04h-261.07v354.15h82.98ZM598.86,694.63h62.22v209.46h-62.22c-19.56,0-36.84-4.3-51.86-12.9-15.01-8.6-26.64-20.74-34.91-36.42-8.26-15.69-12.4-34.15-12.4-55.41,0-32.04,9.11-57.51,27.32-76.39,18.22-18.9,42.17-28.34,71.85-28.34ZM418.92,627.14h131.34c-17.01,3.61-32.76,9.25-47.28,16.91-27.49,14.49-48.74,35.16-63.75,61.97-10.31,18.44-17.09,38.9-20.31,61.41v-140.29Z"/>
        <path class="cls-1" d="M64.92,473.27l71.43-23.21c-20.41,10.02-37.78,22.79-52.13,38.29-20.86,22.56-33.94,49.16-39.24,79.78-5.3,30.62-2.32,63.25,8.94,97.9l44.87,138.1,336.82-109.44-44.87-138.1c-.19-.59-.38-1.18-.59-1.75l66.61-21.64-80.67-248.29L39.27,394.35l25.64,78.92ZM321.94,578.96l19.23,59.18-199.21,64.73-19.23-59.18c-6.04-18.6-7.29-36.37-3.75-53.31,3.54-16.93,11.49-31.74,23.85-44.46,12.36-12.71,28.65-22.35,48.86-28.91,30.48-9.9,57.51-9.1,81.09,2.38,23.6,11.49,39.98,31.35,49.15,59.58ZM330.52,386.97l40.59,124.91c-8.68-15.06-18.92-28.3-30.69-39.74-22.28-21.66-48.5-35.49-78.64-41.48-20.72-4.11-42.28-4.23-64.68-.34l133.42-43.35Z"/>
        <path class="cls-1" d="M367.46,2.74l44.15,60.77c-15.83-16.31-33.35-28.89-52.53-37.74-27.9-12.86-57.24-17.09-88-12.66-30.76,4.43-60.88,17.34-90.35,38.75l-117.47,85.35,208.16,286.51,117.47-85.35c.5-.37,1-.73,1.49-1.1l41.17,56.66,211.21-153.45L434.59-46.03,367.46,2.74ZM346.37,279.84l-50.34,36.57-123.12-169.46,50.34-36.57c15.83-11.5,32.34-18.17,49.54-20.04,17.19-1.86,33.74,1.12,49.65,8.95,15.91,7.83,30.11,20.34,42.6,37.54,18.84,25.92,26.43,51.88,22.8,77.86-3.63,26-17.46,47.71-41.47,65.16ZM531.62,228.68l-106.26,77.2c11.64-12.91,21.07-26.74,28.31-41.47,13.72-27.88,18.76-57.1,15.15-87.61-2.49-20.98-9.04-41.52-19.66-61.62l82.46,113.49Z"/>
        <path class="cls-1" d="M908.45,145.08l-44.15,60.77c10.62-20.1,17.17-40.64,19.66-61.62,3.61-30.51-1.44-59.72-15.15-87.61-13.72-27.89-35.3-52.54-64.78-73.95l-117.47-85.35-208.16,286.51,117.47,85.35c.5.37,1,.73,1.51,1.07l-41.17,56.66,211.21,153.45,208.16-286.51-67.13-48.77ZM638.4,210.65l-50.34-36.57L711.18,4.62l50.34,36.57c15.83,11.5,27.28,25.14,34.37,40.92,7.08,15.78,9.36,32.44,6.83,49.99-2.53,17.55-10.04,34.92-22.54,52.11-18.84,25.92-41.17,41.17-67,45.74-25.85,4.58-50.77-1.86-74.78-19.31ZM744.3,371.02l-106.26-77.2c15.88,7.08,31.94,11.77,48.18,14.11,30.76,4.43,60.1.2,88-12.66,19.18-8.85,36.69-21.43,52.53-37.74l-82.46,113.49Z"/>
        <path class="cls-1" d="M940.25,703.58l-71.43-23.21c22.4,3.89,43.96,3.77,64.68-.34,30.14-5.99,56.35-19.82,78.64-41.48,22.29-21.66,39.06-49.81,50.32-84.46l44.87-138.1-336.82-109.44-44.87,138.1c-.19.59-.38,1.18-.56,1.76l-66.61-21.64-80.67,248.29,336.82,109.44,25.64-78.92ZM794.44,467.01l19.23-59.18,199.21,64.73-19.23,59.18c-6.04,18.6-15.48,33.71-28.3,45.33-12.82,11.61-27.96,18.93-45.43,21.95-17.47,3.01-36.31,1.24-56.53-5.33-30.48-9.9-51.88-26.44-64.21-49.59-12.34-23.16-13.92-48.86-4.75-77.09ZM674.65,617.28l40.59-124.91c-1.83,17.29-1.33,34.01,1.47,50.19,5.29,30.62,18.38,57.22,39.24,79.78,14.35,15.51,31.72,28.28,52.13,38.29l-133.42-43.35Z"/>
      </g>
    </g>
  </g>
</svg>