<svg width="666" height="311" viewBox="0 0 666 311" fill="none" xmlns="http://www.w3.org/2000/svg">
<g clip-path="url(#clip0_5069_11898)">
<path d="M438.973 211.523C438.32 210.632 438.513 209.381 439.404 208.728L444.244 205.182C445.135 204.529 446.387 204.722 447.04 205.613L450.093 209.78L442.026 215.691L438.973 211.523Z" fill="url(#paint0_linear_5069_11898)"/>
<path opacity="0.28" d="M429.724 177.763V204.131C451.893 185.568 457.595 156.724 444.292 133.831C433.651 115.516 421.473 107.25 410.494 106.631L398.053 115.888C408.694 116.878 411.776 128.263 411.988 133.831L422.123 139.399V170.338L429.724 177.763Z" fill="#ECECEC"/>
<path d="M423.068 166.193V130.395C423.068 117.286 418.418 107.753 413.049 107.267C408.399 106.842 404.204 108.402 399.167 111.77C391.921 116.614 386.066 124.2 386.066 131.94V166.193C386.066 166.193 391.504 167.305 404.567 167.305C417.63 167.305 423.068 166.193 423.068 166.193Z" fill="#C62828"/>
<path d="M412.124 123.476C405.96 133.495 396.705 135.813 391.305 133.495C387.489 131.857 387.01 129.015 388.223 125.786C392.85 113.457 406.732 105.747 412.897 107.284C416.713 108.242 417.3 115.071 412.124 123.476Z" fill="#F44336"/>
<path d="M401.212 132.46C400.633 132.854 401.173 133.287 401.83 133.039C404.379 132.089 408.659 130.784 413.039 125.531C415.658 122.387 417.187 118.269 416.901 114.19C416.809 112.908 416.245 110.737 415.302 109.285C414.908 108.675 414.638 108.961 414.762 109.857C415.279 113.642 414.167 117.018 413.132 119.273C409.74 126.635 404.65 130.112 401.212 132.46Z" fill="#FF8383"/>
<path d="M381.793 178.819C381.793 178.819 389.325 180.866 404.767 180.866C420.209 180.866 427.324 178.819 427.324 178.819V165.818L381.801 165.764V178.819H381.793Z" fill="#E2A610"/>
<path d="M383.663 177.474L392.562 178.903V168.444L383.663 167.007V177.474Z" fill="#9E740B"/>
<path d="M386.066 165.72C386.066 165.72 392.315 167.342 405.656 167.342C418.997 167.342 423.068 165.72 423.068 165.72V157.037C423.068 157.037 420.519 162.769 405.007 161.525C388.484 160.204 386.058 151.931 386.058 151.931V165.72H386.066Z" fill="#A12524"/>
<path d="M386.05 163.231C386.05 164.962 394.4 166.36 404.559 166.36C414.717 166.36 423.099 164.962 423.099 163.231C423.099 163.231 427.324 164.9 427.324 165.75C427.324 167.89 417.135 169.628 404.559 169.628C391.982 169.628 381.793 167.89 381.793 165.75C381.793 164.892 386.05 163.1 386.05 163.231Z" fill="#FFCA28"/>
<path d="M414.609 168.815C417.266 168.637 419.128 168.135 419.7 167.432C420.565 166.374 419.553 165.748 418.448 165.872C416.95 166.042 416.733 166.204 413.736 166.498C410.237 166.838 407.618 166.838 408.444 167.88C409.001 168.576 411.519 169.024 414.609 168.815Z" fill="#FFF59D"/>
<path d="M376.61 178.385C376.61 178.385 385.748 181.938 404.358 181.938C422.968 181.938 432.516 178.423 432.516 178.423V203C431.766 205.511 419.314 213 404.358 213C389.402 213 377.359 204.018 376.61 201.5V178.385Z" fill="#424242"/>
<path d="M379.47 205C381.08 205.703 387.133 211.23 391.83 211.5V182.406L379.47 180.405V205Z" fill="#212121"/>
<path d="M381.832 175.234C381.832 177.359 392.091 179.074 404.559 179.074C417.027 179.074 427.332 177.351 427.332 175.234C427.332 175.234 432.516 177.281 432.516 178.324C432.516 180.951 420.001 183.083 404.559 183.083C389.117 183.083 376.602 180.951 376.602 178.324C376.602 177.281 381.832 175.08 381.832 175.234Z" fill="#757575"/>
<path d="M411.184 182.114C414.174 182.199 419.234 181.905 422.131 180.986C424.927 180.098 423.637 178.058 421.165 178.483C418.886 178.877 415.51 179.542 407.438 179.634C405.02 179.657 404.896 180.469 405.051 180.986C405.267 181.72 406.264 181.983 411.184 182.114Z" fill="#90A4AE"/>
<path d="M439.16 223.914C437.415 221.774 437.735 218.624 439.875 216.879L451.788 207.161C453.928 205.415 457.077 205.735 458.823 207.875L493.153 249.962C497.582 255.392 496.771 263.384 491.341 267.813C485.912 272.242 477.92 271.43 473.491 266.001L439.16 223.914Z" fill="url(#paint1_linear_5069_11898)"/>
<path d="M465.288 31L459.083 45.0803L445 51.288L459.083 57.4956L465.288 71.5803L471.498 57.4978L485.578 51.2902L471.498 45.0825L465.288 31Z" fill="#F6C218"/>
<path d="M444.999 61L441.635 68.6334L434 71.9988L441.635 75.3642L444.999 83L448.366 75.3654L456 72L448.366 68.6346L444.999 61Z" fill="#F6C218"/>
<path d="M251.95 224.167C245.012 224.167 238.376 223.3 232.041 221.566C225.707 219.907 219.787 217.531 214.282 214.439C208.853 211.347 203.876 207.652 199.351 203.354C194.902 199.056 191.094 194.267 187.926 188.988C184.835 183.71 182.421 178.054 180.687 172.021C178.953 165.988 178.085 159.729 178.085 153.244C178.085 146.834 178.953 140.688 180.687 134.806C182.421 128.924 184.835 123.419 187.926 118.291C191.094 113.163 194.902 108.488 199.351 104.265C203.876 100.042 208.853 96.4601 214.282 93.5191C219.787 90.5027 225.707 88.165 232.041 86.506C238.376 84.847 245.012 84.0174 251.95 84.0174C262.356 84.0174 272.046 85.8273 281.02 89.447C289.994 93.0667 297.761 98.006 304.322 104.265C310.958 110.524 316.161 117.877 319.932 126.323C323.778 134.693 325.701 143.667 325.701 153.244C325.701 159.729 324.833 165.988 323.099 172.021C321.365 178.054 318.914 183.71 315.747 188.988C312.655 194.267 308.884 199.056 304.435 203.354C299.986 207.652 295.009 211.347 289.504 214.439C284.074 217.531 278.192 219.907 271.858 221.566C265.523 223.3 258.887 224.167 251.95 224.167ZM251.95 217.493C259.566 217.493 266.315 215.91 272.197 212.743C278.079 209.5 283.019 205.013 287.015 199.282C291.087 193.551 294.142 186.764 296.178 178.921C298.289 171.078 299.345 162.519 299.345 153.244C299.345 144.044 298.289 135.636 296.178 128.019C294.142 120.327 291.087 113.729 287.015 108.224C283.019 102.644 278.079 98.3077 272.197 95.2158C266.315 92.124 259.566 90.5781 251.95 90.5781C244.107 90.5781 237.207 92.124 231.249 95.2158C225.367 98.3077 220.428 102.644 216.431 108.224C212.435 113.729 209.418 120.327 207.382 128.019C205.421 135.636 204.441 144.044 204.441 153.244C204.441 162.519 205.421 171.078 207.382 178.921C209.418 186.764 212.435 193.551 216.431 199.282C220.428 205.013 225.367 209.5 231.249 212.743C237.207 215.91 244.107 217.493 251.95 217.493Z" fill="black"/>
<path d="M128.015 87.055C131.715 87.055 155.21 87.055 158.54 87.055C161.87 87.055 162.61 87.055 166.31 87.055C166.31 87.61 166.31 88.165 166.31 88.72C159.095 92.975 158.54 117.58 158.54 130.16V173.08C158.54 185.475 159.095 210.08 166.31 214.52C166.31 214.89 166.31 215.63 166.31 216C162.61 216 139.115 216 135.785 216C132.455 216 131.715 216 128.015 216C128.015 215.63 128.015 214.89 128.015 214.52C135.23 210.08 135.785 185.475 135.785 173.08V152.36H68.445V173.08C68.445 185.475 69 210.08 76.215 214.52C76.215 214.89 76.215 215.63 76.215 216C72.515 216 49.02 216 45.69 216C42.36 216 41.62 216 37.92 216C37.92 215.63 37.92 214.89 37.92 214.52C45.135 210.08 45.69 185.475 45.69 173.08V130.16C45.69 117.58 45.135 92.975 37.92 88.72C37.92 88.165 37.92 87.61 37.92 87.055C41.62 87.055 65.115 87.055 68.445 87.055C71.775 87.055 72.515 87.055 76.215 87.055C76.215 87.61 76.215 88.165 76.215 88.72C69 92.975 68.445 117.58 68.445 130.16V150.88H135.785V130.16C135.785 117.58 135.23 92.975 128.015 88.72C128.015 88.165 128.015 87.61 128.015 87.055Z" fill="black"/>
<path d="M586.79 169.01C598.445 188.99 613.8 209.525 621.94 214.52C621.94 214.89 621.94 215.63 621.94 216C618.24 216 594.745 216 591.415 216C588.085 216 581.795 216 578.095 216C578.095 215.63 578.095 214.89 578.095 214.52C586.235 209.525 579.39 195.465 564.035 168.825L560.89 163.645C556.265 164.015 551.27 164.2 545.72 164.2H524.445V173.08C524.445 185.475 525 210.08 532.215 214.52C532.215 214.89 532.215 215.63 532.215 216C528.515 216 505.02 216 501.69 216C498.36 216 497.62 216 493.92 216C493.92 215.63 493.92 214.89 493.92 214.52C501.135 210.08 501.69 185.475 501.69 173.08V130.16C501.69 117.58 501.135 92.975 493.92 88.72C493.92 88.165 493.92 87.61 493.92 87.055C497.62 87.055 498.36 87.055 501.69 87.055C524.445 87.055 534.805 84.465 551.64 84.465C603.07 84.465 615.835 109.07 615.835 124.425C615.835 136.08 610.1 152.73 581.61 160.315L586.79 169.01ZM545.72 162.72C587.9 162.72 593.265 135.525 593.265 124.425C593.265 113.325 587.53 86.13 551.64 86.13C536.84 86.13 524.445 92.605 524.445 102.41V162.72H545.72Z" fill="black"/>
<path d="M404.95 219.167C398.012 219.167 391.376 218.3 385.041 216.566C378.707 214.907 372.787 212.531 367.282 209.439C361.853 206.347 356.876 202.652 352.351 198.354C347.902 194.056 344.094 189.267 340.926 183.988C337.835 178.71 335.421 173.054 333.687 167.021C331.953 160.988 331.085 154.729 331.085 148.244C331.085 141.834 331.953 135.688 333.687 129.806C335.421 123.924 337.835 118.419 340.926 113.291C344.094 108.163 347.902 103.488 352.351 99.2651C356.876 95.0421 361.853 91.4601 367.282 88.5191C372.787 85.5027 378.707 83.165 385.041 81.506C391.376 79.847 398.012 79.0174 404.95 79.0174C415.356 79.0174 425.046 80.8273 434.02 84.447C442.994 88.0667 450.761 93.006 457.322 99.2651C463.958 105.524 469.161 112.877 472.932 121.323C476.778 129.693 478.701 138.667 478.701 148.244C478.701 154.729 477.833 160.988 476.099 167.021C474.365 173.054 471.914 178.71 468.747 183.988C465.655 189.267 461.884 194.056 457.435 198.354C452.986 202.652 448.009 206.347 442.504 209.439C437.074 212.531 431.192 214.907 424.858 216.566C418.523 218.3 411.887 219.167 404.95 219.167ZM404.95 212.493C412.566 212.493 419.315 210.91 425.197 207.743C431.079 204.5 436.019 200.013 440.015 194.282C444.087 188.551 447.142 181.764 449.178 173.921C451.289 166.078 452.345 157.519 452.345 148.244C452.345 139.044 451.289 130.636 449.178 123.019C447.142 115.327 444.087 108.729 440.015 103.224C436.019 97.6438 431.079 93.3077 425.197 90.2158C419.315 87.124 412.566 85.5781 404.95 85.5781C397.107 85.5781 390.207 87.124 384.249 90.2158C378.367 93.3077 373.428 97.6438 369.431 103.224C365.435 108.729 362.418 115.327 360.382 123.019C358.421 130.636 357.441 139.044 357.441 148.244C357.441 157.519 358.421 166.078 360.382 173.921C362.418 181.764 365.435 188.551 369.431 194.282C373.428 200.013 378.367 204.5 384.249 207.743C390.207 210.91 397.107 212.493 404.95 212.493Z" fill="#86215D"/>
</g>
<defs>
<linearGradient id="paint0_linear_5069_11898" x1="441.824" y1="206.955" x2="446.06" y2="212.735" gradientUnits="userSpaceOnUse">
<stop stop-color="#4B1439"/>
<stop offset="1" stop-color="#A72771"/>
</linearGradient>
<linearGradient id="paint1_linear_5069_11898" x1="445.831" y1="212.02" x2="491.341" y2="267.813" gradientUnits="userSpaceOnUse">
<stop stop-color="#4B1439"/>
<stop offset="1" stop-color="#A72771"/>
</linearGradient>
<clipPath id="clip0_5069_11898">
<rect width="639" height="311" fill="white"/>
</clipPath>
</defs>
</svg>
