<svg xmlns="http://www.w3.org/2000/svg" xmlns:xlink="http://www.w3.org/1999/xlink" width="2000" zoomAndPan="magnify" viewBox="0 0 1500 1499.999933" height="2000" preserveAspectRatio="xMidYMid meet" version="1.0"><defs><g/><clipPath id="6ceca6dafa"><path d="M 361 107 L 400.679688 107 L 400.679688 162 L 361 162 Z M 361 107 " clip-rule="nonzero"/></clipPath><clipPath id="be446b0ec5"><rect x="0" width="401" y="0" height="182"/></clipPath><clipPath id="5806d0c614"><rect x="0" width="706" y="0" height="467"/></clipPath></defs><g transform="matrix(1, 0, 0, 1, 325, 515)"><g clip-path="url(#5806d0c614)"><path fill="#ffa300" d="M 145.050781 116.664062 C 161.554688 42.304688 118.1875 67.96875 104.488281 134.78125 C 99.230469 117.757812 84.832031 103.71875 65.582031 99.246094 C 37.3125 92.683594 9.3125 109.234375 3.046875 136.21875 C -3.21875 163.207031 14.617188 190.402344 42.882812 196.96875 C 66.410156 202.433594 89.734375 191.878906 100.515625 172.636719 C 100.304688 192.757812 103.003906 214.878906 110.082031 238.035156 C 124.304688 284.585938 156.574219 334.132812 229.367188 360.226562 C 229.367188 360.226562 104.152344 300.953125 145.050781 116.664062 " fill-opacity="1" fill-rule="nonzero"/><path fill="#fc0000" d="M 70.71875 249.695312 C 13.546875 158.023438 -11.429688 262.109375 78.972656 341.328125 C 59.210938 338.617188 38.070312 345.632812 23.082031 361.917969 C -0.6875 387.75 0.03125 427.082031 24.683594 449.773438 C 49.34375 472.472656 88.601562 469.925781 112.371094 444.09375 C 131.304688 423.519531 134.691406 394.394531 122.832031 371.917969 C 127.996094 374.769531 133.367188 377.527344 138.980469 380.171875 C 195.65625 406.878906 274.882812 420.816406 378.164062 381.039062 C 378.164062 381.039062 187.835938 437.5 70.71875 249.695312 " fill-opacity="1" fill-rule="nonzero"/><path fill="#86c100" d="M 234.46875 64.367188 C 244.960938 48.988281 242.75 27.335938 228.332031 13.308594 C 212.269531 -2.316406 187.160156 -2.558594 172.246094 12.773438 C 157.332031 28.097656 158.261719 53.195312 174.316406 68.816406 C 185.027344 79.238281 199.765625 82.808594 212.816406 79.484375 C 201.519531 88.777344 190.484375 100.28125 180.589844 114.304688 C 157.699219 146.761719 141.914062 192.351562 161.511719 252.324219 C 161.511719 252.324219 137.070312 141.964844 276.316406 76.125 C 336.167969 47.828125 288.878906 32.519531 234.46875 64.367188 " fill-opacity="1" fill-rule="nonzero"/><path fill="#00a5e2" d="M 378.109375 94.097656 C 394.480469 93.011719 408.292969 79.695312 410.183594 62.066406 C 412.28125 42.433594 398.789062 24.890625 380.046875 22.890625 C 361.308594 20.886719 344.414062 35.179688 342.3125 54.8125 C 340.917969 67.914062 346.457031 80.070312 355.867188 87.316406 C 343.277344 84.53125 329.296875 83.136719 314.191406 83.90625 C 279.234375 85.691406 239.042969 99.539062 208.121094 145.753906 C 208.121094 145.753906 271.34375 68.777344 392.730469 129.507812 C 444.90625 155.605469 429.789062 114.5 378.109375 94.097656 " fill-opacity="1" fill-rule="nonzero"/><g transform="matrix(1, 0, 0, 1, 242, 144)"><g clip-path="url(#be446b0ec5)"><g fill="#192850" fill-opacity="1"><g transform="translate(0.888207, 74.69409)"><g><path d="M 5.765625 -7.59375 L 5.765625 -46.484375 C 5.816406 -48.546875 6.382812 -50.179688 7.46875 -51.390625 C 8.550781 -52.597656 10.015625 -53.203125 11.859375 -53.203125 C 13.703125 -53.203125 15.164062 -52.582031 16.25 -51.34375 C 17.332031 -50.113281 17.875 -48.492188 17.875 -46.484375 L 17.875 -32.34375 L 37.546875 -32.34375 L 37.546875 -46.484375 C 37.546875 -48.546875 38.085938 -50.179688 39.171875 -51.390625 C 40.253906 -52.597656 41.71875 -53.203125 43.5625 -53.203125 C 45.40625 -53.203125 46.878906 -52.582031 47.984375 -51.34375 C 49.097656 -50.113281 49.65625 -48.492188 49.65625 -46.484375 L 49.65625 -6.25 C 49.550781 -4.1875 48.96875 -2.535156 47.90625 -1.296875 C 46.851562 -0.0664062 45.40625 0.546875 43.5625 0.546875 C 41.71875 0.546875 40.253906 -0.0820312 39.171875 -1.34375 C 38.085938 -2.601562 37.546875 -4.238281 37.546875 -6.25 L 37.546875 -21.265625 L 17.875 -21.265625 L 17.875 -6.25 C 17.875 -4.1875 17.332031 -2.535156 16.25 -1.296875 C 15.164062 -0.0664062 13.703125 0.546875 11.859375 0.546875 C 10.015625 0.546875 8.535156 -0.0820312 7.421875 -1.34375 C 6.316406 -2.601562 5.765625 -4.238281 5.765625 -6.25 Z M 5.765625 -7.59375 "/></g></g></g><g fill="#192850" fill-opacity="1"><g transform="translate(52.987796, 74.69409)"><g><path d="M 4.1875 -45.140625 L 4.1875 -46.484375 C 4.1875 -48.546875 4.726562 -50.179688 5.8125 -51.390625 C 6.894531 -52.597656 8.359375 -53.203125 10.203125 -53.203125 C 12.046875 -53.203125 13.519531 -52.582031 14.625 -51.34375 C 15.726562 -50.113281 16.28125 -48.492188 16.28125 -46.484375 L 16.28125 -20.5625 C 16.28125 -19.1875 16.515625 -17.914062 16.984375 -16.75 C 17.460938 -15.59375 18.109375 -14.59375 18.921875 -13.75 C 19.742188 -12.90625 20.722656 -12.234375 21.859375 -11.734375 C 22.992188 -11.234375 24.21875 -10.984375 25.53125 -10.984375 C 27.0625 -10.984375 28.5 -11.335938 29.84375 -12.046875 C 31.1875 -12.765625 32.28125 -13.726562 33.125 -14.9375 C 33.707031 -15.78125 34.128906 -16.632812 34.390625 -17.5 C 34.648438 -18.375 34.78125 -19.5 34.78125 -20.875 L 34.78125 -46.484375 C 34.832031 -48.546875 35.398438 -50.179688 36.484375 -51.390625 C 37.566406 -52.597656 39.003906 -53.203125 40.796875 -53.203125 C 42.640625 -53.203125 44.113281 -52.582031 45.21875 -51.34375 C 46.332031 -50.113281 46.890625 -48.492188 46.890625 -46.484375 L 46.890625 -20.875 C 46.890625 -17.8125 46.347656 -14.960938 45.265625 -12.328125 C 44.179688 -9.691406 42.691406 -7.398438 40.796875 -5.453125 C 38.898438 -3.503906 36.660156 -1.972656 34.078125 -0.859375 C 31.492188 0.242188 28.695312 0.796875 25.6875 0.796875 C 22.6875 0.796875 19.878906 0.242188 17.265625 -0.859375 C 14.660156 -1.972656 12.382812 -3.488281 10.4375 -5.40625 C 8.488281 -7.332031 6.957031 -9.597656 5.84375 -12.203125 C 4.738281 -14.816406 4.1875 -17.601562 4.1875 -20.5625 Z M 4.1875 -45.140625 "/></g></g></g><g fill="#192850" fill-opacity="1"><g transform="translate(100.818218, 74.69409)"><g><path d="M 19.765625 -27.28125 L 14.78125 -6.171875 L 14.46875 -4.90625 C 13.570312 -1.375 11.539062 0.390625 8.375 0.390625 C 6.6875 0.390625 5.273438 -0.171875 4.140625 -1.296875 C 3.015625 -2.429688 2.453125 -3.84375 2.453125 -5.53125 C 2.453125 -5.851562 2.460938 -6.207031 2.484375 -6.59375 C 2.515625 -6.988281 2.582031 -7.347656 2.6875 -7.671875 L 3 -8.9375 L 12.25 -48.15625 C 12.625 -49.726562 13.320312 -50.960938 14.34375 -51.859375 C 15.375 -52.753906 16.578125 -53.203125 17.953125 -53.203125 C 20.585938 -53.203125 22.484375 -51.675781 23.640625 -48.625 L 32.171875 -25.140625 L 40.40625 -47.90625 C 41.082031 -49.75 41.882812 -51.09375 42.8125 -51.9375 C 43.738281 -52.78125 44.882812 -53.203125 46.25 -53.203125 C 47.726562 -53.203125 48.976562 -52.738281 50 -51.8125 C 51.03125 -50.894531 51.757812 -49.59375 52.1875 -47.90625 L 61.75 -9.015625 L 62.0625 -7.75 C 62.21875 -6.957031 62.296875 -6.164062 62.296875 -5.375 C 62.296875 -3.789062 61.71875 -2.429688 60.5625 -1.296875 C 59.40625 -0.171875 58.007812 0.390625 56.375 0.390625 C 54.84375 0.390625 53.550781 -0.0546875 52.5 -0.953125 C 51.445312 -1.847656 50.707031 -3.140625 50.28125 -4.828125 L 49.96875 -6.171875 L 44.828125 -27.28125 L 37.796875 -4.671875 L 37.390625 -3.5625 C 36.972656 -2.289062 36.300781 -1.300781 35.375 -0.59375 C 34.457031 0.113281 33.414062 0.46875 32.25 0.46875 C 29.613281 0.46875 27.769531 -1.242188 26.71875 -4.671875 Z M 19.765625 -27.28125 "/></g></g></g><g fill="#192850" fill-opacity="1"><g transform="translate(162.246719, 74.69409)"><g><path d="M 37.15625 -5.0625 L 35.34375 -9.015625 L 14.15625 -9.015625 L 12.484375 -5.140625 L 12.015625 -3.953125 C 10.703125 -1.109375 8.726562 0.3125 6.09375 0.3125 C 4.457031 0.3125 3.03125 -0.25 1.8125 -1.375 C 0.601562 -2.507812 0 -3.867188 0 -5.453125 C 0 -6.453125 0.289062 -7.585938 0.875 -8.859375 L 1.421875 -10.046875 L 18.890625 -49.171875 C 20.003906 -51.648438 21.929688 -52.890625 24.671875 -52.890625 C 25.929688 -52.890625 27.070312 -52.570312 28.09375 -51.9375 C 29.125 -51.3125 29.90625 -50.390625 30.4375 -49.171875 L 48.390625 -10.203125 C 48.960938 -8.929688 49.328125 -8.003906 49.484375 -7.421875 C 49.648438 -6.847656 49.734375 -6.191406 49.734375 -5.453125 C 49.734375 -3.867188 49.125 -2.5 47.90625 -1.34375 C 46.695312 -0.1875 45.273438 0.390625 43.640625 0.390625 C 40.953125 0.390625 38.976562 -1.003906 37.71875 -3.796875 Z M 31.15625 -19.453125 L 24.75 -34.625 L 18.5 -19.453125 Z M 31.15625 -19.453125 "/></g></g></g><g fill="#192850" fill-opacity="1"><g transform="translate(208.575033, 74.69409)"><g><path d="M 17.875 -30.59375 L 17.875 -6.25 C 17.875 -4.1875 17.332031 -2.535156 16.25 -1.296875 C 15.164062 -0.0664062 13.703125 0.546875 11.859375 0.546875 C 10.015625 0.546875 8.535156 -0.0820312 7.421875 -1.34375 C 6.316406 -2.601562 5.765625 -4.238281 5.765625 -6.25 L 5.765625 -46.171875 C 5.765625 -47.328125 5.832031 -48.207031 5.96875 -48.8125 C 6.101562 -49.425781 6.378906 -50.019531 6.796875 -50.59375 C 7.953125 -52.332031 9.535156 -53.203125 11.546875 -53.203125 C 12.648438 -53.203125 13.609375 -52.960938 14.421875 -52.484375 C 15.242188 -52.015625 16.179688 -51.097656 17.234375 -49.734375 L 39.375 -21.828125 L 39.375 -46.484375 C 39.425781 -48.546875 39.988281 -50.179688 41.0625 -51.390625 C 42.144531 -52.597656 43.582031 -53.203125 45.375 -53.203125 C 47.226562 -53.203125 48.707031 -52.582031 49.8125 -51.34375 C 50.914062 -50.113281 51.46875 -48.492188 51.46875 -46.484375 L 51.46875 -7.1875 C 51.46875 -5.71875 51.414062 -4.648438 51.3125 -3.984375 C 51.207031 -3.328125 50.941406 -2.710938 50.515625 -2.140625 C 49.941406 -1.242188 49.164062 -0.53125 48.1875 0 C 47.207031 0.53125 46.164062 0.796875 45.0625 0.796875 C 43.957031 0.796875 43.019531 0.539062 42.25 0.03125 C 41.488281 -0.46875 40.53125 -1.476562 39.375 -3 Z M 17.875 -30.59375 "/></g></g></g><g fill="#192850" fill-opacity="1"><g transform="translate(0.888207, 160.670206)"><g><path d="M 17.875 -15.09375 L 17.875 -6.25 C 17.875 -4.1875 17.332031 -2.535156 16.25 -1.296875 C 15.164062 -0.0664062 13.703125 0.546875 11.859375 0.546875 C 10.015625 0.546875 8.535156 -0.0820312 7.421875 -1.34375 C 6.316406 -2.601562 5.765625 -4.238281 5.765625 -6.25 L 5.765625 -45.703125 C 5.867188 -50.390625 8.21875 -52.734375 12.8125 -52.734375 L 22.375 -52.734375 C 25.488281 -52.734375 28.070312 -52.484375 30.125 -51.984375 C 32.175781 -51.484375 34.046875 -50.679688 35.734375 -49.578125 C 38.472656 -47.785156 40.632812 -45.453125 42.21875 -42.578125 C 43.800781 -39.703125 44.59375 -36.679688 44.59375 -33.515625 C 44.59375 -29.828125 43.550781 -26.640625 41.46875 -23.953125 C 39.382812 -21.265625 36.421875 -19.238281 32.578125 -17.875 L 41.59375 -11.3125 C 43.800781 -9.625 44.90625 -7.75 44.90625 -5.6875 C 44.90625 -4 44.335938 -2.550781 43.203125 -1.34375 C 42.066406 -0.132812 40.660156 0.46875 38.984375 0.46875 C 37.660156 0.46875 36.257812 -0.109375 34.78125 -1.265625 Z M 22.453125 -25.53125 C 24.242188 -25.53125 25.625 -25.625 26.59375 -25.8125 C 27.570312 -26 28.429688 -26.300781 29.171875 -26.71875 C 30.328125 -27.457031 31.234375 -28.421875 31.890625 -29.609375 C 32.554688 -30.796875 32.890625 -32.070312 32.890625 -33.4375 C 32.890625 -34.96875 32.476562 -36.363281 31.65625 -37.625 C 30.84375 -38.894531 29.753906 -39.875 28.390625 -40.5625 C 28.015625 -40.71875 27.65625 -40.847656 27.3125 -40.953125 C 26.96875 -41.054688 26.582031 -41.132812 26.15625 -41.1875 C 25.738281 -41.238281 25.210938 -41.273438 24.578125 -41.296875 C 23.953125 -41.328125 23.164062 -41.34375 22.21875 -41.34375 L 17.875 -41.34375 L 17.875 -25.53125 Z M 22.453125 -25.53125 "/></g></g></g><g fill="#192850" fill-opacity="1"><g transform="translate(44.607591, 160.670206)"><g><path d="M 12.8125 0 C 8.113281 -0.101562 5.765625 -2.445312 5.765625 -7.03125 L 5.765625 -45.703125 C 5.867188 -50.390625 8.21875 -52.734375 12.8125 -52.734375 L 34.78125 -52.734375 C 36.625 -52.679688 38.097656 -52.164062 39.203125 -51.1875 C 40.316406 -50.21875 40.875 -48.890625 40.875 -47.203125 C 40.875 -45.515625 40.316406 -44.171875 39.203125 -43.171875 C 38.097656 -42.171875 36.625 -41.671875 34.78125 -41.671875 L 17.875 -41.671875 L 17.875 -31.859375 L 31.3125 -31.859375 C 33 -31.804688 34.351562 -31.34375 35.375 -30.46875 C 36.40625 -29.601562 36.921875 -28.40625 36.921875 -26.875 C 36.921875 -25.351562 36.40625 -24.128906 35.375 -23.203125 C 34.351562 -22.285156 33 -21.828125 31.3125 -21.828125 L 17.875 -21.828125 L 17.875 -11.0625 L 35.1875 -11.0625 C 37.03125 -11.007812 38.515625 -10.492188 39.640625 -9.515625 C 40.773438 -8.546875 41.34375 -7.21875 41.34375 -5.53125 C 41.34375 -3.84375 40.773438 -2.5 39.640625 -1.5 C 38.515625 -0.5 37.03125 0 35.1875 0 Z M 12.8125 0 "/></g></g></g><g fill="#192850" fill-opacity="1"><g transform="translate(83.662516, 160.670206)"><g><path d="M 17.46875 -23.640625 C 13.46875 -24.796875 10.460938 -26.085938 8.453125 -27.515625 C 6.878906 -28.566406 5.671875 -30 4.828125 -31.8125 C 3.984375 -33.632812 3.5625 -35.707031 3.5625 -38.03125 C 3.5625 -40.289062 4.007812 -42.367188 4.90625 -44.265625 C 5.800781 -46.171875 7.050781 -47.804688 8.65625 -49.171875 C 10.257812 -50.546875 12.195312 -51.613281 14.46875 -52.375 C 16.738281 -53.144531 19.21875 -53.53125 21.90625 -53.53125 C 24.164062 -53.53125 26.3125 -53.265625 28.34375 -52.734375 C 30.375 -52.203125 32.148438 -51.472656 33.671875 -50.546875 C 35.203125 -49.628906 36.398438 -48.550781 37.265625 -47.3125 C 38.140625 -46.070312 38.578125 -44.742188 38.578125 -43.328125 C 38.578125 -41.796875 38.0625 -40.476562 37.03125 -39.375 C 36.007812 -38.269531 34.757812 -37.71875 33.28125 -37.71875 C 32.226562 -37.71875 31.226562 -38.054688 30.28125 -38.734375 C 30.175781 -38.785156 29.882812 -39.007812 29.40625 -39.40625 C 28.9375 -39.800781 28.332031 -40.289062 27.59375 -40.875 C 25.488281 -42.5625 23.429688 -43.40625 21.421875 -43.40625 C 19.785156 -43.40625 18.390625 -42.929688 17.234375 -41.984375 C 16.078125 -41.035156 15.5 -39.898438 15.5 -38.578125 C 15.5 -37.265625 15.957031 -36.238281 16.875 -35.5 C 17.800781 -34.757812 19.476562 -34.097656 21.90625 -33.515625 C 24.21875 -32.941406 26.21875 -32.378906 27.90625 -31.828125 C 29.59375 -31.273438 31.097656 -30.679688 32.421875 -30.046875 C 35.210938 -28.722656 37.332031 -26.898438 38.78125 -24.578125 C 40.226562 -22.265625 40.953125 -19.582031 40.953125 -16.53125 C 40.953125 -13.945312 40.488281 -11.597656 39.5625 -9.484375 C 38.644531 -7.378906 37.328125 -5.5625 35.609375 -4.03125 C 33.898438 -2.5 31.875 -1.3125 29.53125 -0.46875 C 27.1875 0.375 24.585938 0.796875 21.734375 0.796875 C 19.160156 0.796875 16.695312 0.453125 14.34375 -0.234375 C 12 -0.921875 9.941406 -1.859375 8.171875 -3.046875 C 6.410156 -4.234375 5.003906 -5.601562 3.953125 -7.15625 C 2.898438 -8.707031 2.375 -10.328125 2.375 -12.015625 C 2.375 -12.804688 2.515625 -13.546875 2.796875 -14.234375 C 3.085938 -14.921875 3.484375 -15.523438 3.984375 -16.046875 C 4.492188 -16.578125 5.078125 -17 5.734375 -17.3125 C 6.390625 -17.625 7.085938 -17.78125 7.828125 -17.78125 C 8.929688 -17.78125 9.957031 -17.554688 10.90625 -17.109375 C 11.851562 -16.660156 12.988281 -15.859375 14.3125 -14.703125 C 15.84375 -13.285156 17.265625 -12.257812 18.578125 -11.625 C 19.898438 -10.988281 21.242188 -10.671875 22.609375 -10.671875 C 24.398438 -10.671875 25.890625 -11.210938 27.078125 -12.296875 C 28.265625 -13.378906 28.859375 -14.734375 28.859375 -16.359375 C 28.859375 -17.734375 28.367188 -18.878906 27.390625 -19.796875 C 26.421875 -20.722656 24.851562 -21.503906 22.6875 -22.140625 Z M 17.46875 -23.640625 "/></g></g></g><g fill="#192850" fill-opacity="1"><g transform="translate(123.666149, 160.670206)"><g><path d="M 29.484375 -53.53125 C 32.960938 -53.53125 36.390625 -52.816406 39.765625 -51.390625 C 43.140625 -49.960938 46.171875 -47.957031 48.859375 -45.375 C 51.441406 -42.90625 53.414062 -40.019531 54.78125 -36.71875 C 56.15625 -33.425781 56.84375 -29.9375 56.84375 -26.25 C 56.84375 -22.507812 56.128906 -19.003906 54.703125 -15.734375 C 53.285156 -12.460938 51.335938 -9.601562 48.859375 -7.15625 C 46.378906 -4.707031 43.492188 -2.769531 40.203125 -1.34375 C 36.910156 0.0820312 33.390625 0.796875 29.640625 0.796875 C 25.847656 0.796875 22.304688 0.0820312 19.015625 -1.34375 C 15.722656 -2.769531 12.835938 -4.707031 10.359375 -7.15625 C 7.878906 -9.601562 5.925781 -12.472656 4.5 -15.765625 C 3.082031 -19.066406 2.375 -22.585938 2.375 -26.328125 C 2.375 -30.066406 3.082031 -33.597656 4.5 -36.921875 C 5.925781 -40.242188 7.863281 -43.128906 10.3125 -45.578125 C 12.769531 -48.023438 15.644531 -49.960938 18.9375 -51.390625 C 22.226562 -52.816406 25.742188 -53.53125 29.484375 -53.53125 Z M 29.640625 -41.5 C 27.585938 -41.5 25.625 -41.09375 23.75 -40.28125 C 21.882812 -39.46875 20.265625 -38.375 18.890625 -37 C 17.523438 -35.632812 16.429688 -34.015625 15.609375 -32.140625 C 14.796875 -30.265625 14.390625 -28.300781 14.390625 -26.25 C 14.390625 -24.195312 14.785156 -22.242188 15.578125 -20.390625 C 16.367188 -18.546875 17.460938 -16.9375 18.859375 -15.5625 C 20.253906 -14.195312 21.875 -13.117188 23.71875 -12.328125 C 25.5625 -11.535156 27.535156 -11.140625 29.640625 -11.140625 C 31.753906 -11.140625 33.71875 -11.535156 35.53125 -12.328125 C 37.351562 -13.117188 38.945312 -14.195312 40.3125 -15.5625 C 41.6875 -16.9375 42.769531 -18.535156 43.5625 -20.359375 C 44.351562 -22.179688 44.75 -24.144531 44.75 -26.25 C 44.75 -28.351562 44.351562 -30.328125 43.5625 -32.171875 C 42.769531 -34.023438 41.6875 -35.632812 40.3125 -37 C 38.945312 -38.375 37.34375 -39.46875 35.5 -40.28125 C 33.65625 -41.09375 31.703125 -41.5 29.640625 -41.5 Z M 29.640625 -41.5 "/></g></g></g><g fill="#192850" fill-opacity="1"><g transform="translate(179.560549, 160.670206)"><g><path d="M 4.1875 -45.140625 L 4.1875 -46.484375 C 4.1875 -48.546875 4.726562 -50.179688 5.8125 -51.390625 C 6.894531 -52.597656 8.359375 -53.203125 10.203125 -53.203125 C 12.046875 -53.203125 13.519531 -52.582031 14.625 -51.34375 C 15.726562 -50.113281 16.28125 -48.492188 16.28125 -46.484375 L 16.28125 -20.5625 C 16.28125 -19.1875 16.515625 -17.914062 16.984375 -16.75 C 17.460938 -15.59375 18.109375 -14.59375 18.921875 -13.75 C 19.742188 -12.90625 20.722656 -12.234375 21.859375 -11.734375 C 22.992188 -11.234375 24.21875 -10.984375 25.53125 -10.984375 C 27.0625 -10.984375 28.5 -11.335938 29.84375 -12.046875 C 31.1875 -12.765625 32.28125 -13.726562 33.125 -14.9375 C 33.707031 -15.78125 34.128906 -16.632812 34.390625 -17.5 C 34.648438 -18.375 34.78125 -19.5 34.78125 -20.875 L 34.78125 -46.484375 C 34.832031 -48.546875 35.398438 -50.179688 36.484375 -51.390625 C 37.566406 -52.597656 39.003906 -53.203125 40.796875 -53.203125 C 42.640625 -53.203125 44.113281 -52.582031 45.21875 -51.34375 C 46.332031 -50.113281 46.890625 -48.492188 46.890625 -46.484375 L 46.890625 -20.875 C 46.890625 -17.8125 46.347656 -14.960938 45.265625 -12.328125 C 44.179688 -9.691406 42.691406 -7.398438 40.796875 -5.453125 C 38.898438 -3.503906 36.660156 -1.972656 34.078125 -0.859375 C 31.492188 0.242188 28.695312 0.796875 25.6875 0.796875 C 22.6875 0.796875 19.878906 0.242188 17.265625 -0.859375 C 14.660156 -1.972656 12.382812 -3.488281 10.4375 -5.40625 C 8.488281 -7.332031 6.957031 -9.597656 5.84375 -12.203125 C 4.738281 -14.816406 4.1875 -17.601562 4.1875 -20.5625 Z M 4.1875 -45.140625 "/></g></g></g><g fill="#192850" fill-opacity="1"><g transform="translate(227.390964, 160.670206)"><g><path d="M 17.875 -15.09375 L 17.875 -6.25 C 17.875 -4.1875 17.332031 -2.535156 16.25 -1.296875 C 15.164062 -0.0664062 13.703125 0.546875 11.859375 0.546875 C 10.015625 0.546875 8.535156 -0.0820312 7.421875 -1.34375 C 6.316406 -2.601562 5.765625 -4.238281 5.765625 -6.25 L 5.765625 -45.703125 C 5.867188 -50.390625 8.21875 -52.734375 12.8125 -52.734375 L 22.375 -52.734375 C 25.488281 -52.734375 28.070312 -52.484375 30.125 -51.984375 C 32.175781 -51.484375 34.046875 -50.679688 35.734375 -49.578125 C 38.472656 -47.785156 40.632812 -45.453125 42.21875 -42.578125 C 43.800781 -39.703125 44.59375 -36.679688 44.59375 -33.515625 C 44.59375 -29.828125 43.550781 -26.640625 41.46875 -23.953125 C 39.382812 -21.265625 36.421875 -19.238281 32.578125 -17.875 L 41.59375 -11.3125 C 43.800781 -9.625 44.90625 -7.75 44.90625 -5.6875 C 44.90625 -4 44.335938 -2.550781 43.203125 -1.34375 C 42.066406 -0.132812 40.660156 0.46875 38.984375 0.46875 C 37.660156 0.46875 36.257812 -0.109375 34.78125 -1.265625 Z M 22.453125 -25.53125 C 24.242188 -25.53125 25.625 -25.625 26.59375 -25.8125 C 27.570312 -26 28.429688 -26.300781 29.171875 -26.71875 C 30.328125 -27.457031 31.234375 -28.421875 31.890625 -29.609375 C 32.554688 -30.796875 32.890625 -32.070312 32.890625 -33.4375 C 32.890625 -34.96875 32.476562 -36.363281 31.65625 -37.625 C 30.84375 -38.894531 29.753906 -39.875 28.390625 -40.5625 C 28.015625 -40.71875 27.65625 -40.847656 27.3125 -40.953125 C 26.96875 -41.054688 26.582031 -41.132812 26.15625 -41.1875 C 25.738281 -41.238281 25.210938 -41.273438 24.578125 -41.296875 C 23.953125 -41.328125 23.164062 -41.34375 22.21875 -41.34375 L 17.875 -41.34375 L 17.875 -25.53125 Z M 22.453125 -25.53125 "/></g></g></g><g fill="#192850" fill-opacity="1"><g transform="translate(271.110333, 160.670206)"><g><path d="M 41.109375 -16.4375 C 42.429688 -17.707031 43.9375 -18.34375 45.625 -18.34375 C 47.25 -18.34375 48.640625 -17.757812 49.796875 -16.59375 C 50.960938 -15.4375 51.546875 -14.039062 51.546875 -12.40625 C 51.546875 -10.71875 50.597656 -8.925781 48.703125 -7.03125 C 46.273438 -4.613281 43.359375 -2.703125 39.953125 -1.296875 C 36.554688 0.0976562 33.117188 0.796875 29.640625 0.796875 C 25.898438 0.796875 22.382812 0.0703125 19.09375 -1.375 C 15.800781 -2.832031 12.914062 -4.785156 10.4375 -7.234375 C 7.957031 -9.679688 5.992188 -12.550781 4.546875 -15.84375 C 3.097656 -19.144531 2.375 -22.664062 2.375 -26.40625 C 2.375 -30.144531 3.082031 -33.660156 4.5 -36.953125 C 5.925781 -40.253906 7.878906 -43.128906 10.359375 -45.578125 C 12.835938 -48.023438 15.722656 -49.960938 19.015625 -51.390625 C 22.304688 -52.816406 25.820312 -53.53125 29.5625 -53.53125 C 35.894531 -53.53125 41.644531 -51.421875 46.8125 -47.203125 C 48.332031 -45.929688 49.421875 -44.796875 50.078125 -43.796875 C 50.742188 -42.796875 51.078125 -41.691406 51.078125 -40.484375 C 51.078125 -38.847656 50.507812 -37.460938 49.375 -36.328125 C 48.238281 -35.191406 46.828125 -34.625 45.140625 -34.625 C 43.617188 -34.625 42.144531 -35.257812 40.71875 -36.53125 L 39.453125 -37.71875 C 38.128906 -38.925781 36.597656 -39.859375 34.859375 -40.515625 C 33.117188 -41.171875 31.328125 -41.5 29.484375 -41.5 C 27.429688 -41.5 25.484375 -41.101562 23.640625 -40.3125 C 21.796875 -39.53125 20.203125 -38.441406 18.859375 -37.046875 C 17.515625 -35.648438 16.445312 -34.023438 15.65625 -32.171875 C 14.863281 -30.328125 14.46875 -28.378906 14.46875 -26.328125 C 14.46875 -24.273438 14.863281 -22.320312 15.65625 -20.46875 C 16.445312 -18.625 17.539062 -17.015625 18.9375 -15.640625 C 20.332031 -14.273438 21.953125 -13.195312 23.796875 -12.40625 C 25.640625 -11.625 27.585938 -11.234375 29.640625 -11.234375 C 31.328125 -11.234375 33.039062 -11.535156 34.78125 -12.140625 C 36.519531 -12.742188 37.921875 -13.519531 38.984375 -14.46875 Z M 41.109375 -16.4375 "/></g></g></g><g fill="#192850" fill-opacity="1"><g transform="translate(320.363834, 160.670206)"><g><path d="M 12.8125 0 C 8.113281 -0.101562 5.765625 -2.445312 5.765625 -7.03125 L 5.765625 -45.703125 C 5.867188 -50.390625 8.21875 -52.734375 12.8125 -52.734375 L 34.78125 -52.734375 C 36.625 -52.679688 38.097656 -52.164062 39.203125 -51.1875 C 40.316406 -50.21875 40.875 -48.890625 40.875 -47.203125 C 40.875 -45.515625 40.316406 -44.171875 39.203125 -43.171875 C 38.097656 -42.171875 36.625 -41.671875 34.78125 -41.671875 L 17.875 -41.671875 L 17.875 -31.859375 L 31.3125 -31.859375 C 33 -31.804688 34.351562 -31.34375 35.375 -30.46875 C 36.40625 -29.601562 36.921875 -28.40625 36.921875 -26.875 C 36.921875 -25.351562 36.40625 -24.128906 35.375 -23.203125 C 34.351562 -22.285156 33 -21.828125 31.3125 -21.828125 L 17.875 -21.828125 L 17.875 -11.0625 L 35.1875 -11.0625 C 37.03125 -11.007812 38.515625 -10.492188 39.640625 -9.515625 C 40.773438 -8.546875 41.34375 -7.21875 41.34375 -5.53125 C 41.34375 -3.84375 40.773438 -2.5 39.640625 -1.5 C 38.515625 -0.5 37.03125 0 35.1875 0 Z M 12.8125 0 "/></g></g></g><g clip-path="url(#6ceca6dafa)"><g fill="#192850" fill-opacity="1"><g transform="translate(359.41875, 160.670206)"><g><path d="M 17.46875 -23.640625 C 13.46875 -24.796875 10.460938 -26.085938 8.453125 -27.515625 C 6.878906 -28.566406 5.671875 -30 4.828125 -31.8125 C 3.984375 -33.632812 3.5625 -35.707031 3.5625 -38.03125 C 3.5625 -40.289062 4.007812 -42.367188 4.90625 -44.265625 C 5.800781 -46.171875 7.050781 -47.804688 8.65625 -49.171875 C 10.257812 -50.546875 12.195312 -51.613281 14.46875 -52.375 C 16.738281 -53.144531 19.21875 -53.53125 21.90625 -53.53125 C 24.164062 -53.53125 26.3125 -53.265625 28.34375 -52.734375 C 30.375 -52.203125 32.148438 -51.472656 33.671875 -50.546875 C 35.203125 -49.628906 36.398438 -48.550781 37.265625 -47.3125 C 38.140625 -46.070312 38.578125 -44.742188 38.578125 -43.328125 C 38.578125 -41.796875 38.0625 -40.476562 37.03125 -39.375 C 36.007812 -38.269531 34.757812 -37.71875 33.28125 -37.71875 C 32.226562 -37.71875 31.226562 -38.054688 30.28125 -38.734375 C 30.175781 -38.785156 29.882812 -39.007812 29.40625 -39.40625 C 28.9375 -39.800781 28.332031 -40.289062 27.59375 -40.875 C 25.488281 -42.5625 23.429688 -43.40625 21.421875 -43.40625 C 19.785156 -43.40625 18.390625 -42.929688 17.234375 -41.984375 C 16.078125 -41.035156 15.5 -39.898438 15.5 -38.578125 C 15.5 -37.265625 15.957031 -36.238281 16.875 -35.5 C 17.800781 -34.757812 19.476562 -34.097656 21.90625 -33.515625 C 24.21875 -32.941406 26.21875 -32.378906 27.90625 -31.828125 C 29.59375 -31.273438 31.097656 -30.679688 32.421875 -30.046875 C 35.210938 -28.722656 37.332031 -26.898438 38.78125 -24.578125 C 40.226562 -22.265625 40.953125 -19.582031 40.953125 -16.53125 C 40.953125 -13.945312 40.488281 -11.597656 39.5625 -9.484375 C 38.644531 -7.378906 37.328125 -5.5625 35.609375 -4.03125 C 33.898438 -2.5 31.875 -1.3125 29.53125 -0.46875 C 27.1875 0.375 24.585938 0.796875 21.734375 0.796875 C 19.160156 0.796875 16.695312 0.453125 14.34375 -0.234375 C 12 -0.921875 9.941406 -1.859375 8.171875 -3.046875 C 6.410156 -4.234375 5.003906 -5.601562 3.953125 -7.15625 C 2.898438 -8.707031 2.375 -10.328125 2.375 -12.015625 C 2.375 -12.804688 2.515625 -13.546875 2.796875 -14.234375 C 3.085938 -14.921875 3.484375 -15.523438 3.984375 -16.046875 C 4.492188 -16.578125 5.078125 -17 5.734375 -17.3125 C 6.390625 -17.625 7.085938 -17.78125 7.828125 -17.78125 C 8.929688 -17.78125 9.957031 -17.554688 10.90625 -17.109375 C 11.851562 -16.660156 12.988281 -15.859375 14.3125 -14.703125 C 15.84375 -13.285156 17.265625 -12.257812 18.578125 -11.625 C 19.898438 -10.988281 21.242188 -10.671875 22.609375 -10.671875 C 24.398438 -10.671875 25.890625 -11.210938 27.078125 -12.296875 C 28.265625 -13.378906 28.859375 -14.734375 28.859375 -16.359375 C 28.859375 -17.734375 28.367188 -18.878906 27.390625 -19.796875 C 26.421875 -20.722656 24.851562 -21.503906 22.6875 -22.140625 Z M 17.46875 -23.640625 "/></g></g></g></g></g></g><g fill="#192850" fill-opacity="1"><g transform="translate(648.111844, 316.626939)"><g><path d="M 2.3125 -7.296875 C 2.695312 -7.296875 3.054688 -7.175781 3.390625 -6.9375 C 3.734375 -6.707031 3.914062 -6.390625 3.9375 -5.984375 C 4.039062 -5.054688 4.304688 -4.359375 4.734375 -3.890625 C 5.171875 -3.429688 5.691406 -3.125 6.296875 -2.96875 C 6.898438 -2.820312 7.503906 -2.75 8.109375 -2.75 C 9.234375 -2.75 10.140625 -3.128906 10.828125 -3.890625 C 11.515625 -4.660156 11.859375 -5.644531 11.859375 -6.84375 C 11.859375 -7.863281 11.566406 -8.710938 10.984375 -9.390625 C 10.398438 -10.078125 9.664062 -10.421875 8.78125 -10.421875 C 8.351562 -10.421875 7.984375 -10.328125 7.671875 -10.140625 C 7.222656 -9.867188 6.785156 -9.78125 6.359375 -9.875 C 5.941406 -9.96875 5.597656 -10.171875 5.328125 -10.484375 C 5.066406 -10.804688 4.9375 -11.171875 4.9375 -11.578125 C 4.9375 -12.035156 5.128906 -12.457031 5.515625 -12.84375 L 9.546875 -16.578125 L 2.828125 -16.578125 C 2.253906 -16.578125 1.832031 -16.734375 1.5625 -17.046875 C 1.300781 -17.367188 1.171875 -17.71875 1.171875 -18.09375 C 1.171875 -18.476562 1.300781 -18.828125 1.5625 -19.140625 C 1.832031 -19.460938 2.253906 -19.625 2.828125 -19.625 L 13.125 -19.625 C 13.65625 -19.625 14.101562 -19.460938 14.46875 -19.140625 C 14.84375 -18.828125 15.03125 -18.445312 15.03125 -18 C 15.03125 -17.832031 14.957031 -17.617188 14.8125 -17.359375 C 14.675781 -17.109375 14.503906 -16.878906 14.296875 -16.671875 C 13.640625 -16.078125 12.960938 -15.46875 12.265625 -14.84375 C 11.566406 -14.226562 10.867188 -13.625 10.171875 -13.03125 C 11.316406 -12.925781 12.269531 -12.570312 13.03125 -11.96875 C 13.789062 -11.363281 14.363281 -10.613281 14.75 -9.71875 C 15.144531 -8.820312 15.34375 -7.875 15.34375 -6.875 C 15.34375 -5.476562 15.039062 -4.234375 14.4375 -3.140625 C 13.832031 -2.054688 12.988281 -1.207031 11.90625 -0.59375 C 10.832031 0.0078125 9.578125 0.3125 8.140625 0.3125 C 6.878906 0.3125 5.695312 0.128906 4.59375 -0.234375 C 3.5 -0.609375 2.59375 -1.226562 1.875 -2.09375 C 1.15625 -2.957031 0.710938 -4.109375 0.546875 -5.546875 C 0.566406 -6.054688 0.757812 -6.472656 1.125 -6.796875 C 1.5 -7.128906 1.894531 -7.296875 2.3125 -7.296875 Z M 2.3125 -7.296875 "/></g></g></g><g fill="#192850" fill-opacity="1"><g transform="translate(667.516429, 316.626939)"><g><path d="M 8.4375 -16.890625 C 7.269531 -16.890625 6.320312 -16.492188 5.59375 -15.703125 C 4.863281 -14.910156 4.425781 -13.890625 4.28125 -12.640625 C 4.914062 -13.109375 5.613281 -13.445312 6.375 -13.65625 C 7.132812 -13.875 7.863281 -13.984375 8.5625 -13.984375 C 10 -13.984375 11.253906 -13.691406 12.328125 -13.109375 C 13.410156 -12.523438 14.257812 -11.707031 14.875 -10.65625 C 15.5 -9.613281 15.8125 -8.394531 15.8125 -7 C 15.8125 -5.519531 15.453125 -4.226562 14.734375 -3.125 C 14.015625 -2.03125 13.066406 -1.179688 11.890625 -0.578125 C 10.722656 0.015625 9.453125 0.3125 8.078125 0.3125 C 6.734375 0.3125 5.507812 0.03125 4.40625 -0.53125 C 3.300781 -1.101562 2.421875 -1.882812 1.765625 -2.875 C 1.117188 -3.875 0.796875 -5.007812 0.796875 -6.28125 L 0.796875 -11.703125 C 0.796875 -13.453125 1.117188 -14.9375 1.765625 -16.15625 C 2.421875 -17.382812 3.320312 -18.320312 4.46875 -18.96875 C 5.613281 -19.613281 6.9375 -19.9375 8.4375 -19.9375 C 9.550781 -19.9375 10.613281 -19.765625 11.625 -19.421875 C 12.644531 -19.085938 13.535156 -18.53125 14.296875 -17.75 C 14.503906 -17.539062 14.539062 -17.269531 14.40625 -16.9375 C 14.269531 -16.613281 14.039062 -16.3125 13.71875 -16.03125 C 13.40625 -15.757812 13.066406 -15.570312 12.703125 -15.46875 C 12.347656 -15.363281 12.054688 -15.4375 11.828125 -15.6875 C 11.398438 -16.113281 10.878906 -16.421875 10.265625 -16.609375 C 9.648438 -16.796875 9.039062 -16.890625 8.4375 -16.890625 Z M 8.109375 -2.765625 C 8.828125 -2.765625 9.5 -2.9375 10.125 -3.28125 C 10.75 -3.625 11.253906 -4.113281 11.640625 -4.75 C 12.035156 -5.382812 12.234375 -6.132812 12.234375 -7 C 12.234375 -8.144531 11.878906 -9.078125 11.171875 -9.796875 C 10.460938 -10.515625 9.53125 -10.875 8.375 -10.875 C 7.019531 -10.875 6.003906 -10.425781 5.328125 -9.53125 C 4.648438 -8.644531 4.3125 -7.5625 4.3125 -6.28125 C 4.3125 -5.195312 4.691406 -4.335938 5.453125 -3.703125 C 6.210938 -3.078125 7.097656 -2.765625 8.109375 -2.765625 Z M 8.109375 -2.765625 "/></g></g></g><g fill="#192850" fill-opacity="1"><g transform="translate(686.767011, 316.626939)"><g><path d="M 0.28125 -12.515625 C 0.28125 -14.148438 0.640625 -15.515625 1.359375 -16.609375 C 2.078125 -17.710938 3.003906 -18.539062 4.140625 -19.09375 C 5.285156 -19.65625 6.472656 -19.9375 7.703125 -19.9375 C 8.953125 -19.9375 10.144531 -19.65625 11.28125 -19.09375 C 12.425781 -18.539062 13.363281 -17.710938 14.09375 -16.609375 C 14.820312 -15.515625 15.1875 -14.148438 15.1875 -12.515625 L 15.1875 -7.15625 C 15.207031 -5.507812 14.851562 -4.128906 14.125 -3.015625 C 13.394531 -1.910156 12.453125 -1.078125 11.296875 -0.515625 C 10.148438 0.0351562 8.953125 0.3125 7.703125 0.3125 C 6.472656 0.3125 5.285156 0.0351562 4.140625 -0.515625 C 3.003906 -1.078125 2.078125 -1.910156 1.359375 -3.015625 C 0.640625 -4.128906 0.28125 -5.507812 0.28125 -7.15625 Z M 11.703125 -12.515625 C 11.703125 -13.554688 11.503906 -14.398438 11.109375 -15.046875 C 10.722656 -15.691406 10.222656 -16.164062 9.609375 -16.46875 C 8.992188 -16.769531 8.347656 -16.921875 7.671875 -16.921875 C 7.015625 -16.921875 6.382812 -16.769531 5.78125 -16.46875 C 5.175781 -16.164062 4.679688 -15.691406 4.296875 -15.046875 C 3.921875 -14.398438 3.734375 -13.554688 3.734375 -12.515625 L 3.734375 -7.15625 C 3.734375 -6.144531 3.921875 -5.3125 4.296875 -4.65625 C 4.679688 -4 5.175781 -3.507812 5.78125 -3.1875 C 6.382812 -2.875 7.015625 -2.71875 7.671875 -2.71875 C 8.347656 -2.71875 8.992188 -2.863281 9.609375 -3.15625 C 10.222656 -3.457031 10.722656 -3.9375 11.109375 -4.59375 C 11.503906 -5.25 11.703125 -6.101562 11.703125 -7.15625 Z M 11.703125 -12.515625 "/></g></g></g></g></g></svg>