<svg xmlns="http://www.w3.org/2000/svg" xmlns:xlink="http://www.w3.org/1999/xlink" width="2000" zoomAndPan="magnify" viewBox="0 0 1500 1499.999933" height="2000" preserveAspectRatio="xMidYMid meet" version="1.0"><defs><g/><clipPath id="9600bbe13c"><path d="M 471.742188 686.3125 L 725.667969 686.3125 L 725.667969 1109.433594 L 471.742188 1109.433594 Z M 471.742188 686.3125 " clip-rule="nonzero"/></clipPath><clipPath id="5742aaedeb"><path d="M 774 557.015625 L 1028.855469 557.015625 L 1028.855469 980 L 774 980 Z M 774 557.015625 " clip-rule="nonzero"/></clipPath></defs><g clip-path="url(#9600bbe13c)"><path fill="#f59924" d="M 491.722656 704.871094 C 491.722656 698.683594 491.941406 692.550781 492.332031 686.464844 C 500.53125 815.386719 594.226562 921.046875 717.34375 947.410156 L 725.273438 949.003906 L 694.851562 1100.269531 L 693.007812 1109.433594 C 565.242188 1072.792969 471.742188 955.097656 471.742188 815.550781 C 471.742188 808.933594 471.976562 802.367188 472.386719 795.859375 C 480.175781 918.320312 560.085938 1021.125 670.085938 1062.398438 L 687.445312 976.09375 C 573.746094 938.390625 491.722656 831.21875 491.722656 704.871094 " fill-opacity="1" fill-rule="nonzero"/></g><path fill="#f59924" d="M 784.914062 897.773438 L 792.578125 895.191406 L 841.867188 1041.40625 L 844.847656 1050.257812 C 801.210938 1061.136719 756.332031 1062.007812 713.339844 1053.722656 L 719.449219 1023.363281 C 746.554688 1026.222656 774.144531 1025.527344 801.488281 1020.988281 L 773.363281 937.570312 C 773.363281 937.570312 693.789062 941.265625 633.097656 904.136719 C 682.464844 915.527344 734.917969 913.9375 784.914062 897.773438 " fill-opacity="1" fill-rule="nonzero"/><path fill="#f59924" d="M 939.75 916.914062 L 946.761719 923.09375 C 914.414062 954.335938 875.976562 977.527344 834.605469 991.851562 L 824.714844 962.5 C 849.617188 951.425781 873.167969 937.027344 894.574219 919.429688 L 828.511719 861.242188 C 828.511719 861.242188 773.183594 896.605469 690.246094 902.445312 C 738.722656 887.628906 783.382812 860.019531 818.617188 821.003906 L 823.960938 814.9375 L 939.75 916.914062 " fill-opacity="1" fill-rule="nonzero"/><path fill="#f59924" d="M 598.507812 945.535156 C 584.109375 945.535156 572.4375 957.203125 572.4375 971.601562 C 572.4375 986 584.109375 997.671875 598.507812 997.671875 C 612.90625 997.671875 624.578125 986 624.578125 971.601562 C 624.578125 957.203125 612.90625 945.535156 598.507812 945.535156 " fill-opacity="1" fill-rule="nonzero"/><path fill="#f59924" d="M 751.34375 956.492188 C 739.890625 956.492188 730.601562 965.773438 730.601562 977.230469 C 730.601562 988.683594 739.890625 997.96875 751.34375 997.96875 C 762.800781 997.96875 772.082031 988.683594 772.082031 977.230469 C 772.082031 965.773438 762.800781 956.492188 751.34375 956.492188 " fill-opacity="1" fill-rule="nonzero"/><path fill="#f59924" d="M 836.371094 892.046875 C 826.613281 892.046875 818.710938 899.957031 818.710938 909.707031 C 818.710938 919.460938 826.613281 927.371094 836.371094 927.371094 C 846.125 927.371094 854.035156 919.460938 854.035156 909.707031 C 854.035156 899.957031 846.125 892.046875 836.371094 892.046875 " fill-opacity="1" fill-rule="nonzero"/><g clip-path="url(#5742aaedeb)"><path fill="#00b9e2" d="M 1008.265625 961.582031 C 1008.265625 967.765625 1008.046875 973.898438 1007.660156 979.984375 C 999.460938 851.0625 905.765625 745.402344 782.644531 719.039062 L 774.71875 717.445312 L 805.136719 566.179688 L 806.980469 557.015625 C 934.746094 593.65625 1028.25 711.351562 1028.25 850.902344 C 1028.25 857.515625 1028.015625 864.082031 1027.597656 870.589844 C 1019.816406 748.128906 939.90625 645.332031 829.898438 604.050781 L 812.546875 690.355469 C 926.242188 728.054688 1008.265625 835.230469 1008.265625 961.582031 " fill-opacity="1" fill-rule="nonzero"/></g><path fill="#00b9e2" d="M 715.074219 768.675781 L 707.410156 771.257812 L 658.125 625.042969 L 655.136719 616.191406 C 698.777344 605.3125 743.660156 604.445312 786.648438 612.726562 L 780.539062 643.085938 C 753.433594 640.226562 725.839844 640.921875 698.503906 645.460938 L 726.628906 728.878906 C 726.628906 728.878906 806.203125 725.183594 866.894531 762.316406 C 817.523438 750.917969 765.074219 752.511719 715.074219 768.675781 " fill-opacity="1" fill-rule="nonzero"/><path fill="#00b9e2" d="M 560.242188 749.535156 L 553.230469 743.355469 C 585.578125 712.113281 624.011719 688.921875 665.386719 674.597656 L 675.277344 703.949219 C 650.375 715.023438 626.824219 729.421875 605.417969 747.019531 L 671.480469 805.207031 C 671.480469 805.207031 726.808594 769.839844 809.746094 764.003906 C 761.269531 778.816406 716.609375 806.429688 681.375 845.445312 L 676.027344 851.515625 L 560.242188 749.535156 " fill-opacity="1" fill-rule="nonzero"/><path fill="#00b9e2" d="M 901.484375 720.914062 C 915.878906 720.914062 927.550781 709.246094 927.550781 694.847656 C 927.550781 680.449219 915.878906 668.777344 901.484375 668.777344 C 887.085938 668.777344 875.414062 680.449219 875.414062 694.847656 C 875.414062 709.246094 887.085938 720.914062 901.484375 720.914062 " fill-opacity="1" fill-rule="nonzero"/><path fill="#00b9e2" d="M 748.648438 709.957031 C 760.101562 709.957031 769.386719 700.675781 769.386719 689.21875 C 769.386719 677.765625 760.101562 668.480469 748.648438 668.480469 C 737.191406 668.480469 727.910156 677.765625 727.910156 689.21875 C 727.910156 700.675781 737.191406 709.957031 748.648438 709.957031 " fill-opacity="1" fill-rule="nonzero"/><path fill="#00b9e2" d="M 663.621094 774.402344 C 673.371094 774.402344 681.28125 766.492188 681.28125 756.742188 C 681.28125 746.988281 673.371094 739.078125 663.621094 739.078125 C 653.867188 739.078125 645.957031 746.988281 645.957031 756.742188 C 645.957031 766.492188 653.867188 774.402344 663.621094 774.402344 " fill-opacity="1" fill-rule="nonzero"/><g fill="#f59922" fill-opacity="1"><g transform="translate(446.858511, 709.874771)"><g><path d="M -41.671875 -56.4375 L -43.875 -51.171875 L -27.984375 -44.5 L -36.265625 -69.3125 L -39.21875 -62.296875 L -51.796875 -67.578125 L -38.1875 -100.03125 L -25.609375 -94.75 L -27.984375 -89.09375 L -21.71875 -69.84375 L 17.25 -76.671875 L 19.609375 -82.3125 L 32.28125 -77 L 16.34375 -39 L 3.671875 -44.3125 L 6.453125 -50.9375 L -14.515625 -47.359375 L -11.40625 -37.5625 L -0.984375 -33.1875 L 1.21875 -38.453125 L 13.890625 -33.140625 L 1.015625 -2.4375 L -11.65625 -7.75 L -9.453125 -13 L -52.34375 -30.984375 L -54.546875 -25.734375 L -67.125 -31.015625 L -54.25 -61.71875 Z M -41.671875 -56.4375 "/></g></g></g><g fill="#f59922" fill-opacity="1"><g transform="translate(524.458198, 572.856061)"><g><path d="M -44.015625 -59.40625 L -17.234375 -80.765625 L -8.53125 -69.859375 L -13.65625 -65.78125 L -3.703125 -53.296875 L 12 -65.8125 L 2.046875 -78.296875 L -2.828125 -74.40625 L -11.53125 -85.3125 L 15.3125 -106.734375 L 24.015625 -95.828125 L 19.234375 -92 L 47.90625 -56.046875 L 52.6875 -59.875 L 61.390625 -48.96875 L 34.546875 -27.546875 L 25.84375 -38.453125 L 30.71875 -42.34375 L 20.78125 -54.8125 L 5.078125 -42.296875 L 15.015625 -29.828125 L 20.140625 -33.90625 L 28.84375 -23 L 2.0625 -1.640625 L -6.640625 -12.546875 L -2.09375 -16.171875 L -30.765625 -52.125 L -35.3125 -48.5 Z M -44.015625 -59.40625 "/></g></g></g><g fill="#f59922" fill-opacity="1"><g transform="translate(654.733552, 492.714611)"><g><path d="M -11.953125 -72.953125 L 50.53125 -85.5 L 55.125 -62.609375 L 37.203125 -59.015625 L 35.359375 -68.234375 L 18.78125 -64.90625 L 21.65625 -50.59375 L 41.34375 -54.546875 L 44.109375 -40.765625 L 24.421875 -36.8125 L 27.8125 -19.921875 L 44.390625 -23.25 L 42.453125 -32.890625 L 60.375 -36.484375 L 65.078125 -13.0625 L 2.59375 -0.515625 L -0.171875 -14.296875 L 6.34375 -15.609375 L -2.6875 -60.59375 L -9.203125 -59.28125 Z M -11.953125 -72.953125 "/></g></g></g><g fill="#f59922" fill-opacity="1"><g transform="translate(795.817033, 481.612915)"><g><path d="M 20.984375 -70.890625 L 53.328125 -62.5625 L 49.859375 -49.0625 L 44.421875 -50.453125 L 32.96875 -6.03125 L 46.1875 -2.625 L 49.546875 -15.609375 L 66.75 -11.1875 L 59.890625 15.421875 L 2.5625 0.65625 L 6.0625 -12.96875 L 11.6875 -11.515625 L 23.140625 -55.9375 L 17.515625 -57.390625 Z M 20.984375 -70.890625 "/></g></g></g><g fill="#f59922" fill-opacity="1"><g transform="translate(923.724098, 531.263231)"><g><path d="M 49.375 -55.03125 L 75.015625 -33.625 L 66.078125 -22.921875 L 61.765625 -26.515625 L 32.375 8.703125 L 42.859375 17.453125 L 51.453125 7.15625 L 65.09375 18.53125 L 47.484375 39.625 L 2.03125 1.6875 L 11.046875 -9.109375 L 15.5 -5.375 L 44.890625 -40.59375 L 40.4375 -44.328125 Z M 49.375 -55.03125 "/></g></g></g><g fill="#f59922" fill-opacity="1"><g transform="translate(1018.767131, 629.69163)"><g><path d="M 33.125 78.71875 L 16.6875 39.65625 L 29.453125 34.28125 L 33.34375 43.53125 L 39.109375 38.703125 L 30.703125 18.734375 L 23.21875 19.46875 L 26.421875 27.078125 L 13.65625 32.453125 L 0.609375 1.453125 L 13.375 -3.921875 L 16.171875 2.703125 L 64.46875 -2.109375 L 62.78125 -6.125 L 75.359375 -11.421875 L 91.109375 26 L 43.015625 66.53125 L 45.890625 73.34375 Z M 43.90625 17.40625 L 49.28125 30.1875 L 67.625 14.890625 Z M 43.90625 17.40625 "/></g></g></g></svg>