<svg xmlns="http://www.w3.org/2000/svg" xmlns:xlink="http://www.w3.org/1999/xlink" width="2000" zoomAndPan="magnify" viewBox="0 0 1500 1499.999933" height="2000" preserveAspectRatio="xMidYMid meet" version="1.0"><defs><g/><clipPath id="28b611ccb0"><path d="M 99.90625 263.714844 L 353.664062 263.714844 L 353.664062 686.824219 L 99.90625 686.824219 Z M 99.90625 263.714844 " clip-rule="nonzero"/></clipPath><clipPath id="8e5b24e574"><path d="M 402 134.421875 L 656.839844 134.421875 L 656.839844 558 L 402 558 Z M 402 134.421875 " clip-rule="nonzero"/></clipPath><clipPath id="e295e09d24"><rect x="0" width="756" y="0" height="688"/></clipPath></defs><g transform="matrix(1, 0, 0, 1, 372, 411)"><g clip-path="url(#e295e09d24)"><g clip-path="url(#28b611ccb0)"><path fill="#6e7172" d="M 119.71875 282.273438 C 119.71875 276.085938 119.9375 269.953125 120.328125 263.867188 C 128.53125 392.785156 222.226562 498.445312 345.339844 524.804688 L 353.269531 526.398438 L 322.84375 677.660156 L 321 686.824219 C 193.238281 650.183594 99.742188 532.492188 99.742188 392.949219 C 99.742188 386.332031 99.976562 379.765625 100.386719 373.257812 C 108.175781 495.714844 188.085938 598.515625 298.082031 639.789062 L 315.441406 553.488281 C 201.742188 515.789062 119.71875 408.617188 119.71875 282.273438 " fill-opacity="1" fill-rule="nonzero"/></g><path fill="#6e7172" d="M 412.90625 475.171875 L 420.570312 472.585938 L 469.855469 618.796875 L 472.839844 627.648438 C 429.203125 638.53125 384.324219 639.398438 341.335938 631.117188 L 347.441406 600.757812 C 374.546875 603.613281 402.136719 602.921875 429.480469 598.382812 L 401.355469 514.964844 C 401.355469 514.964844 321.78125 518.660156 261.09375 481.53125 C 310.457031 492.925781 362.910156 491.332031 412.90625 475.171875 " fill-opacity="1" fill-rule="nonzero"/><path fill="#6e7172" d="M 567.738281 494.308594 L 574.75 500.488281 C 542.402344 531.730469 503.964844 554.921875 462.597656 569.246094 L 452.707031 539.894531 C 477.609375 528.820312 501.160156 514.421875 522.5625 496.824219 L 456.5 438.640625 C 456.5 438.640625 401.175781 474.003906 318.242188 479.839844 C 366.714844 465.027344 411.375 437.417969 446.609375 398.402344 L 451.949219 392.335938 L 567.738281 494.308594 " fill-opacity="1" fill-rule="nonzero"/><path fill="#6e7172" d="M 226.503906 522.929688 C 212.109375 522.929688 200.433594 534.597656 200.433594 548.996094 C 200.433594 563.390625 212.109375 575.066406 226.503906 575.066406 C 240.902344 575.066406 252.574219 563.390625 252.574219 548.996094 C 252.574219 534.597656 240.902344 522.929688 226.503906 522.929688 " fill-opacity="1" fill-rule="nonzero"/><path fill="#6e7172" d="M 379.335938 533.886719 C 367.882812 533.886719 358.59375 543.167969 358.59375 554.625 C 358.59375 566.078125 367.882812 575.363281 379.335938 575.363281 C 390.792969 575.363281 400.078125 566.078125 400.078125 554.625 C 400.078125 543.167969 390.792969 533.886719 379.335938 533.886719 " fill-opacity="1" fill-rule="nonzero"/><path fill="#6e7172" d="M 464.363281 469.441406 C 454.605469 469.441406 446.703125 477.351562 446.703125 487.105469 C 446.703125 496.855469 454.605469 504.765625 464.363281 504.765625 C 474.117188 504.765625 482.023438 496.855469 482.023438 487.105469 C 482.023438 477.351562 474.117188 469.441406 464.363281 469.441406 " fill-opacity="1" fill-rule="nonzero"/><g clip-path="url(#8e5b24e574)"><path fill="#80cc28" d="M 636.253906 538.976562 C 636.253906 545.160156 636.035156 551.292969 635.648438 557.378906 C 627.449219 428.460938 533.753906 322.800781 410.636719 296.4375 L 402.710938 294.847656 L 433.128906 143.585938 L 434.972656 134.421875 C 562.734375 171.0625 656.234375 288.753906 656.234375 428.300781 C 656.234375 434.910156 656 441.476562 655.585938 447.984375 C 647.800781 325.527344 567.894531 222.734375 457.890625 181.453125 L 440.539062 267.753906 C 554.230469 305.457031 636.253906 412.625 636.253906 538.976562 " fill-opacity="1" fill-rule="nonzero"/></g><path fill="#80cc28" d="M 343.066406 346.074219 L 335.402344 348.65625 L 286.121094 202.449219 L 283.132812 193.597656 C 326.769531 182.714844 371.652344 181.847656 414.640625 190.128906 L 408.53125 220.488281 C 381.425781 217.628906 353.835938 218.324219 326.5 222.863281 L 354.621094 306.28125 C 354.621094 306.28125 434.195312 302.582031 494.886719 339.71875 C 445.515625 328.320312 393.066406 329.914062 343.066406 346.074219 " fill-opacity="1" fill-rule="nonzero"/><path fill="#80cc28" d="M 188.242188 326.933594 L 181.226562 320.753906 C 213.578125 289.515625 252.007812 266.324219 293.378906 252 L 303.273438 281.351562 C 278.371094 292.425781 254.820312 306.820312 233.414062 324.417969 L 299.476562 382.605469 C 299.476562 382.605469 354.804688 347.242188 437.738281 341.402344 C 389.261719 356.21875 344.605469 383.828125 309.371094 422.84375 L 304.023438 428.914062 L 188.242188 326.933594 " fill-opacity="1" fill-rule="nonzero"/><path fill="#80cc28" d="M 529.472656 298.3125 C 543.871094 298.3125 555.539062 286.644531 555.539062 272.25 C 555.539062 257.851562 543.871094 246.179688 529.472656 246.179688 C 515.078125 246.179688 503.402344 257.851562 503.402344 272.25 C 503.402344 286.644531 515.078125 298.3125 529.472656 298.3125 " fill-opacity="1" fill-rule="nonzero"/><path fill="#80cc28" d="M 376.640625 287.359375 C 388.09375 287.359375 397.378906 278.074219 397.378906 266.621094 C 397.378906 255.164062 388.09375 245.882812 376.640625 245.882812 C 365.1875 245.882812 355.902344 255.164062 355.902344 266.621094 C 355.902344 278.074219 365.1875 287.359375 376.640625 287.359375 " fill-opacity="1" fill-rule="nonzero"/><path fill="#80cc28" d="M 291.613281 351.800781 C 301.367188 351.800781 309.277344 343.894531 309.277344 334.140625 C 309.277344 324.386719 301.367188 316.480469 291.613281 316.480469 C 281.863281 316.480469 273.953125 324.386719 273.953125 334.140625 C 273.953125 343.894531 281.863281 351.800781 291.613281 351.800781 " fill-opacity="1" fill-rule="nonzero"/><g fill="#5d5340" fill-opacity="1"><g transform="translate(73.986991, 309.931411)"><g><path d="M -41.640625 -56.4375 L -43.859375 -51.171875 L -27.984375 -44.515625 L -36.25 -69.296875 L -39.1875 -62.28125 L -51.765625 -67.5625 L -38.15625 -100.015625 L -25.578125 -94.734375 L -27.953125 -89.09375 L -21.703125 -69.84375 L 17.25 -76.65625 L 19.625 -82.3125 L 32.296875 -77 L 16.359375 -38.984375 L 3.6875 -44.296875 L 6.46875 -50.9375 L -14.515625 -47.34375 L -11.40625 -37.5625 L -0.984375 -33.1875 L 1.234375 -38.453125 L 13.90625 -33.140625 L 1.015625 -2.4375 L -11.65625 -7.75 L -9.4375 -13 L -52.3125 -30.984375 L -54.53125 -25.734375 L -67.109375 -31.015625 L -54.21875 -61.71875 Z M -41.640625 -56.4375 "/></g></g></g><g fill="#5d5340" fill-opacity="1"><g transform="translate(151.952586, 172.480027)"><g><path d="M -44 -59.40625 L -17.21875 -80.765625 L -8.515625 -69.84375 L -13.640625 -65.75 L -3.6875 -53.28125 L 12 -65.796875 L 2.046875 -78.265625 L -2.828125 -74.375 L -11.53125 -85.296875 L 15.34375 -106.71875 L 24.046875 -95.796875 L 19.234375 -91.96875 L 47.890625 -56.03125 L 52.703125 -59.859375 L 61.40625 -48.953125 L 34.53125 -27.53125 L 25.828125 -38.4375 L 30.703125 -42.328125 L 20.765625 -54.796875 L 5.078125 -42.28125 L 15.015625 -29.8125 L 20.140625 -33.90625 L 28.84375 -23 L 2.0625 -1.640625 L -6.640625 -12.546875 L -2.09375 -16.171875 L -30.75 -52.109375 L -35.296875 -48.484375 Z M -44 -59.40625 "/></g></g></g><g fill="#5d5340" fill-opacity="1"><g transform="translate(282.723447, 92.123811)"><g><path d="M -11.953125 -72.9375 L 50.53125 -85.484375 L 55.140625 -62.59375 L 37.21875 -59 L 35.359375 -68.21875 L 18.765625 -64.890625 L 21.640625 -50.59375 L 41.34375 -54.546875 L 44.109375 -40.765625 L 24.40625 -36.8125 L 27.796875 -19.921875 L 44.390625 -23.25 L 42.453125 -32.890625 L 60.375 -36.484375 L 65.078125 -13.0625 L 2.59375 -0.515625 L -0.171875 -14.296875 L 6.34375 -15.609375 L -2.6875 -60.578125 L -9.203125 -59.265625 Z M -11.953125 -72.9375 "/></g></g></g><g fill="#5d5340" fill-opacity="1"><g transform="translate(424.318779, 81.041226)"><g><path d="M 20.984375 -70.890625 L 53.328125 -62.5625 L 49.84375 -49.046875 L 44.40625 -50.4375 L 32.96875 -6.03125 L 46.1875 -2.640625 L 49.546875 -15.625 L 66.734375 -11.1875 L 59.875 15.421875 L 2.5625 0.65625 L 6.0625 -12.96875 L 11.6875 -11.515625 L 23.125 -55.921875 L 17.5 -57.375 Z M 20.984375 -70.890625 "/></g></g></g><g fill="#5d5340" fill-opacity="1"><g transform="translate(552.674409, 130.920183)"><g><path d="M 49.359375 -55.03125 L 75 -33.625 L 66.0625 -22.90625 L 61.765625 -26.5 L 32.390625 8.703125 L 42.859375 17.453125 L 51.453125 7.15625 L 65.078125 18.515625 L 47.46875 39.609375 L 2.03125 1.6875 L 11.046875 -9.109375 L 15.5 -5.375 L 44.875 -40.578125 L 40.421875 -44.3125 Z M 49.359375 -55.03125 "/></g></g></g><g fill="#5d5340" fill-opacity="1"><g transform="translate(648.051891, 229.772171)"><g><path d="M 33.125 78.703125 L 16.6875 39.640625 L 29.453125 34.265625 L 33.34375 43.53125 L 39.109375 38.6875 L 30.703125 18.734375 L 23.21875 19.46875 L 26.421875 27.0625 L 13.65625 32.4375 L 0.609375 1.453125 L 13.375 -3.921875 L 16.171875 2.703125 L 64.453125 -2.140625 L 62.765625 -6.140625 L 75.34375 -11.421875 L 91.09375 26 L 43.03125 66.515625 L 45.890625 73.328125 Z M 43.90625 17.40625 L 49.28125 30.171875 L 67.609375 14.890625 Z M 43.90625 17.40625 "/></g></g></g></g></g></svg>