<svg width="73" height="94" viewBox="0 0 73 94" fill="none" xmlns="http://www.w3.org/2000/svg">
<path d="M5.30172 90.9268H2V80H5.448C6.48588 80 7.374 80.2188 8.11236 80.6563C8.85072 81.0902 9.41668 81.7144 9.81024 82.529C10.2038 83.3399 10.4006 84.311 10.4006 85.4421C10.4006 86.5803 10.2021 87.5602 9.80501 88.3819C9.40797 89.1999 8.82982 89.8295 8.07057 90.2706C7.31131 90.7081 6.38836 90.9268 5.30172 90.9268ZM3.29561 89.753H5.21813C6.10277 89.753 6.8359 89.5788 7.41754 89.2302C7.99917 88.8816 8.43278 88.3854 8.71837 87.7416C9.00396 87.0978 9.14676 86.3313 9.14676 85.4421C9.14676 84.56 9.0057 83.8006 8.7236 83.1639C8.44149 82.5236 8.02006 82.0328 7.45933 81.6913C6.89859 81.3463 6.20029 81.1738 5.36441 81.1738H3.29561V89.753Z" fill="#231F20"/>
<path d="M15.7711 91.0976C14.9979 91.0976 14.3309 90.9233 13.7702 90.5747C13.213 90.2226 12.7828 89.7317 12.4798 89.1021C12.1803 88.469 12.0305 87.7327 12.0305 86.8933C12.0305 86.0539 12.1803 85.314 12.4798 84.6738C12.7828 84.03 13.2042 83.5285 13.7441 83.1692C14.2874 82.8064 14.9213 82.625 15.6457 82.625C16.0637 82.625 16.4764 82.6961 16.8839 82.8384C17.2913 82.9807 17.6623 83.2119 17.9966 83.532C18.331 83.8486 18.5974 84.2683 18.7959 84.7912C18.9944 85.314 19.0937 85.9578 19.0937 86.7226V87.2561H12.9082V86.1677H17.8399C17.8399 85.7053 17.7493 85.2927 17.5682 84.9299C17.3906 84.5671 17.1364 84.2807 16.8055 84.0709C16.4781 83.861 16.0915 83.7561 15.6457 83.7561C15.1546 83.7561 14.7297 83.8806 14.371 84.1296C14.0157 84.375 13.7423 84.6951 13.5508 85.0899C13.3592 85.4848 13.2635 85.908 13.2635 86.3598V87.0854C13.2635 87.7043 13.3679 88.2289 13.5769 88.6593C13.7894 89.0861 14.0837 89.4116 14.4598 89.6357C14.836 89.8562 15.273 89.9665 15.7711 89.9665C16.095 89.9665 16.3876 89.9202 16.6488 89.8277C16.9135 89.7317 17.1416 89.5894 17.3331 89.4009C17.5247 89.2088 17.6727 88.9705 17.7772 88.686L18.9683 89.0274C18.8429 89.44 18.6322 89.8028 18.3362 90.1159C18.0402 90.4253 17.6745 90.6672 17.2391 90.8415C16.8038 91.0122 16.3144 91.0976 15.7711 91.0976Z" fill="#231F20"/>
<path d="M24.3336 91.0976C23.5604 91.0976 22.8935 90.9233 22.3327 90.5747C21.7755 90.2226 21.3454 89.7317 21.0423 89.1021C20.7428 88.469 20.5931 87.7327 20.5931 86.8933C20.5931 86.0539 20.7428 85.314 21.0423 84.6738C21.3454 84.03 21.7668 83.5285 22.3066 83.1692C22.8499 82.8064 23.4838 82.625 24.2082 82.625C24.6262 82.625 25.0389 82.6961 25.4464 82.8384C25.8539 82.9807 26.2248 83.2119 26.5591 83.532C26.8935 83.8486 27.1599 84.2683 27.3585 84.7912C27.557 85.314 27.6562 85.9578 27.6562 86.7226V87.2561H21.4707V86.1677H26.4024C26.4024 85.7053 26.3119 85.2927 26.1308 84.9299C25.9531 84.5671 25.6989 84.2807 25.368 84.0709C25.0406 83.861 24.654 83.7561 24.2082 83.7561C23.7172 83.7561 23.2923 83.8806 22.9335 84.1296C22.5783 84.375 22.3049 84.6951 22.1133 85.0899C21.9218 85.4848 21.826 85.908 21.826 86.3598V87.0854C21.826 87.7043 21.9305 88.2289 22.1394 88.6593C22.3519 89.0861 22.6462 89.4116 23.0223 89.6357C23.3985 89.8562 23.8356 89.9665 24.3336 89.9665C24.6575 89.9665 24.9501 89.9202 25.2113 89.8277C25.476 89.7317 25.7041 89.5894 25.8957 89.4009C26.0872 89.2088 26.2352 88.9705 26.3397 88.686L27.5309 89.0274C27.4055 89.44 27.1948 89.8028 26.8987 90.1159C26.6027 90.4253 26.237 90.6672 25.8016 90.8415C25.3663 91.0122 24.8769 91.0976 24.3336 91.0976Z" fill="#231F20"/>
<path d="M29.5317 94V82.7317H30.7229V84.0335H30.8691C30.9597 83.8913 31.0851 83.7099 31.2453 83.4893C31.409 83.2652 31.6423 83.0661 31.9453 82.8918C32.2518 82.7139 32.6663 82.625 33.1887 82.625C33.8644 82.625 34.4599 82.7975 34.9754 83.1425C35.4909 83.4876 35.8931 83.9766 36.1822 84.6098C36.4713 85.2429 36.6158 85.9898 36.6158 86.8506C36.6158 87.7185 36.4713 88.4708 36.1822 89.1075C35.8931 89.7406 35.4926 90.2315 34.9806 90.58C34.4686 90.925 33.8783 91.0976 33.2096 91.0976C32.6941 91.0976 32.2814 91.0104 31.9715 90.8361C31.6615 90.6583 31.4229 90.4573 31.2557 90.2332C31.0886 90.0056 30.9597 89.8171 30.8691 89.6677H30.7647V94H29.5317ZM30.7438 86.8293C30.7438 87.4482 30.8326 87.9942 31.0102 88.4672C31.1878 88.9367 31.4473 89.3049 31.7886 89.5716C32.1299 89.8349 32.5479 89.9665 33.0424 89.9665C33.5579 89.9665 33.988 89.8277 34.3328 89.5503C34.6811 89.2693 34.9423 88.8923 35.1165 88.4192C35.2941 87.9426 35.3829 87.4126 35.3829 86.8293C35.3829 86.253 35.2958 85.7337 35.1217 85.2713C34.951 84.8054 34.6915 84.4372 34.3433 84.1669C33.9985 83.893 33.5648 83.7561 33.0424 83.7561C32.5409 83.7561 32.1195 83.8859 31.7782 84.1456C31.4368 84.4017 31.1791 84.7609 31.005 85.2233C30.8308 85.6822 30.7438 86.2175 30.7438 86.8293Z" fill="#231F20"/>
<path d="M38.6637 90.9268V80H39.9593V89.753H44.9328V90.9268H38.6637Z" fill="#231F20"/>
<path d="M50.1361 91.0976C49.3629 91.0976 48.696 90.9233 48.1353 90.5747C47.578 90.2226 47.1479 89.7317 46.8449 89.1021C46.5453 88.469 46.3956 87.7327 46.3956 86.8933C46.3956 86.0539 46.5453 85.314 46.8449 84.6738C47.1479 84.03 47.5693 83.5285 48.1091 83.1692C48.6525 82.8064 49.2863 82.625 50.0107 82.625C50.4287 82.625 50.8414 82.6961 51.2489 82.8384C51.6564 82.9807 52.0273 83.2119 52.3617 83.532C52.696 83.8486 52.9624 84.2683 53.161 84.7912C53.3595 85.314 53.4587 85.9578 53.4587 86.7226V87.2561H47.2733V86.1677H52.2049C52.2049 85.7053 52.1144 85.2927 51.9333 84.9299C51.7556 84.5671 51.5014 84.2807 51.1705 84.0709C50.8432 83.861 50.4566 83.7561 50.0107 83.7561C49.5197 83.7561 49.0948 83.8806 48.736 84.1296C48.3808 84.375 48.1074 84.6951 47.9158 85.0899C47.7243 85.4848 47.6285 85.908 47.6285 86.3598V87.0854C47.6285 87.7043 47.733 88.2289 47.942 88.6593C48.1544 89.0861 48.4487 89.4116 48.8249 89.6357C49.201 89.8562 49.6381 89.9665 50.1361 89.9665C50.46 89.9665 50.7526 89.9202 51.0138 89.8277C51.2785 89.7317 51.5066 89.5894 51.6982 89.4009C51.8897 89.2088 52.0378 88.9705 52.1422 88.686L53.3334 89.0274C53.208 89.44 52.9973 89.8028 52.7012 90.1159C52.4052 90.4253 52.0395 90.6672 51.6041 90.8415C51.1688 91.0122 50.6795 91.0976 50.1361 91.0976Z" fill="#231F20"/>
<path d="M56.5672 85.997V90.9268H55.3343V82.7317H56.5254V84.0122H56.6299C56.8179 83.596 57.1035 83.2617 57.4866 83.0091C57.8698 82.753 58.3643 82.625 58.9703 82.625C59.5136 82.625 59.989 82.7388 60.3965 82.9665C60.804 83.1905 61.121 83.532 61.3474 83.9909C61.5737 84.4461 61.6869 85.0224 61.6869 85.7195V90.9268H60.454V85.8049C60.454 85.1611 60.2903 84.6596 59.9629 84.3003C59.6355 83.9375 59.1863 83.7561 58.6151 83.7561C58.2215 83.7561 57.8698 83.8432 57.5598 84.0175C57.2533 84.1918 57.0112 84.4461 56.8336 84.7805C56.656 85.1148 56.5672 85.5203 56.5672 85.997Z" fill="#231F20"/>
<path d="M63.71 90.9268V89.9665L68.2655 83.9909V83.9055H63.8563V82.7317H69.8537V83.7348L65.4236 89.6677V89.753H70V90.9268H63.71Z" fill="#231F20"/>
<path d="M36.1517 72.3034C56.1177 72.3034 72.3034 56.1177 72.3034 36.1517C72.3034 16.1857 56.1177 0 36.1517 0C16.1857 0 0 16.1857 0 36.1517C0 56.1177 16.1857 72.3034 36.1517 72.3034Z" fill="#32A7B5"/>
<mask id="mask0_44_3" style="mask-type:luminance" maskUnits="userSpaceOnUse" x="11" y="11" width="51" height="51">
<path d="M53.7903 53.7908C63.5317 44.0494 63.5317 28.2553 53.7903 18.5139C44.0488 8.77239 28.2547 8.77238 18.5133 18.5139C8.77181 28.2553 8.77181 44.0494 18.5133 53.7908C28.2547 63.5323 44.0488 63.5323 53.7903 53.7908Z" fill="white"/>
</mask>
<g mask="url(#mask0_44_3)">
<path d="M21.8015 90.6313V81.7294C22.1831 84.3961 22.9867 86.8221 24.2086 89.0076C25.9876 92.1851 28.5061 94.6337 31.7642 96.3522C35.0222 98.0707 38.8089 98.9312 43.1265 98.9312H60.3354V56.9578H43.1265C43.053 56.9578 42.9796 56.9578 42.9073 56.9602V48.6592H11.9656V90.6325H21.8003L21.8015 90.6313ZM43.1277 65.5315H50.5019V90.3564H43.1277C40.8095 90.3564 38.7615 89.8467 36.9813 88.8275C35.2024 87.8082 33.824 86.3694 32.8439 84.511C31.8649 82.6515 31.3742 80.4636 31.3742 77.9439C31.3742 74.1466 32.4539 71.1279 34.6122 68.8903C36.7716 66.6503 39.6101 65.5315 43.1277 65.5315ZM21.8015 57.5327H37.3677C35.3517 57.9605 33.485 58.629 31.7642 59.5368C28.5061 61.2541 25.9876 63.7039 24.2086 66.8814C22.9867 69.0669 22.1831 71.4918 21.8015 74.1596V57.5327Z" fill="white"/>
<path d="M-20.1541 39.2963L-11.6883 36.5455C-14.1073 37.7331 -16.1659 39.2465 -17.8667 41.0836C-20.339 43.7574 -21.8892 46.9099 -22.5173 50.539C-23.1455 54.168 -22.7923 58.0353 -21.4578 62.1419L-16.1399 78.5093L23.7796 65.5387L18.4616 49.1713C18.4391 49.1014 18.4166 49.0314 18.3917 48.9639L26.2862 46.3991L16.7253 16.9722L-23.1941 29.9428L-20.1553 39.2963H-20.1541ZM10.3076 51.8225L12.5867 58.8365L-11.0234 66.5082L-13.3025 59.4942C-14.0184 57.2898 -14.1665 55.1837 -13.747 53.176C-13.3274 51.1695 -12.3852 49.4142 -10.9203 47.9067C-9.45541 46.4003 -7.52474 45.2578 -5.12948 44.4803C-1.51704 43.307 1.68652 43.4018 4.48118 44.7624C7.27822 46.1242 9.21955 48.4779 10.3064 51.8237L10.3076 51.8225ZM11.3244 29.0682L16.1351 43.8723C15.1064 42.0874 13.8927 40.5182 12.4978 39.1624C9.85719 36.5953 6.74963 34.9562 3.17748 34.2462C0.721775 33.7591 -1.83348 33.7449 -4.4883 34.2059L11.3244 29.0682Z" fill="white"/>
<path d="M15.7025 -16.4703L20.9351 -9.26797C19.059 -11.201 16.9825 -12.692 14.7093 -13.7409C11.4027 -15.265 7.92533 -15.7663 4.2797 -15.2413C0.634073 -14.7163 -2.9357 -13.1862 -6.42844 -10.6487L-20.3508 -0.533155L4.32 33.4236L18.2424 23.308C18.3016 23.2642 18.3609 23.2215 18.419 23.1777L23.2984 29.8929L48.3307 11.7063L23.6587 -22.2505L15.7025 -16.4703ZM13.203 16.3711L7.23674 20.7054L-7.35526 0.621214L-1.38904 -3.71301C0.487112 -5.07597 2.44385 -5.86649 4.48237 -6.08812C6.5197 -6.30856 8.48118 -5.95538 10.3668 -5.02738C12.2524 -4.09938 13.9354 -2.61671 15.4157 -0.578192C17.6486 2.49381 18.5481 5.57055 18.1179 8.64966C17.6877 11.7311 16.0486 14.3042 13.203 16.3723V16.3711ZM35.1585 10.3077L22.5647 19.4574C23.9443 17.9273 25.0619 16.2882 25.92 14.5424C27.5461 11.2381 28.1434 7.77499 27.7156 4.15899C27.4204 1.67247 26.6441 -0.761896 25.3855 -3.14412L35.1585 10.3065V10.3077Z" fill="white"/>
<path d="M79.8199 0.399796L74.5873 7.60217C75.8459 5.21994 76.6222 2.78557 76.9173 0.299053C77.3452 -3.31695 76.7467 -6.77887 75.1218 -10.0844C73.4957 -13.3898 70.9381 -16.3113 67.4442 -18.8488L53.5218 -28.9644L28.851 4.99239L42.7733 15.1079C42.8326 15.1518 42.8919 15.1945 42.9523 15.2348L38.0729 21.95L63.1052 40.1367L87.776 6.17994L79.8199 0.399796ZM47.8139 8.17105L41.8477 3.83683L56.4397 -16.2473L62.4059 -11.9131C64.2821 -10.5501 65.6391 -8.93354 66.4794 -7.06332C67.3185 -5.19309 67.5887 -3.21858 67.2889 -1.13858C66.989 0.941423 66.099 3.00009 64.6175 5.03743C62.3846 8.10942 59.7381 9.91683 56.6767 10.4585C53.613 11.0013 50.6596 10.238 47.8139 8.16987V8.17105ZM60.365 27.1779L47.7713 18.0282C49.6533 18.8674 51.5567 19.4232 53.4815 19.7005C57.1271 20.2256 60.6044 19.7242 63.9111 18.2001C66.1843 17.1512 68.2596 15.6602 70.1369 13.7272L60.3639 27.1779H60.365Z" fill="white"/>
<path d="M83.5887 66.5925L75.123 63.8417C77.7778 64.3027 80.333 64.2885 82.7887 63.8014C86.3609 63.0915 89.4673 61.4524 92.109 58.8853C94.7508 56.3181 96.7384 52.9819 98.0729 48.8752L103.391 32.5078L63.4714 19.5371L58.1535 35.9045C58.131 35.9744 58.1084 36.0444 58.0871 36.1131L50.1926 33.5484L40.6317 62.9753L80.5511 75.946L83.5899 66.5925H83.5887ZM66.3076 38.5546L68.5867 31.5407L92.1967 39.2124L89.9176 46.2263C89.2018 48.4307 88.083 50.2216 86.5635 51.5987C85.0441 52.9747 83.2498 53.8423 81.1793 54.2002C79.1087 54.557 76.8759 54.3472 74.4794 53.5685C70.867 52.3952 68.3307 50.4349 66.8693 47.6912C65.4068 44.9463 65.2196 41.9004 66.3064 38.5546H66.3076ZM52.1102 56.3644L56.9209 41.5602C56.704 43.6094 56.7633 45.591 57.0951 47.5087C57.7221 51.1377 59.2735 54.2903 61.7458 56.9641C63.4465 58.8023 65.5052 60.3158 67.9241 61.5021L52.1114 56.3644H52.1102Z" fill="white"/>
</g>
</svg>
