<?xml version="1.0" encoding="UTF-8"?>
<svg id="Layer_1" data-name="Layer 1" xmlns="http://www.w3.org/2000/svg" xmlns:xlink="http://www.w3.org/1999/xlink" viewBox="0 0 928 828">
  <defs>
    <style>
      .cls-1 {
        fill: #782f96;
      }

      .cls-2 {
        fill: #c61ba3;
      }

      .cls-3 {
        fill: url(#linear-gradient-2);
      }

      .cls-4 {
        fill: #17cad6;
      }

      .cls-5 {
        fill: #ed218e;
      }

      .cls-6 {
        fill: #f65d30;
      }

      .cls-7 {
        fill: #fff;
      }

      .cls-8 {
        fill: #35b7c0;
      }

      .cls-9 {
        fill: #2ac5ca;
      }

      .cls-10 {
        fill: #4333bc;
      }

      .cls-11 {
        fill: #f4c715;
      }

      .cls-12 {
        fill: #0c7ed6;
      }

      .cls-13 {
        fill: #e8c039;
      }

      .cls-14 {
        fill: #ee1d92;
      }

      .cls-15 {
        fill: url(#linear-gradient);
      }

      .cls-16 {
        fill: #c71fa2;
      }
    </style>
    <linearGradient id="linear-gradient" x1="142.35" y1="470.42" x2="221.34" y2="470.42" gradientUnits="userSpaceOnUse">
      <stop offset="0" stop-color="#7b2ca5"/>
      <stop offset="1" stop-color="#5333b7"/>
    </linearGradient>
    <linearGradient id="linear-gradient-2" x1="344.66" y1="456.54" x2="767.44" y2="456.54" gradientUnits="userSpaceOnUse">
      <stop offset=".02" stop-color="#f65d30"/>
      <stop offset=".23" stop-color="#ee1d92"/>
      <stop offset=".39" stop-color="#f4c715"/>
      <stop offset=".6" stop-color="#c61ba3"/>
      <stop offset="1" stop-color="#17cad6"/>
    </linearGradient>
  </defs>
  <g>
    <g>
      <path d="M455.2,370.56l11.15,35.86c1.37-.11,1.59-1.46,2.04-2.45,4.47-9.79,6.13-23.48,10.5-33.55l10.51.26,10.95,36.74c1.42-.11,1.57-1.47,2.03-2.46,4.46-9.7,5.9-24.37,10-34.54h10.96s-15.9,53-15.9,53l-11.96-.14c-1.47-.94-8.31-28.19-10.08-32.42-.42-1.01-.72-2.32-1.71-1.5l-10.49,34.02-12.82-.13-15.96-52.54,10.78-.15Z"/>
      <path d="M719.34,401.42v-31h11v53l-9.99-.5-24.01-30.5c.03,10.4.07,20.8.1,31.2-1.89,0-3.81-.01-5.75-.04-2.15-.03-4.27-.09-6.36-.16l.36-52.65c3.38,0,6.75-.02,10.13-.03,4.4,6.21,9.27,12.63,14.64,19.18,3.31,4.04,6.61,7.87,9.87,11.5Z"/>
      <path d="M346.34,370.42h9.62l24.38,32c.23-10.62.47-21.23.7-31.85,2.2-.12,4.48-.19,6.85-.2,1.54,0,3.05.01,4.51.05-.02,17.67-.04,35.33-.06,53h-10.79c-4.65-7.5-10.35-15.5-17.36-23.55-2.29-2.63-4.58-5.11-6.85-7.45v31h-11v-53Z"/>
      <path d="M573.93,371.11h11.11l-.13,21.32c7.81-.34,15.62-.67,23.43-1.01v-21h11v53h-11c.03-7.03.07-14.05.1-21.08-7.7.03-15.4.05-23.1.08.03,6.88.07,14.09.1,20.97-4.03.12-8.07-.09-12.1.03.2-17.44.4-34.87.59-52.31Z"/>
      <path d="M440.34,370.42v10h-26v12h23v9h-23v12.01c4.19.15,8.48.25,12.86.29,4.84.05,9.58.02,14.2-.06.03,1.38.04,2.79.04,4.23,0,1.89-.04,3.74-.1,5.54h-39v-53h38Z"/>
      <path d="M639.34,370.42c.1,9.95.2,19.89.3,29.84-.12.88-.87,6.9,3.25,11.12,5.01,5.13,13.99,4.3,17.94.37,2.99-2.97,2.32-6.91,2.04-18.77-.21-9.19-.04-16.7.14-21.72,3.74-.12,7.48-.24,11.22-.36.02,2.12.05,5.57.11,9.84.22,15.09.51,17.55-.24,21.95-1.04,6.08-1.99,11.69-6.22,15.79-9.03,8.75-29.57,7.25-36.4-3.69-2.29-3.67-2.61-7.71-2.44-10.69-.23-11.22-.47-22.45-.7-33.67h11Z"/>
      <path d="M563.24,373.52l-3.39,9.81c-5.25-4.31-23.14-7.18-22.62,2.6.32,6.04,14.85,7.06,19.79,9.3,9.12,4.15,12.27,13.27,6.32,21.7-7.71,10.91-27.62,7.86-37.93,2.4l3.56-8.85c5.09,3.13,26.42,8.25,25.96-1.57-.28-5.9-13.42-7.03-17.87-8.7-9.11-3.43-13.86-10.01-10.21-19.76,4.89-13.07,25.85-11.72,36.39-6.92Z"/>
      <path d="M763.34,380.42c0,14.44,0,28.89,0,43.33-1.87-.06-3.75-.12-5.64-.17-2.13-.06-4.25-.11-6.36-.16v-43h-16c-.08-1.72-.13-3.5-.14-5.34,0-1.61,0-3.17.05-4.69l42.59.03v10h-14.5Z"/>
    </g>
    <g>
      <path class="cls-2" d="M236.33,393.18v.23c-.74-.45-1.77-1.01-3.07-1.45-.1-.04-.2-.07-.3-.1-.39-.13-.8-.25-1.24-.35-.08-.02-.17-.04-.25-.05-1.4-.34-3-.58-4.73-.62-6.41-.14-12.48,4.92-16.99,8.93-1.73,1.54-3.4,3.17-5.02,4.87.13-1.17.25-2.34.38-3.51.8-5.59,1.59-11.18,2.39-16.77,9.57.02,19.15.03,28.72.05.04,2.92.07,5.85.11,8.77Z"/>
      <path class="cls-9" d="M273.18,423.14c-1.24,1.19-2.58,2.42-4.02,3.68-4.69,4.09-7.12,5.57-9.68,5.09-2.29-.42-3.85-2.25-6.75-8.49,2.98.02,6,.02,9.08-.01,3.86-.05,7.65-.13,11.37-.27Z"/>
      <path class="cls-11" d="M315.46,412.89c-.01,1.29-.08,2.53-.21,3.69-4.86-.05-9.71-.09-14.57-.13,4.37-5.3,8.52-10.76,12.26-16.5.07-.11.15-.23.22-.34,1.25,3.48,2.33,8,2.3,13.28Z"/>
      <path class="cls-1" d="M232.23,416.42c-5.34-.19-10.7-.36-16.04-.54,4.45-4.13,8.81-7.02,12.06-5.72.01,0,.02.01.03.01.06.02.11.05.16.07.1.06.2.11.29.16.1.06.2.12.3.19t.01.01c.93.7,1.66,2.11,3.19,5.82Z"/>
      <path class="cls-8" d="M252.33,455.41c-3,.01-6,.01-9,.01-.11-.09-.23-.19-.35-.29.12-4.36.24-8.71.37-13.07,2.34,4.87,5.08,9.81,8.98,13.35Z"/>
      <path class="cls-8" d="M274.21,445.69c-.64,3.2-1.28,6.41-1.92,9.61-.12.1-.24.2-.36.29-2.68,0-5.35,0-8.03-.01.66-.51,1.29-1.06,1.86-1.6,2.91-2.73,5.7-5.44,8.45-8.29Z"/>
      <g>
        <path class="cls-10" d="M236.4,426.66c-.02,9.59-.04,19.17-.06,28.76h-29c-.89-2.43-1.71-5.26-2.25-8.46-1.41-8.43-.24-15.67,1.07-20.58.65-.72,1.23-1.37,1.74-1.92.79-.86,1.59-1.73,2.41-2.61,8.24.48,16.47.96,24.71,1.45.45,1.13.91,2.25,1.38,3.36Z"/>
        <path class="cls-10" d="M201.56,455.43c-6.53.02-13.05.05-19.58.08,0,0,.01,0,.01-.01,4.04-5.39,10.14-12.81,15.64-19.28,1.31,6.4,2.62,12.81,3.93,19.21Z"/>
      </g>
      <g>
        <path class="cls-2" d="M236.34,377.42h-26c.98-4.83,4.54-18.97,17.24-27.52,3.03-2.04,6.06-3.41,8.81-4.34l-.05,31.86Z"/>
        <path class="cls-5" d="M268.34,377.42h-25c.1-10.31.19-20.63.29-30.94,3.58,1.78,8.79,4.94,13.7,10.3,7.2,7.86,9.92,16.26,11.01,20.64Z"/>
        <path class="cls-14" d="M221.34,347.43c-1.84,1.58-3.74,3.41-5.59,5.53-7.53,8.62-10.85,17.97-12.41,24.46h-24c5.28-8.28,16.16-22.26,34.3-28.11,2.64-.85,5.22-1.46,7.7-1.88Z"/>
        <path class="cls-6" d="M276.34,376.92c-1.5-4.25-3.61-9.19-6.58-14.44-3.64-6.43-7.58-11.55-11.04-15.45,2.43.86,5.62,2.08,9.25,3.79,3.3,1.55,8.31,3.92,14.13,8.09,3.83,2.74,10.19,7.37,15.83,15.4.88,1.25,1.56,2.32,2,3.06-7.86-.15-15.73-.3-23.59-.45Z"/>
      </g>
      <path class="cls-6" d="M338.48,396.28c-1.58-2.32-6.37-8.75-14.14-9.86-1.25-.18-2.45-.2-3.62-.1.01-.04.03-.07.05-.11-4.83-1.01-9.97.01-14.36,2.27-7.16,3.68-12.31,10.59-17.37,16.66-2.28,2.74-4.33,5.28-6.41,7.75.04-5.96-.43-12.83-1.86-20.31-.57-2.99-1.24-5.8-1.97-8.43,9.14-.21,18.29-.43,27.44-.64,1.26-.89,7.15-4.86,15.16-3.68,1.22.18,9.1,1.47,13.94,8.59,2.07,3.04,2.83,6.03,3.14,7.86Z"/>
      <path class="cls-14" d="M276.35,416.42c-8.9.01-17.8.02-26.7.03-.26-.61-.53-1.24-.81-1.9-3.12-7.36-4.92-11.88-6.5-14.92v-13.71c.04-.13.32-1,1.18-1.32.39-.14.73-.12.94-.09,9.06.02,18.12.04,27.19.07,1.68,5.85,3.18,12.73,4.02,20.49.43,4.02.63,7.81.68,11.35Z"/>
      <g>
        <path class="cls-11" d="M314.39,431.41c-.8,10.39-4.52,18.55-7.59,23.8-9.11.05-18.22.09-27.32.13.43-4.41.86-8.83,1.27-13.27.12-1.25.24-2.49.35-3.73,4.62-4.95,9.26-9.94,13.76-15.05,6.51-.02,13.02-.03,19.53-.05.19,2.48.23,5.22,0,8.17Z"/>
        <g>
          <path class="cls-11" d="M292.35,474.93c-11.75,13.11-26.97,16.49-33.01,17.48,1.52-1.33,3.04-2.82,4.54-4.5,8.13-9.12,11.49-19.35,12.98-26.57,8.06.06,16.13.13,24.19.19-1.79,3.97-4.52,8.73-8.7,13.4Z"/>
          <path class="cls-13" d="M264.34,487.42c-.12.16-.27.32-.46.49.14-.16.3-.32.46-.49Z"/>
        </g>
      </g>
      <g>
        <path class="cls-16" d="M189.44,423.21c-1.75,2.3-3.5,4.59-5.25,6.81-4.41,5.6-8.78,11.23-13.16,16.85-.84-2.07-1.66-4.3-2.4-6.7-1.95-6.26-2.93-12.02-3.39-16.91,8.07-.02,16.14-.04,24.2-.05Z"/>
        <path class="cls-14" d="M201.18,383.75c-.93,4.7-1.79,9.61-2.57,14.72-.8,5.33-1.44,10.48-1.95,15.45-.72.89-1.43,1.79-2.13,2.69-9.73-.07-19.46-.12-29.19-.19-.91-4.57,5.29-33,9.5-33,8.78.11,17.56.22,26.34.33Z"/>
      </g>
      <path class="cls-7" d="M160.74,462.15c-.53-.04-1.06-.08-1.59-.12.03-.04.07-.09.1-.13.48.1.98.18,1.49.25Z"/>
      <path class="cls-7" d="M176.72,462.44c-.19.15-.39.29-.61.42-1.92,1.17-5.25.09-7.39-.08-1.31-.1-2.63-.21-3.94-.31,3.17.13,6.99.06,11.94-.03Z"/>
      <path class="cls-7" d="M320.77,386.21s-.04.07-.05.11c-2.25,4.61-4.79,9.02-7.56,13.29-.07.11-.15.23-.22.34-3.74,5.74-7.89,11.2-12.26,16.5-1.9,2.31-3.85,4.59-5.82,6.84-4.5,5.11-9.14,10.1-13.76,15.05-1.59,1.7-3.18,3.4-4.76,5.1-.71.76-1.42,1.51-2.13,2.25-2.75,2.85-5.54,5.56-8.45,8.29-.57.54-1.2,1.09-1.86,1.6-1.8,1.39-3.89,2.5-6.16,2.4-.87-.04-2.91-.31-5.41-2.57-3.9-3.54-6.64-8.48-8.98-13.35-.74-1.53-1.43-3.04-2.12-4.51-1.68-3.6-3.29-7.23-4.83-10.89-.47-1.11-.93-2.23-1.38-3.36-.21-.49-.41-.99-.61-1.49-.88-2.2-1.59-3.96-2.18-5.39-1.53-3.71-2.26-5.12-3.19-5.82t-.01-.01c-.18-.14-.38-.25-.59-.35-.05-.02-.1-.05-.16-.07-.01,0-.02-.01-.03-.01-3.25-1.3-7.61,1.59-12.06,5.72-1.97,1.83-3.96,3.9-5.88,5.97-.82.88-1.62,1.75-2.41,2.61-.51.55-1.09,1.2-1.74,1.92-2.27,2.54-5.29,6.02-8.53,9.84-5.5,6.47-11.6,13.89-15.64,19.28,0,.01-.01.01-.01.01-1.47,1.97-2.66,3.66-3.45,4.94-.24.39-.82,1.24-1.81,1.99-4.95.09-8.77.16-11.94.03-1.3-.1-2.6-.2-3.9-.3-.05-.01-.1-.02-.14-.02-.51-.07-1.01-.15-1.49-.25,3.95-4.99,7.87-10.01,11.78-15.03,4.38-5.62,8.75-11.25,13.16-16.85,1.75-2.22,3.5-4.51,5.25-6.81,1.68-2.2,3.37-4.41,5.09-6.6.7-.9,1.41-1.8,2.13-2.69,2.59-3.22,5.25-6.35,8.07-9.28,1.62-1.7,3.29-3.33,5.02-4.87,4.51-4.01,10.58-9.07,16.99-8.93,1.73.04,3.33.28,4.73.62.52.12,1.02.26,1.49.4.1.03.2.06.3.1,1.3.44,2.33,1,3.07,1.45v-.23c.82.4,1.28.69,1.28.69,1.98,1.39,3.26,2.94,4.73,5.76,1.58,3.04,3.38,7.56,6.5,14.92.28.66.55,1.29.81,1.9,1.19,2.78,2.19,5.08,3.08,6.97,2.9,6.24,4.46,8.07,6.75,8.49,2.56.48,4.99-1,9.68-5.09,1.44-1.26,2.78-2.49,4.02-3.68,3.65-3.51,6.58-6.82,9.45-10.25,2.08-2.47,4.13-5.01,6.41-7.75,5.06-6.07,10.21-12.98,17.37-16.66,4.39-2.26,9.53-3.28,14.36-2.27Z"/>
      <path class="cls-7" d="M236.33,393.18v.23c-.74-.45-1.77-1.01-3.07-1.45,1.28.4,2.33.86,3.07,1.22Z"/>
      <g>
        <path class="cls-12" d="M236.39,494.98c-1.52-.31-3.67-.88-6.06-2.04-6.01-2.92-9.22-7.46-11.8-11.21-4.76-6.92-7.01-13.95-8.12-19.37h25.66l.32,32.62Z"/>
        <path class="cls-4" d="M242.71,495.75c-.12-11.11-.25-22.21-.37-33.32,9.36.02,18.72.04,28.07.06-.88,4.53-3.93,16.92-15.06,26.11-4.52,3.73-9.1,5.88-12.64,7.15Z"/>
        <path class="cls-15" d="M221.34,492.41c-3.72-.65-7.95-1.74-12.44-3.6-13.93-5.77-22.38-15.6-26.56-21.39-1.63.97-3.16,1.73-4.73,2.33-.87.34-3.17,1.18-6.27,1.67,0,0-5.33.83-10,0-6.63-1.19-14.68-9.98-18.99-23,3.35,5.87,6.76,9.27,10.47,11.23,2.12,1.12,4.14,1.83,6.43,2.25.48.1.98.18,1.49.25.04,0,.09.01.14.02,1.2.15,2.49.25,3.9.3,3.17.13,6.99.06,11.94-.03.52,0,1.07,0,1.62-.02,5.82-.09,14.33-.14,24.82.09.99,4.78,3.24,12.37,8.81,20.04,3.16,4.37,6.54,7.58,9.37,9.86Z"/>
      </g>
    </g>
  </g>
  <path class="cls-3" d="M344.66,465.07c0-.57,0-1.13,0-1.7h2.55l-.04-23.02-1.91-.06v-1.91c0-.06,5.04.06,5.04.06l15.7,21.19v-19.34h-2.65v-2.21h8.09v1.53h-2.98v25.62h-2.55l-15.66-20.51v18.89h2.04v1.45c-2.54,0-5.08.01-7.62.02ZM389.29,454.33s1.7-8.43-6-9.11c-.92-.11-3.41-.3-5.99,1.11-3.69,2.02-4.69,5.73-4.86,6.38,0,0-2.47,12.17,7.96,13.58,0,0,9.28.64,8.85-5.62,0,0-7.92,6.47-12.21-.43,0,0-1.36-4.34-.81-5.78l13.06-.13ZM376.61,451.86s.29-1.62.57-2.28c.74-1.75,4.41-3.42,6.92-1.72,2.05,1.39,2.01,4.13,2,4.34h-9.57l.08-.34ZM496.59,463.18v-15.13s-1.6-6.57-9.39-3.25c0,0-8.29,2.87-3.95,6.06,0,0,.57,1.28,2.49.19,0,0,1.66-8.93,7.46-2.3l.13,5.37s-8.81-.64-11.3,5.04c0,0-1.21,6.06,2.81,6.38h14.49v-2.36h-2.74ZM493.08,462.41s-4.34,2.49-7.85-.63c0,0-2.49-6.45,7.85-5.68v6.31ZM570.97,463.27v-15.13s-1.6-6.58-9.38-3.26c0,0-8.3,2.87-3.96,6.07,0,0,.57,1.27,2.49.19,0,0,1.66-8.94,7.47-2.3l.13,5.36s-8.81-.64-11.3,5.04c0,0-1.22,6.07,2.81,6.39h14.49v-2.36h-2.75ZM567.46,462.5s-4.34,2.49-7.85-.64c0,0-2.49-6.45,7.85-5.68v6.32ZM620.87,454.07s1.7-8.42-6-9.1c-.93-.12-3.41-.31-5.99,1.1-3.69,2.02-4.7,5.73-4.86,6.39,0,0-2.47,12.17,7.95,13.57,0,0,9.28.64,8.85-5.62,0,0-7.91,6.47-12.21-.42,0,0-1.36-4.34-.81-5.79l13.07-.13ZM608.19,451.61s.28-1.63.56-2.28c.75-1.76,4.41-3.42,6.93-1.72,2.05,1.38,2,4.12,2,4.34h-9.58l.09-.34ZM685.93,444.82c-4.75.16-8.67,5.61-8.96,10.1-.32,4.94,3.63,11.13,8.96,11.34,4.89.19,9.64-4.69,10.43-9,1.07-5.92-5.01-12.62-10.43-12.44ZM692.2,456.63c-.44,3.51-3.15,7.49-5.93,7.34-3.04-.17-5.29-5.22-5.11-9.26.17-3.66,2.4-8.1,5.11-8.23,3.08-.15,6.55,5.32,5.93,10.15ZM736.23,444.82c-4.75.16-8.68,5.61-8.97,10.1-.31,4.94,3.64,11.13,8.97,11.34,4.88.19,9.64-4.69,10.42-9,1.08-5.92-5.01-12.62-10.42-12.44ZM742.5,456.63c-.44,3.51-3.15,7.49-5.93,7.34-3.04-.17-5.29-5.22-5.11-9.26.16-3.66,2.4-8.1,5.11-8.23,3.08-.15,6.54,5.32,5.93,10.15ZM390.3,445.68c2.67.07,5.33.14,8,.21.03.52.06,1.05.09,1.57l-2.17-.09,3.15,11.7,4.94-12.26.64-1.45h1.49l4.38,14.98,4.64-12.89h-2.17l.13-1.62,6.81.04v1.49l-1.7.04-7.11,18.17-2.34.09-4.21-14.68-4.72,14.34-2,.09-5.62-17.91-2.09-.09-.13-1.74ZM435.37,452.36l.09-6.98-2.13.09v1.28s-4.68-3.74-9.32-.17c0,0-5.57,3.62.94,9.23,0,0,10.43.98,7.83,6.09,0,0-3.06,4.72-8.17-.34,0,0-1.49-.09-1.19-2.21l-1.15-.04v6.3l10.81-.04s5.57-2.09,2.68-8.72c0,0-2.85-4.21-7.19-3.23-2.31-.49-3.82-2.24-3.75-3.94.05-1.24.92-2.11,1.24-2.4.67-.35,1.62-.69,2.71-.56,2.22.27,4.16,2.39,4.74,5.32l-.04.43,1.91-.09ZM446.22,445.59l.09,1.79,3.02-.04-.17,10.21c-.64,8.77,5.32,8.3,5.32,8.3,7.19-.72,5.91-4.51,5.91-4.51l-2.13.17c-1.91,3.62-5.02-.21-5.02-.21l.04-13.96,5.96.17.08-1.92-6.08-.12-.26-4.81-1.36-.09v.64c-1.15,2.6-4.85,3.79-4.85,3.79l-.55.59ZM460.4,438.41l3.03-.03c-.05,8.37-.11,16.74-.16,25.11h-1.87l-.02,2.02,7.09-.11-.04-2.26h-1.11l-.04-14s6.6-4.26,7.79.38v13.91h-1.74v1.72h7.47v-2.15h-1.79v-15.32c-.39-.58-1.75-2.45-4.23-3.07-2.76-.69-5.79.42-7.79,2.84v-9.99h-6.57v.94ZM499.74,445.72l.09,1.79,3.02-.04-.17,10.21c-.64,8.77,5.32,8.3,5.32,8.3,7.19-.72,5.91-4.51,5.91-4.51l-2.13.17c-1.91,3.62-5.02-.21-5.02-.21l.04-13.96,5.96.17.08-1.92-6.08-.12-.26-4.81-1.36-.09v.64c-1.15,2.6-4.85,3.79-4.85,3.79l-.55.59ZM523.4,448.46h2.94v14.79h-2.89l1.11,2.17h6.77v-3.13h-1.38v-14.04s5.83-2.68,6.85,1.6v12.96l-1.45.62s.03,1.88.03,1.95,8.17,0,8.17,0v-2.06h-2.17v-14.01s4-4,7.81.13v14.04h-1.85v1.98h7.98v-2.26h-1.72l-.23-14.85s-4.26-6.35-13.06-2.18v.15s-2.45,0-2.45,0c0,0-3-4.23-8.57.17v-.91h-2.35v.84c-1.15.02-2.3.03-3.45.05-.02.66-.03,1.33-.05,1.99ZM573.84,446l.09,1.79,3.02-.04-.17,10.21c-.64,8.77,5.32,8.3,5.32,8.3,7.19-.72,5.91-4.51,5.91-4.51l-2.13.17c-1.91,3.62-5.02-.21-5.02-.21l.04-13.96,5.96.17.08-1.92-6.08-.12-.26-4.81-1.36-.09v.64c-1.15,2.6-4.85,3.79-4.85,3.79l-.55.59ZM588.05,446l.09,1.79,3.02-.04-.17,10.21c-.64,8.77,5.32,8.3,5.32,8.3,7.19-.72,5.91-4.51,5.91-4.51l-2.13.17c-1.91,3.62-5.02-.21-5.02-.21l.04-13.96,5.96.17.08-1.92-6.08-.12-.26-4.81-1.36-.09v.64c-1.15,2.6-4.85,3.79-4.85,3.79l-.55.59ZM622.4,448.43c.11.32,1.11.32,3,0v14.49l-2.49.64v1.6h7.6v-1.72h-2.43v-12.26c.35-.55.93-1.34,1.85-2.08.99-.8,2.12-1.71,3.26-1.36,1.11.34,1.56,1.71,1.66,2.04.24.05,1.07.2,1.67-.27.79-.63.94-2.16,0-3.49-.33-.28-1.24-.97-2.55-1.02-2.33-.1-3.73,1.9-3.83,2.04-.66.62-1.32,1.23-1.98,1.85v-3.29h-1.72c-2.83,1.48-4.17,2.43-4.02,2.85ZM651.84,452.3l.09-6.98-2.13.09v1.28s-4.68-3.74-9.32-.17c0,0-5.57,3.62.94,9.23,0,0,10.43.98,7.83,6.09,0,0-3.06,4.72-8.17-.34,0,0-1.49-.09-1.19-2.21l-1.15-.04v6.3l10.81-.04s5.57-2.09,2.68-8.72c0,0-2.85-4.21-7.19-3.23-2.31-.49-3.82-2.24-3.75-3.94.05-1.24.92-2.11,1.24-2.4.67-.35,1.62-.69,2.71-.56,2.22.27,4.16,2.39,4.74,5.32l-.04.43,1.91-.09ZM662.95,446l.09,1.79,3.02-.04-.17,10.21c-.64,8.77,5.32,8.3,5.32,8.3,7.19-.72,5.91-4.51,5.91-4.51l-2.13.17c-1.91,3.62-5.02-.21-5.02-.21l.04-13.96,5.96.17.08-1.92-6.08-.12-.26-4.81-1.36-.09v.64c-1.15,2.6-4.85,3.79-4.85,3.79l-.55.59ZM706.46,444.94v2.43h2.04l-.09.51,5.11,10.68c4.81,5.57,1.49,10.81,1.49,10.81-3.23,6.51-3.83,1.15-3.83,1.15-4.21-1.32-3.53,3.28-3.53,3.28,4.64,4.3,7.53-.43,7.53-.43.47-.04,9.79-25.7,9.79-25.7h1.4v-2.08h-6.89v2.12h3.4l-5.53,12.51-4.77-12.94h2.13v-1.87h-7.53l-.72-.47ZM747.1,448.26h2.38v12.38s2.98,9.02,11.32,3.74l1.32-.94.21,1.66h5.11v-1.74h-2.17v-17.96h-2.98s.17,1.4-2.68,1.06v2.09h2.72v12.47s-5.66,6.38-8.89-.17v-15.53h-3.19s.68,1.49-1.19,1.06h-1.7l-.26,2v-.13Z"/>
</svg>