<svg width="39" height="39" viewBox="0 0 39 39" fill="none" xmlns="http://www.w3.org/2000/svg">
<path d="M19.3706 38.7412C30.0687 38.7412 38.7413 30.0687 38.7413 19.3706C38.7413 8.67252 30.0687 0 19.3706 0C8.67252 0 0 8.67252 0 19.3706C0 30.0687 8.67252 38.7412 19.3706 38.7412Z" fill="#32A7B5"/>
<mask id="mask0_2404_1993" style="mask-type:luminance" maskUnits="userSpaceOnUse" x="6" y="6" width="27" height="27">
<path d="M28.8217 28.8211C34.0413 23.6015 34.0413 15.1388 28.8217 9.91915C23.602 4.69952 15.1393 4.69952 9.91972 9.91915C4.70009 15.1388 4.70009 23.6015 9.91972 28.8211C15.1393 34.0407 23.602 34.0407 28.8217 28.8211Z" fill="white"/>
</mask>
<g mask="url(#mask0_2404_1993)">
<path d="M11.6813 48.5616V43.7918C11.8858 45.2206 12.3164 46.5206 12.9711 47.6916C13.9243 49.3941 15.2738 50.7061 17.0195 51.6269C18.7652 52.5477 20.7942 53.0088 23.1076 53.0088H32.3284V30.5188H23.1076C23.0682 30.5188 23.0289 30.5188 22.9901 30.5201V26.0723H6.41113V48.5622H11.6807L11.6813 48.5616ZM23.1082 35.1127H27.0595V48.4142H23.1082C21.8661 48.4142 20.7688 48.1412 19.8149 47.595C18.8617 47.0489 18.1232 46.278 17.598 45.2822C17.0735 44.2858 16.8105 43.1136 16.8105 41.7635C16.8105 39.7288 17.3891 38.1114 18.5455 36.9124C19.7025 35.7122 21.2234 35.1127 23.1082 35.1127ZM11.6813 30.8268H20.0219C18.9417 31.0561 17.9416 31.4142 17.0195 31.9007C15.2738 32.8208 13.9243 34.1335 12.9711 35.836C12.3164 37.007 11.8858 38.3063 11.6813 39.7358V30.8268Z" fill="white"/>
<path d="M-10.7989 21.0554L-6.26277 19.5814C-7.55888 20.2177 -8.66195 21.0287 -9.57323 22.013C-10.8979 23.4457 -11.7286 25.1349 -12.0651 27.0794C-12.4017 29.0238 -12.2125 31.096 -11.4974 33.2964L-8.64798 42.0663L12.7414 35.1164L9.89202 26.3465C9.87995 26.309 9.86789 26.2716 9.85455 26.2354L14.0846 24.8612L8.96168 9.09375L-12.4277 16.0436L-10.7995 21.0554H-10.7989ZM5.52294 27.7671L6.74413 31.5253L-5.90651 35.6359L-7.12769 31.8777C-7.51125 30.6965 -7.59063 29.5681 -7.36583 28.4923C-7.14103 27.4172 -6.63617 26.4767 -5.85126 25.6689C-5.06635 24.8618 -4.03187 24.2496 -2.74845 23.833C-0.812852 23.2043 0.903661 23.2551 2.40109 23.9842C3.89978 24.7138 4.93998 25.975 5.52231 27.7677L5.52294 27.7671ZM6.06781 15.575L8.64543 23.5073C8.09422 22.5509 7.44394 21.7101 6.6965 20.9836C5.28163 19.6081 3.61655 18.7298 1.70254 18.3495C0.386738 18.0885 -0.982408 18.0808 -2.4049 18.3279L6.06781 15.575Z" fill="white"/>
<path d="M8.41362 -8.82479L11.2173 -4.96565C10.2121 -6.0014 9.09946 -6.80028 7.88146 -7.36229C6.10969 -8.17895 4.24649 -8.44757 2.2931 -8.16625C0.339721 -7.88493 -1.57302 -7.06509 -3.44448 -5.70547L-10.9043 -0.285403L2.3147 17.9091L9.77451 12.4891C9.80626 12.4656 9.83802 12.4427 9.86913 12.4192L12.4836 16.0173L25.8963 6.27266L12.6766 -11.9219L8.41362 -8.82479ZM7.07432 8.77217L3.87753 11.0945L-3.94108 0.333126L-0.744291 -1.98921C0.260977 -2.71951 1.30943 -3.14308 2.4017 -3.26184C3.49333 -3.37995 4.54432 -3.19071 5.55467 -2.69347C6.56502 -2.19624 7.46678 -1.4018 8.25994 -0.309534C9.45636 1.33649 9.93835 2.98505 9.70783 4.63489C9.47731 6.28599 8.59905 7.66466 7.07432 8.77281V8.77217ZM18.8384 5.52331L12.0905 10.4258C12.8297 9.60598 13.4285 8.72772 13.8883 7.79231C14.7596 6.02181 15.0796 4.16623 14.8504 2.22872C14.6923 0.896407 14.2763 -0.407966 13.6019 -1.6844L18.8384 5.52267V5.52331Z" fill="white"/>
<path d="M42.7689 0.214221L39.9652 4.07336C40.6396 2.79693 41.0555 1.49256 41.2137 0.160242C41.4429 -1.77726 41.1222 -3.63222 40.2516 -5.40334C39.3803 -7.17447 38.0099 -8.73984 36.1378 -10.0995L28.678 -15.5195L15.459 2.675L22.9188 8.09507C22.9506 8.11856 22.9823 8.14142 23.0147 8.16302L20.4002 11.7612L33.8129 21.5058L47.0319 3.31131L42.7689 0.214221ZM25.6196 4.37818L22.4228 2.05584L30.2414 -8.70555L33.4382 -6.38321C34.4435 -5.65291 35.1706 -4.78672 35.6209 -3.78463C36.0705 -2.78253 36.2153 -1.72456 36.0546 -0.610062C35.8939 0.504434 35.417 1.6075 34.6232 2.69913C33.4268 4.34516 32.0088 5.31359 30.3685 5.60381C28.7269 5.89465 27.1444 5.48569 25.6196 4.37754V4.37818ZM32.3447 14.5623L25.5968 9.65981C26.6052 10.1094 27.6251 10.4072 28.6564 10.5558C30.6098 10.8372 32.473 10.5685 34.2447 9.75189C35.4627 9.18988 36.5747 8.391 37.5806 7.35525L32.3441 14.5623H32.3447Z" fill="white"/>
<path d="M44.7885 35.6808L40.2524 34.2068C41.6749 34.4539 43.0441 34.4463 44.3599 34.1853C46.2739 33.8049 47.9383 32.9266 49.3538 31.5511C50.7693 30.1756 51.8343 28.388 52.5493 26.1876L55.3988 17.4177L34.0093 10.4678L31.1599 19.2377C31.1479 19.2751 31.1358 19.3126 31.1244 19.3494L26.8944 17.9752L21.7715 33.7426L43.1609 40.6925L44.7891 35.6808H44.7885ZM35.529 20.6576L36.7502 16.8995L49.4008 21.0101L48.1796 24.7682C47.7961 25.9494 47.1966 26.909 46.3825 27.6469C45.5683 28.3842 44.6069 28.849 43.4975 29.0408C42.3881 29.2319 41.1916 29.1195 39.9076 28.7023C37.972 28.0736 36.613 27.0233 35.83 25.5531C35.0464 24.0824 34.946 22.4503 35.5284 20.6576H35.529ZM27.9218 30.2004L30.4995 22.2681C30.3833 23.3661 30.415 24.4279 30.5928 25.4554C30.9288 27.3998 31.76 29.0891 33.0847 30.5217C33.996 31.5067 35.0991 32.3176 36.3952 32.9533L27.9225 30.2004H27.9218Z" fill="white"/>
</g>
</svg>
